<?xml version="1.0" encoding="utf-8"?>
<!-- Generator: Adobe Illustrator 22.1.0, SVG Export Plug-In . SVG Version: 6.00 Build 0)  -->
<svg version="1.1" id="Layer_1" xmlns="http://www.w3.org/2000/svg" xmlns:xlink="http://www.w3.org/1999/xlink" x="0px" y="0px"
	 viewBox="0 0 518 567.3" style="enable-background:new 0 0 518 567.3;" xml:space="preserve">
<style type="text/css">
	.st0{fill:#10A79D;stroke:#FFFFFF;stroke-width:0.216;stroke-miterlimit:22.9256;}
	.st1{fill:#197067;}
	.st2{fill-rule:evenodd;clip-rule:evenodd;fill:#FFFFFF;}
	.st3{fill-rule:evenodd;clip-rule:evenodd;fill:#10A79D;}
	.st4{fill:#FFFFFF;}
</style>
<g>
	<path class="st0" d="M467.4,103.9L309.1,12.1c-0.4-0.3-0.9-0.5-1.3-0.7h0c-0.4-0.2-0.9-0.5-1.3-0.7c-0.5-0.2-0.9-0.5-1.4-0.7h0
		c-0.5-0.2-0.9-0.5-1.4-0.7c-0.5-0.2-0.9-0.4-1.4-0.6c-0.5-0.2-1-0.4-1.4-0.6c-0.5-0.2-1-0.4-1.5-0.6h0c-0.5-0.2-1-0.4-1.5-0.6h0
		c-0.5-0.2-1-0.4-1.5-0.6h0c-0.5-0.2-1-0.4-1.5-0.5h0c-0.5-0.2-1-0.3-1.5-0.5h0c-0.5-0.2-1-0.3-1.5-0.5h0c-0.5-0.2-1-0.3-1.6-0.5h0
		c-0.5-0.1-1-0.3-1.6-0.4h0c-0.5-0.1-1.1-0.3-1.6-0.4h0c-0.5-0.1-1.1-0.3-1.6-0.4h0c-0.5-0.1-1.1-0.2-1.6-0.4h0
		c-0.5-0.1-1.1-0.2-1.6-0.3h0c-0.5-0.1-1.1-0.2-1.6-0.3h0c-0.5-0.1-1.1-0.2-1.7-0.3h0c-0.6-0.1-1.1-0.2-1.7-0.3h0
		c-0.6-0.1-1.1-0.2-1.7-0.2h0C275.1,1.1,274.6,1,274,1h0c-0.6-0.1-1.1-0.1-1.7-0.2h0c-0.6-0.1-1.1-0.1-1.7-0.2h0
		c-0.6-0.1-1.1-0.1-1.7-0.2h0c-0.6,0-1.1-0.1-1.7-0.1h0c-0.6,0-1.1-0.1-1.7-0.1h0c-0.6,0-1.1-0.1-1.7-0.1h0c-0.6,0-1.1,0-1.7-0.1h0
		c-0.6,0-1.1,0-1.7,0h0c-0.6,0-1.1,0-1.7,0h0c-0.6,0-1.1,0-1.7,0h0c-0.6,0-1.1,0-1.7,0h0c-0.6,0-1.1,0-1.7,0.1h0
		c-0.6,0-1.1,0.1-1.7,0.1h0c-0.6,0-1.1,0.1-1.7,0.1h0c-0.6,0-1.1,0.1-1.7,0.1h0c-0.6,0-1.1,0.1-1.7,0.2h0c-0.6,0.1-1.1,0.1-1.7,0.2
		h0c-0.6,0.1-1.1,0.1-1.7,0.2h0c-0.6,0.1-1.1,0.1-1.7,0.2h0c-0.6,0.1-1.1,0.2-1.7,0.2h0c-0.6,0.1-1.1,0.2-1.7,0.3h0
		c-0.6,0.1-1.1,0.2-1.6,0.3h0c-0.5,0.1-1.1,0.2-1.6,0.3h0c-0.5,0.1-1.1,0.2-1.6,0.3h0c-0.5,0.1-1.1,0.2-1.6,0.4h0
		c-0.5,0.1-1.1,0.3-1.6,0.4h0c-0.5,0.1-1.1,0.3-1.6,0.4h0c-0.5,0.1-1.1,0.3-1.6,0.4h0c-0.5,0.1-1,0.3-1.6,0.5h0
		c-0.5,0.2-1,0.3-1.5,0.5h0c-0.5,0.2-1,0.3-1.5,0.5h0c-0.5,0.2-1,0.4-1.5,0.5h0c-0.5,0.2-1,0.4-1.5,0.6h0c-0.5,0.2-1,0.4-1.5,0.6h0
		c-0.5,0.2-1,0.4-1.5,0.6c-0.5,0.2-1,0.4-1.4,0.6c-0.5,0.2-0.9,0.4-1.4,0.6c-0.5,0.2-0.9,0.4-1.4,0.7h0c-0.5,0.2-0.9,0.5-1.4,0.7
		c-0.5,0.2-0.9,0.5-1.3,0.7h0c-0.4,0.2-0.9,0.5-1.3,0.7L50,103.9C22.2,120,0,159.5,0,191.6V366v9.5c0,32.1,22.2,71.6,50,87.7
		l6.1,3.5l0,0l18.4,10.6l95.4,55.5l-0.1-0.3l38.6,22.4c11.9,6.9,27,10.8,42.5,11.8l0,0c2.6,0.2,5.2,0.2,7.7,0.2h0h0h0
		c2.6,0,5.2-0.1,7.7-0.2l0,0c15.6-1,30.7-4.9,42.5-11.8l38.6-22.4l-0.1,0.3l95.4-55.5l18.4-10.6l0,0l6.1-3.5
		c27.8-16.1,50-55.6,50-87.7V366V191.6C517.4,159.5,495.1,120,467.4,103.9L467.4,103.9z"/>
	<path class="st1" d="M0,285.9V366v9.5c0,32.1,22.2,71.6,50,87.7l6.1,3.5l0,0l18.4,10.6l95.4,55.5l-0.1-0.3l38.6,22.4
		c13.2,7.6,29.8,11.3,45,12l13.1-0.1l59.8-80.8l33.6-33.9l51.1-88.5c10.5-39.8,16.1-66.4,17.3-84.7c0.5-8.1,1-15.2-0.7-20
		L167.5,105.4L0,285.9L0,285.9z"/>
	<path class="st2" d="M415.6,344.9l8.2-33.2c2.7-11,4.2-22,4.5-32.8l-286.2-70.4l-16,65.2L415.6,344.9L415.6,344.9z"/>
	<path class="st3" d="M409.1,334.1l6-24.6c1.3-5.3,2.3-10.5,3-15.4c0.4-2.8,0.7-5.5,0.9-8.3l-270.4-66.5l-11.8,47.9L409.1,334.1
		L409.1,334.1z"/>
	<path class="st4" d="M75.7,478.2l77.8,45.3L205.3,313l-83.9-20.6L75.7,478.2L75.7,478.2z M266.5,566.8c15.6-1,30.7-4.9,42.5-11.8
		l36.8-21.3L326.3,486c-28.9,7.7-59.4,6.3-88.5,0.3L266.5,566.8L266.5,566.8L266.5,566.8z M326.1,342.7l-4.3,17.3
		c-7,28.5-34.8,41.2-62.7,34.4l0,0l-50.9-12.5l-18.6,75.4l41.4,10.2c48.8,12,88.1,8.1,119.1-9.2l0,0c26.8-15.1,47.5-40.6,56.5-77.3
		l4.3-17.3L326.1,342.7L326.1,342.7z M427.6,258.9c-5.5-54-40.2-99.4-93.5-112.5c-40.6-10-166.7-41-166.7-41l-20.8,84.4
		c51.3,12.6,102.7,25.3,154,37.9L427.6,258.9L427.6,258.9z"/>
</g>
</svg>
