<?xml version="1.0" encoding="UTF-8"?>
<svg width="67px" height="457px" viewBox="0 0 67 457" version="1.1" xmlns="http://www.w3.org/2000/svg" xmlns:xlink="http://www.w3.org/1999/xlink">
    <!-- Generator: Sketch 51.1 (57501) - http://www.bohemiancoding.com/sketch -->
    <title>1</title>
    <desc>Created with Sketch.</desc>
    <defs></defs>
    <g id="Welcome" stroke="none" stroke-width="1" fill="none" fill-rule="evenodd">
        <g id="Mobile-Portrait" transform="translate(-243.000000, -634.000000)">
            <g id="1" transform="translate(243.000000, 634.000000)">
                <path d="M60,2.08798256 L60,454.912017 C60,456.061366 59.0961538,457 58,457 C56.9038462,457 56,456.061366 56,454.912017 L56,2.08798256 C56,0.938634363 56.9038462,0 58,0 C59.1153846,0 60,0.938634363 60,2.08798256 Z" id="Shape" fill="#DCDCDC" fill-rule="nonzero"></path>
                <path d="M57.9807692,26 C58.6730769,26 59.3269231,26.0576923 60,26.1538462 L60,30.25 C59.3461538,30.0961538 58.6730769,30.0192308 57.9807692,30.0192308 C55.5,30.0192308 53.25,31.0192308 51.6346154,32.6538462 C50.0192308,34.2692308 49,36.5192308 49,39 C49,41.4807692 50,43.7307692 51.6346154,45.3461538 C53.25,46.9615385 55.5,47.9807692 57.9807692,47.9807692 C58.6730769,47.9807692 59.3461538,47.9038462 60,47.75 L60,51.8461538 C59.3461538,51.9423077 58.6730769,52 57.9807692,52 C54.4038462,52 51.1538462,50.5384615 48.8076923,48.1923077 C46.4423077,45.8269231 45,42.5769231 45,39 C45,35.4230769 46.4615385,32.1730769 48.8076923,29.8269231 C51.1538462,27.4615385 54.4038462,26.0192308 58,26.0192308 L57.9807692,26 Z" id="Shape" fill="#DCDCDC" fill-rule="nonzero"></path>
                <path d="M64.359743,32.640257 C62.7408994,31.0214133 60.4860814,30 58,30 C55.5139186,30 53.2591006,31.0021413 51.640257,32.640257 C50.0214133,34.2591006 49,36.5139186 49,39 C49,41.4860814 50.0021413,43.7408994 51.640257,45.359743 C53.2591006,46.9785867 55.5139186,48 58,48 C60.4860814,48 62.7408994,46.9978587 64.359743,45.359743 C65.9785867,43.7216274 67,41.4860814 67,39 C67,36.5139186 65.9978587,34.2591006 64.359743,32.640257 Z" id="Shape" fill="#FFFFFF" fill-rule="nonzero"></path>
                <path d="M-1.77635684e-15,28 L40.8394634,37.673224 C40.7633059,38.3296903 40.7252272,38.9861566 40.7252272,39.642623 C40.7252272,43.4076503 41.9437473,46.9023679 44,49.7020036 L15.2695803,81 C18.63955,75.3428051 20.5815664,68.7202186 20.5815664,61.6149362 C20.5815664,46.8830601 12.2042406,34.1205829 -1.77635684e-15,28 Z" id="Shape" fill="#E6E6E6"></path>
                <path d="M57.9807692,115 C58.6730769,115 59.3269231,115.057692 60,115.153846 L60,119.25 C59.3461538,119.096154 58.6730769,119.019231 57.9807692,119.019231 C55.5,119.019231 53.25,120.019231 51.6346154,121.653846 C50.0192308,123.269231 49,125.519231 49,128 C49,130.480769 50,132.730769 51.6346154,134.346154 C53.25,135.961538 55.5,136.980769 57.9807692,136.980769 C58.6730769,136.980769 59.3461538,136.903846 60,136.75 L60,140.846154 C59.3461538,140.942308 58.6730769,141 57.9807692,141 C54.4038462,141 51.1538462,139.538462 48.8076923,137.192308 C46.4423077,134.826923 45,131.576923 45,128 C45,124.423077 46.4615385,121.173077 48.8076923,118.826923 C51.1538462,116.461538 54.4038462,115.019231 58,115.019231 L57.9807692,115 Z" id="Shape" fill="#DCDCDC" fill-rule="nonzero"></path>
                <path d="M57.9807692,204 C58.6730769,204 59.3269231,204.057692 60,204.153846 L60,208.25 C59.3461538,208.096154 58.6730769,208.019231 57.9807692,208.019231 C55.5,208.019231 53.25,209.019231 51.6346154,210.653846 C50.0192308,212.269231 49,214.519231 49,217 C49,219.480769 50,221.730769 51.6346154,223.346154 C53.25,224.961538 55.5,225.980769 57.9807692,225.980769 C58.6730769,225.980769 59.3461538,225.903846 60,225.75 L60,229.846154 C59.3461538,229.942308 58.6730769,230 57.9807692,230 C54.4038462,230 51.1538462,228.538462 48.8076923,226.192308 C46.4423077,223.826923 45,220.576923 45,217 C45,213.423077 46.4615385,210.173077 48.8076923,207.826923 C51.1538462,205.461538 54.4038462,204.019231 58,204.019231 L57.9807692,204 Z" id="Shape" fill="#DCDCDC" fill-rule="nonzero"></path>
                <path d="M57.9807692,293 C58.6730769,293 59.3269231,293.057692 60,293.153846 L60,297.25 C59.3461538,297.096154 58.6730769,297.019231 57.9807692,297.019231 C55.5,297.019231 53.25,298.019231 51.6346154,299.653846 C50.0192308,301.269231 49,303.519231 49,306 C49,308.480769 50,310.730769 51.6346154,312.346154 C53.25,313.961538 55.5,314.980769 57.9807692,314.980769 C58.6730769,314.980769 59.3461538,314.903846 60,314.75 L60,318.846154 C59.3461538,318.942308 58.6730769,319 57.9807692,319 C54.4038462,319 51.1538462,317.538462 48.8076923,315.192308 C46.4423077,312.826923 45,309.576923 45,306 C45,302.423077 46.4615385,299.173077 48.8076923,296.826923 C51.1538462,294.461538 54.4038462,293.019231 58,293.019231 L57.9807692,293 Z" id="Shape" fill="#DCDCDC" fill-rule="nonzero"></path>
                <path d="M57.9807692,382 C58.6730769,382 59.3269231,382.057692 60,382.153846 L60,386.25 C59.3461538,386.096154 58.6730769,386.019231 57.9807692,386.019231 C55.5,386.019231 53.25,387.019231 51.6346154,388.653846 C50.0192308,390.269231 49,392.519231 49,395 C49,397.480769 50,399.730769 51.6346154,401.346154 C53.25,402.961538 55.5,403.980769 57.9807692,403.980769 C58.6730769,403.980769 59.3461538,403.903846 60,403.75 L60,407.846154 C59.3461538,407.942308 58.6730769,408 57.9807692,408 C54.4038462,408 51.1538462,406.538462 48.8076923,404.192308 C46.4423077,401.826923 45,398.576923 45,395 C45,391.423077 46.4615385,388.173077 48.8076923,385.826923 C51.1538462,383.461538 54.4038462,382.019231 58,382.019231 L57.9807692,382 Z" id="Shape" fill="#DCDCDC" fill-rule="nonzero"></path>
                <path d="M64.359743,121.640257 C62.7408994,120.021413 60.4860814,119 58,119 C55.5139186,119 53.2591006,120.002141 51.640257,121.640257 C50.0214133,123.259101 49,125.513919 49,128 C49,130.486081 50.0021413,132.740899 51.640257,134.359743 C53.2591006,135.978587 55.5139186,137 58,137 C60.4860814,137 62.7408994,135.997859 64.359743,134.359743 C65.9785867,132.721627 67,130.486081 67,128 C67,125.513919 65.9978587,123.259101 64.359743,121.640257 Z" id="Shape" fill="#FFFFFF" fill-rule="nonzero"></path>
                <path d="M64.359743,210.640257 C62.7408994,209.021413 60.4860814,208 58,208 C55.5139186,208 53.2591006,209.002141 51.640257,210.640257 C50.0214133,212.259101 49,214.513919 49,217 C49,219.486081 50.0021413,221.740899 51.640257,223.359743 C53.2591006,224.978587 55.5139186,226 58,226 C60.4860814,226 62.7408994,224.997859 64.359743,223.359743 C65.9785867,221.721627 67,219.486081 67,217 C67,214.513919 65.9978587,212.259101 64.359743,210.640257 Z" id="Shape" fill="#FFFFFF" fill-rule="nonzero"></path>
                <path d="M64.359743,299.640257 C62.7408994,298.021413 60.4860814,297 58,297 C55.5139186,297 53.2591006,298.002141 51.640257,299.640257 C50.0214133,301.259101 49,303.513919 49,306 C49,308.486081 50.0021413,310.740899 51.640257,312.359743 C53.2591006,313.978587 55.5139186,315 58,315 C60.4860814,315 62.7408994,313.997859 64.359743,312.359743 C65.9785867,310.721627 67,308.486081 67,306 C67,303.513919 65.9978587,301.259101 64.359743,299.640257 Z" id="Shape" fill="#FFFFFF" fill-rule="nonzero"></path>
                <path d="M64.359743,388.640257 C62.7408994,387.021413 60.4860814,386 58,386 C55.5139186,386 53.2591006,387.002141 51.640257,388.640257 C50.0214133,390.259101 49,392.513919 49,395 C49,397.486081 50.0021413,399.740899 51.640257,401.359743 C53.2591006,402.978587 55.5139186,404 58,404 C60.4860814,404 62.7408994,402.997859 64.359743,401.359743 C65.9785867,399.721627 67,397.486081 67,395 C67,392.513919 65.9978587,390.259101 64.359743,388.640257 Z" id="Shape" fill="#FFFFFF" fill-rule="nonzero"></path>
                <path d="M-1.77635684e-15,116 L40.8394634,125.673224 C40.7633059,126.32969 40.7252272,126.986157 40.7252272,127.642623 C40.7252272,131.40765 41.9437473,134.902368 44,137.702004 L15.2695803,169 C18.63955,163.342805 20.5815664,156.720219 20.5815664,149.614936 C20.5815664,134.88306 12.2042406,122.120583 -1.77635684e-15,116 Z" id="Shape" fill="#E6E6E6"></path>
                <path d="M-1.77635684e-15,205 L40.8394634,214.673224 C40.7633059,215.32969 40.7252272,215.986157 40.7252272,216.642623 C40.7252272,220.40765 41.9437473,223.902368 44,226.702004 L15.2695803,258 C18.63955,252.342805 20.5815664,245.720219 20.5815664,238.614936 C20.5815664,223.88306 12.2042406,211.120583 -1.77635684e-15,205 Z" id="Shape" fill="#E6E6E6"></path>
                <path d="M-1.77635684e-15,294 L40.8394634,303.673224 C40.7633059,304.32969 40.7252272,304.986157 40.7252272,305.642623 C40.7252272,309.40765 41.9437473,312.902368 44,315.702004 L15.2695803,347 C18.63955,341.342805 20.5815664,334.720219 20.5815664,327.614936 C20.5815664,312.88306 12.2042406,300.120583 -1.77635684e-15,294 Z" id="Shape" fill="#E6E6E6"></path>
                <path d="M-1.77635684e-15,383 L40.8394634,392.673224 C40.7633059,393.32969 40.7252272,393.986157 40.7252272,394.642623 C40.7252272,398.40765 41.9437473,401.902368 44,404.702004 L15.2695803,436 C18.63955,430.342805 20.5815664,423.720219 20.5815664,416.614936 C20.5815664,401.88306 12.2042406,389.120583 -1.77635684e-15,383 Z" id="Shape" fill="#E6E6E6"></path>
            </g>
        </g>
    </g>
</svg>