<?xml version="1.0" encoding="UTF-8"?>
<!DOCTYPE svg PUBLIC "-//W3C//DTD SVG 1.0//EN" "http://www.w3.org/TR/2001/REC-SVG-20010904/DTD/svg10.dtd">
<!-- Creator: CorelDRAW 2017 -->
<svg xmlns="http://www.w3.org/2000/svg" xml:space="preserve" width="4.1024mm" height="46.4129mm" version="1.0" shape-rendering="geometricPrecision" text-rendering="geometricPrecision" image-rendering="optimizeQuality" fill-rule="evenodd" clip-rule="evenodd"
viewBox="0 0 10.82 122.36"
 xmlns:xlink="http://www.w3.org/1999/xlink">
 <g id="Layer_x0020_1">
  <metadata id="CorelCorpID_0Corel-Layer"/>
  <polygon fill="#D9D9D9" fill-rule="nonzero" points="10.73,0 10.73,122.36 9.84,122.36 9.84,0 "/>
  <path fill="white" fill-rule="nonzero" d="M10.29 6.78l-0.01 0c-0.15,0 -0.29,0.06 -0.39,0.16 -0.1,0.1 -0.16,0.24 -0.16,0.39 0,0.15 0.06,0.29 0.16,0.39 0.1,0.1 0.24,0.16 0.4,0.16l0.01 0 0.52 0 0 -0.34 -0.02 0 0.02 -0.05 0 -0.73 -0.52 0z"/>
  <path fill="white" fill-rule="nonzero" d="M10.29 30.21l-0.01 0c-0.15,0 -0.29,0.06 -0.39,0.16 -0.1,0.1 -0.16,0.24 -0.16,0.39 0,0.15 0.06,0.29 0.16,0.39 0.1,0.1 0.24,0.16 0.4,0.16l0.01 0 0.52 0 0 -0.34 -0.02 0 0.02 -0.05 0 -0.73 -0.52 0z"/>
  <path fill="white" fill-rule="nonzero" d="M10.29 53.65l-0.01 0c-0.15,0 -0.29,0.06 -0.39,0.16 -0.1,0.1 -0.16,0.24 -0.16,0.39 0,0.15 0.06,0.29 0.16,0.39 0.1,0.1 0.24,0.16 0.4,0.16l0.01 0 0.52 0 0 -0.34 -0.02 0 0.02 -0.05 0 -0.73 -0.52 0z"/>
  <path fill="white" fill-rule="nonzero" d="M10.29 77.09l-0.01 0c-0.15,0 -0.29,0.06 -0.39,0.16 -0.1,0.1 -0.16,0.24 -0.16,0.39 0,0.15 0.06,0.29 0.16,0.39 0.1,0.1 0.24,0.16 0.4,0.16l0.01 0 0.52 0 0 -0.34 -0.02 0 0.02 -0.05 0 -0.73 -0.52 0z"/>
  <path fill="white" fill-rule="nonzero" d="M10.29 100.52l-0.01 0c-0.15,0 -0.29,0.06 -0.39,0.16 -0.1,0.1 -0.16,0.24 -0.16,0.39 0,0.15 0.06,0.29 0.16,0.39 0.1,0.1 0.24,0.16 0.4,0.16l0.01 0 0.52 0 0 -0.34 -0.02 0 0.02 -0.05 0 -0.73 -0.52 0z"/>
  <path fill="#D9D9D9" fill-rule="nonzero" d="M10.28 5.89c0.16,0 0.31,0.02 0.45,0.07l0 1.04c-0.11,-0.14 -0.27,-0.22 -0.45,-0.22 -0.15,0 -0.29,0.06 -0.39,0.16 -0.1,0.1 -0.16,0.24 -0.16,0.39 0,0.15 0.06,0.29 0.16,0.39 0.1,0.1 0.24,0.16 0.4,0.16 0.15,0 0.29,-0.06 0.39,-0.16 0.02,-0.02 0.04,-0.04 0.05,-0.06l0 1.05c-0.14,0.05 -0.29,0.07 -0.45,0.07 -0.4,0 -0.76,-0.16 -1.02,-0.42 -0.26,-0.26 -0.43,-0.63 -0.43,-1.03 0,-0.4 0.16,-0.76 0.42,-1.03 0.26,-0.26 0.63,-0.42 1.03,-0.42z"/>
  <path fill="#D9D9D9" fill-rule="nonzero" d="M10.28 29.32c0.16,0 0.31,0.02 0.45,0.07l0 1.04c-0.11,-0.14 -0.27,-0.22 -0.45,-0.22 -0.15,0 -0.29,0.06 -0.39,0.16 -0.1,0.1 -0.16,0.24 -0.16,0.39 0,0.15 0.06,0.29 0.16,0.39 0.1,0.1 0.24,0.16 0.4,0.16 0.15,0 0.29,-0.06 0.39,-0.16 0.02,-0.02 0.04,-0.04 0.05,-0.06l0 1.05c-0.14,0.05 -0.29,0.07 -0.45,0.07 -0.4,0 -0.76,-0.16 -1.02,-0.42 -0.26,-0.26 -0.43,-0.63 -0.43,-1.03 0,-0.4 0.16,-0.76 0.42,-1.03 0.26,-0.26 0.63,-0.42 1.03,-0.42z"/>
  <path fill="#D9D9D9" fill-rule="nonzero" d="M10.28 52.76c0.16,0 0.31,0.02 0.45,0.07l0 1.04c-0.11,-0.14 -0.27,-0.22 -0.45,-0.22 -0.15,0 -0.29,0.06 -0.39,0.16 -0.1,0.1 -0.16,0.24 -0.16,0.39 0,0.15 0.06,0.29 0.16,0.39 0.1,0.1 0.24,0.16 0.4,0.16 0.15,0 0.29,-0.06 0.39,-0.16 0.02,-0.02 0.04,-0.04 0.05,-0.06l0 1.05c-0.14,0.05 -0.29,0.07 -0.45,0.07 -0.4,0 -0.76,-0.16 -1.02,-0.42 -0.26,-0.26 -0.43,-0.63 -0.43,-1.03 0,-0.4 0.16,-0.76 0.42,-1.03 0.26,-0.26 0.63,-0.42 1.03,-0.42z"/>
  <path fill="#D9D9D9" fill-rule="nonzero" d="M10.28 76.19c0.16,0 0.31,0.02 0.45,0.07l0 1.04c-0.11,-0.14 -0.27,-0.22 -0.45,-0.22 -0.15,0 -0.29,0.06 -0.39,0.16 -0.1,0.1 -0.16,0.24 -0.16,0.39 0,0.15 0.06,0.29 0.16,0.39 0.1,0.1 0.24,0.16 0.4,0.16 0.15,0 0.29,-0.06 0.39,-0.16 0.02,-0.02 0.04,-0.04 0.05,-0.06l0 1.05c-0.14,0.05 -0.29,0.07 -0.45,0.07 -0.4,0 -0.76,-0.16 -1.02,-0.42 -0.26,-0.26 -0.43,-0.63 -0.43,-1.03 0,-0.4 0.16,-0.76 0.42,-1.03 0.26,-0.26 0.63,-0.42 1.03,-0.42z"/>
  <path fill="#D9D9D9" fill-rule="nonzero" d="M10.28 99.63c0.16,0 0.31,0.02 0.45,0.07l0 1.04c-0.11,-0.14 -0.27,-0.22 -0.45,-0.22 -0.15,0 -0.29,0.06 -0.39,0.16 -0.1,0.1 -0.16,0.24 -0.16,0.39 0,0.15 0.06,0.29 0.16,0.39 0.1,0.1 0.24,0.16 0.4,0.16 0.15,0 0.29,-0.06 0.39,-0.16 0.02,-0.02 0.04,-0.04 0.05,-0.06l0 1.05c-0.14,0.05 -0.29,0.07 -0.45,0.07 -0.4,0 -0.76,-0.16 -1.02,-0.42 -0.26,-0.26 -0.43,-0.63 -0.43,-1.03 0,-0.4 0.16,-0.76 0.42,-1.03 0.26,-0.26 0.63,-0.42 1.03,-0.42z"/>
  <path fill="#D9D9D9" d="M-0 100.53l8.3 -0.19c-0.09,0.23 -0.13,0.48 -0.13,0.74 0,0.28 0.06,0.56 0.16,0.81 0.11,0.26 0.27,0.49 0.46,0.69l0 0c0.2,0.19 0.43,0.35 0.69,0.46 0.04,0.02 0.08,0.03 0.12,0.04l-2.4 7.07c-0.13,-2.76 -1.3,-5.25 -3.13,-7.08 -1.13,-1.13 -2.52,-2.01 -4.06,-2.55z"/>
  <path fill="#D9D9D9" d="M-0 77.09l8.3 -0.19c-0.09,0.23 -0.13,0.48 -0.13,0.74 0,0.28 0.06,0.56 0.16,0.81 0.11,0.26 0.27,0.49 0.46,0.69l0 0c0.2,0.19 0.43,0.35 0.69,0.46 0.04,0.02 0.08,0.03 0.12,0.04l-2.4 7.07c-0.13,-2.76 -1.3,-5.25 -3.13,-7.08 -1.13,-1.13 -2.52,-2.01 -4.06,-2.55z"/>
  <path fill="#D9D9D9" d="M-0 53.66l8.3 -0.19c-0.09,0.23 -0.13,0.48 -0.13,0.74 0,0.28 0.06,0.56 0.16,0.81 0.11,0.26 0.27,0.49 0.46,0.69l0 0c0.2,0.19 0.43,0.35 0.69,0.46 0.04,0.02 0.08,0.03 0.12,0.04l-2.4 7.07c-0.13,-2.76 -1.3,-5.25 -3.13,-7.08 -1.13,-1.13 -2.52,-2.01 -4.06,-2.55z"/>
  <path fill="#D9D9D9" d="M-0 30.22l8.3 -0.19c-0.09,0.23 -0.13,0.48 -0.13,0.74 0,0.28 0.06,0.56 0.16,0.81 0.11,0.26 0.27,0.49 0.46,0.69l0 0c0.2,0.19 0.43,0.35 0.69,0.46 0.04,0.02 0.08,0.03 0.12,0.04l-2.4 7.07c-0.13,-2.76 -1.3,-5.25 -3.13,-7.08 -1.13,-1.13 -2.52,-2.01 -4.06,-2.55z"/>
  <path fill="#D9D9D9" d="M-0 6.79l8.3 -0.19c-0.09,0.23 -0.13,0.48 -0.13,0.74 0,0.28 0.06,0.56 0.16,0.81 0.11,0.26 0.27,0.49 0.46,0.69l0 0c0.2,0.19 0.43,0.35 0.69,0.46 0.04,0.02 0.08,0.03 0.12,0.04l-2.4 7.07c-0.13,-2.76 -1.3,-5.25 -3.13,-7.08 -1.13,-1.13 -2.52,-2.01 -4.06,-2.55z"/>
 </g>
</svg>
