<?xml version="1.0" encoding="UTF-8"?>
<!DOCTYPE svg PUBLIC "-//W3C//DTD SVG 1.0//EN" "http://www.w3.org/TR/2001/REC-SVG-20010904/DTD/svg10.dtd">
<!-- Creator: CorelDRAW 2017 -->
<svg xmlns="http://www.w3.org/2000/svg" xml:space="preserve" width="7.8012mm" height="39.6352mm" version="1.0" shape-rendering="geometricPrecision" text-rendering="geometricPrecision" image-rendering="optimizeQuality" fill-rule="evenodd" clip-rule="evenodd"
viewBox="0 0 45.23 229.78"
 xmlns:xlink="http://www.w3.org/1999/xlink">
 <defs>
    <mask id="id0">
      <linearGradient id="id1" gradientUnits="userSpaceOnUse" x1="23.6" y1="10.16" x2="23.6" y2="0">
       <stop offset="0" stop-opacity="1" stop-color="white"/>
       <stop offset="1" stop-opacity="0" stop-color="white"/>
      </linearGradient>
     <rect fill="url(#id1)" x="21.63" y="-0" width="1.96" height="24.54"/>
    </mask>
    <mask id="id2">
      <linearGradient id="id3" gradientUnits="userSpaceOnUse" x1="23.6" y1="214.29" x2="23.6" y2="229.78">
       <stop offset="0" stop-opacity="1" stop-color="white"/>
       <stop offset="1" stop-opacity="0" stop-color="white"/>
      </linearGradient>
     <rect fill="url(#id3)" x="21.63" y="205.24" width="1.96" height="24.54"/>
    </mask>
 </defs>
 <g id="Layer_x0020_1">
  <metadata id="CorelCorpID_0Corel-Layer"/>
  <g id="_2361286991104">
   <polygon fill="#D9D9D9" fill-rule="nonzero" points="23.6,16.84 23.6,206.83 21.63,206.83 21.63,16.84 "/>
   <g>
    <path fill="white" fill-rule="nonzero" d="M22.63 31.81l-0.02 0c-0.34,0 -0.65,0.14 -0.87,0.36 -0.22,0.22 -0.36,0.53 -0.36,0.87 0,0.34 0.14,0.65 0.36,0.87 0.22,0.22 0.53,0.36 0.87,0.36l0.02 0 1.15 0 0 -0.76 -0.04 0 0.04 -0.1 0 -1.6 -1.15 0z"/>
    <path fill="#D9D9D9" fill-rule="nonzero" d="M22.61 29.85c0.34,0 0.67,0.05 0.98,0.16l0 2.29c-0.23,-0.31 -0.59,-0.49 -0.98,-0.49 -0.34,0 -0.65,0.14 -0.87,0.36 -0.22,0.22 -0.36,0.53 -0.36,0.87 0,0.34 0.14,0.65 0.36,0.87 0.22,0.22 0.53,0.36 0.87,0.36 0.34,0 0.65,-0.14 0.87,-0.36 0.04,-0.04 0.08,-0.08 0.11,-0.13l0 2.3c-0.31,0.1 -0.64,0.15 -0.98,0.15 -0.88,0 -1.67,-0.36 -2.25,-0.93 -0.58,-0.58 -0.94,-1.38 -0.94,-2.26 0,-0.88 0.36,-1.68 0.93,-2.26 0.58,-0.58 1.38,-0.93 2.26,-0.93z"/>
    <path fill="#D9D9D9" d="M-0 31.83l18.25 -0.42c-0.19,0.51 -0.3,1.06 -0.3,1.62 0,0.63 0.13,1.23 0.36,1.78 0.24,0.57 0.58,1.08 1.01,1.51l0.01 0.01c0.43,0.43 0.94,0.77 1.51,1.01 0.08,0.03 0.17,0.07 0.25,0.1l-5.28 15.55c-0.28,-6.07 -2.85,-11.54 -6.88,-15.56 -2.49,-2.49 -5.53,-4.42 -8.93,-5.6z"/>
   </g>
   <g>
    <path fill="white" fill-rule="nonzero" d="M22.6 69.12l0.02 0c0.34,0 0.65,0.14 0.87,0.36 0.22,0.22 0.36,0.53 0.36,0.87 0,0.34 -0.14,0.65 -0.36,0.87 -0.22,0.22 -0.53,0.36 -0.87,0.36l-0.02 0 -1.15 0 0 -0.76 0.04 0 -0.04 -0.1 0 -1.6 1.15 0z"/>
    <path fill="#D9D9D9" fill-rule="nonzero" d="M22.61 67.16c-0.34,0 -0.67,0.05 -0.98,0.16l0 2.29c0.23,-0.31 0.59,-0.49 0.98,-0.49 0.34,0 0.65,0.14 0.87,0.36 0.22,0.22 0.36,0.53 0.36,0.87 0,0.34 -0.14,0.65 -0.36,0.87 -0.22,0.22 -0.53,0.36 -0.87,0.36 -0.34,0 -0.65,-0.14 -0.87,-0.36 -0.04,-0.04 -0.08,-0.08 -0.11,-0.13l0 2.3c0.31,0.1 0.64,0.15 0.98,0.15 0.88,0 1.67,-0.36 2.25,-0.93 0.58,-0.58 0.94,-1.38 0.94,-2.26 0,-0.88 -0.36,-1.68 -0.93,-2.26 -0.58,-0.58 -1.38,-0.93 -2.26,-0.93z"/>
    <path fill="#D9D9D9" d="M45.23 69.14l-18.25 -0.42c0.19,0.51 0.3,1.06 0.3,1.62 0,0.63 -0.13,1.23 -0.36,1.78 -0.24,0.57 -0.58,1.08 -1.01,1.51l-0.01 0.01c-0.43,0.43 -0.94,0.77 -1.51,1.01 -0.08,0.03 -0.17,0.07 -0.25,0.1l5.28 15.55c0.28,-6.07 2.85,-11.54 6.88,-15.56 2.49,-2.49 5.53,-4.42 8.93,-5.6z"/>
   </g>
   <g>
    <path fill="white" fill-rule="nonzero" d="M22.63 106.43l-0.02 0c-0.34,0 -0.65,0.14 -0.87,0.36 -0.22,0.22 -0.36,0.53 -0.36,0.87 0,0.34 0.14,0.65 0.36,0.87 0.22,0.22 0.53,0.36 0.87,0.36l0.02 0 1.15 0 0 -0.76 -0.04 0 0.04 -0.1 0 -1.6 -1.15 0z"/>
    <path fill="#D9D9D9" fill-rule="nonzero" d="M22.61 104.47c0.34,0 0.67,0.05 0.98,0.16l0 2.29c-0.23,-0.31 -0.59,-0.49 -0.98,-0.49 -0.34,0 -0.65,0.14 -0.87,0.36 -0.22,0.22 -0.36,0.53 -0.36,0.87 0,0.34 0.14,0.65 0.36,0.87 0.22,0.22 0.53,0.36 0.87,0.36 0.34,0 0.65,-0.14 0.87,-0.36 0.04,-0.04 0.08,-0.08 0.11,-0.13l0 2.3c-0.31,0.1 -0.64,0.15 -0.98,0.15 -0.88,0 -1.67,-0.36 -2.25,-0.93 -0.58,-0.58 -0.94,-1.38 -0.94,-2.26 0,-0.88 0.36,-1.68 0.93,-2.26 0.58,-0.58 1.38,-0.93 2.26,-0.93z"/>
    <path fill="#D9D9D9" d="M-0 106.45l18.25 -0.42c-0.19,0.51 -0.3,1.06 -0.3,1.62 0,0.63 0.13,1.23 0.36,1.78 0.24,0.57 0.58,1.08 1.01,1.51l0.01 0.01c0.43,0.43 0.94,0.77 1.51,1.01 0.08,0.03 0.17,0.07 0.25,0.1l-5.28 15.55c-0.28,-6.07 -2.85,-11.54 -6.88,-15.56 -2.49,-2.49 -5.53,-4.42 -8.93,-5.6z"/>
   </g>
   <g>
    <path fill="white" fill-rule="nonzero" d="M22.6 143.74l0.02 0c0.34,0 0.65,0.14 0.87,0.36 0.22,0.22 0.36,0.53 0.36,0.87 0,0.34 -0.14,0.65 -0.36,0.87 -0.22,0.22 -0.53,0.36 -0.87,0.36l-0.02 0 -1.15 0 0 -0.76 0.04 0 -0.04 -0.1 0 -1.6 1.15 0z"/>
    <path fill="#D9D9D9" fill-rule="nonzero" d="M22.61 141.78c-0.34,0 -0.67,0.05 -0.98,0.16l0 2.29c0.23,-0.31 0.59,-0.49 0.98,-0.49 0.34,0 0.65,0.14 0.87,0.36 0.22,0.22 0.36,0.53 0.36,0.87 0,0.34 -0.14,0.65 -0.36,0.87 -0.22,0.22 -0.53,0.36 -0.87,0.36 -0.34,0 -0.65,-0.14 -0.87,-0.36 -0.04,-0.04 -0.08,-0.08 -0.11,-0.13l0 2.3c0.31,0.1 0.64,0.15 0.98,0.15 0.88,0 1.67,-0.36 2.25,-0.93 0.58,-0.58 0.94,-1.38 0.94,-2.26 0,-0.88 -0.36,-1.68 -0.93,-2.26 -0.58,-0.58 -1.38,-0.93 -2.26,-0.93z"/>
    <path fill="#D9D9D9" d="M45.23 143.76l-18.25 -0.42c0.19,0.51 0.3,1.06 0.3,1.62 0,0.63 -0.13,1.23 -0.36,1.78 -0.24,0.57 -0.58,1.08 -1.01,1.51l-0.01 0.01c-0.43,0.43 -0.94,0.77 -1.51,1.01 -0.08,0.03 -0.17,0.07 -0.25,0.1l5.28 15.55c0.28,-6.07 2.85,-11.54 6.88,-15.56 2.49,-2.49 5.53,-4.42 8.93,-5.6z"/>
   </g>
   <g>
    <path fill="white" fill-rule="nonzero" d="M22.63 181.05l-0.02 0c-0.34,0 -0.65,0.14 -0.87,0.36 -0.22,0.22 -0.36,0.53 -0.36,0.87 0,0.34 0.14,0.65 0.36,0.87 0.22,0.22 0.53,0.36 0.87,0.36l0.02 0 1.15 0 0 -0.76 -0.04 0 0.04 -0.1 0 -1.6 -1.15 0z"/>
    <path fill="#D9D9D9" fill-rule="nonzero" d="M22.61 179.09c0.34,0 0.67,0.05 0.98,0.16l0 2.29c-0.23,-0.31 -0.59,-0.49 -0.98,-0.49 -0.34,0 -0.65,0.14 -0.87,0.36 -0.22,0.22 -0.36,0.53 -0.36,0.87 0,0.34 0.14,0.65 0.36,0.87 0.22,0.22 0.53,0.36 0.87,0.36 0.34,0 0.65,-0.14 0.87,-0.36 0.04,-0.04 0.08,-0.08 0.11,-0.13l0 2.3c-0.31,0.1 -0.64,0.15 -0.98,0.15 -0.88,0 -1.67,-0.36 -2.25,-0.93 -0.58,-0.58 -0.94,-1.38 -0.94,-2.26 0,-0.88 0.36,-1.68 0.93,-2.26 0.58,-0.58 1.38,-0.93 2.26,-0.93z"/>
    <path fill="#D9D9D9" d="M-0 181.07l18.25 -0.42c-0.19,0.51 -0.3,1.06 -0.3,1.62 0,0.63 0.13,1.23 0.36,1.78 0.24,0.57 0.58,1.08 1.01,1.51l0.01 0.01c0.43,0.43 0.94,0.77 1.51,1.01 0.08,0.03 0.17,0.07 0.25,0.1l-5.28 15.55c-0.28,-6.07 -2.85,-11.54 -6.88,-15.56 -2.49,-2.49 -5.53,-4.42 -8.93,-5.6z"/>
   </g>
   <polygon fill="#D9D9D9" fill-rule="nonzero" mask="url(#id0)" points="23.6,-0 23.6,24.54 21.63,24.54 21.63,-0 "/>
   <polygon fill="#D9D9D9" fill-rule="nonzero" mask="url(#id2)" points="23.6,229.78 23.6,205.24 21.63,205.24 21.63,229.78 "/>
  </g>
 </g>
</svg>
