<?xml version="1.0" encoding="UTF-8"?>
<!DOCTYPE svg PUBLIC "-//W3C//DTD SVG 1.0//EN" "http://www.w3.org/TR/2001/REC-SVG-20010904/DTD/svg10.dtd">
<!-- Creator: CorelDRAW 2017 -->
<svg xmlns="http://www.w3.org/2000/svg" xml:space="preserve" width="10.5533mm" height="2.1914mm" version="1.0" shape-rendering="geometricPrecision" text-rendering="geometricPrecision" image-rendering="optimizeQuality" fill-rule="evenodd" clip-rule="evenodd"
viewBox="0 0 658.89 136.82"
 xmlns:xlink="http://www.w3.org/1999/xlink">
 <g id="Layer_x0020_1">
  <metadata id="CorelCorpID_0Corel-Layer"/>
  <g id="_2831557652192">
   <path fill="black" d="M221.14 118.46c-7.87,0 -13.92,-1.97 -18.12,-5.91 -4.21,-3.94 -6.32,-9.45 -6.32,-16.54 0,-7.2 2.12,-14.68 6.36,-22.44l11.08 4.36c-2.18,5.27 -3.27,9.69 -3.27,13.26 0,3.7 1.02,6.48 3.08,8.36 2.06,1.88 5.3,2.82 9.72,2.82 4.24,0 7.67,-0.86 10.27,-2.59 2.6,-1.72 3.91,-4.04 3.91,-6.95 0,-4.96 -1.52,-12.29 -4.55,-21.98l14.08 -4.18c2,7.45 3.18,12.29 3.55,14.53 1.52,0.67 3.24,1.01 5.18,1.01 5.03,0 7.54,-2.22 7.54,-6.64l0 -7.54 12.63 -0.82 0 10.27c0,3.45 2,5.18 5.99,5.18 1.94,0 4.09,-0.33 6.46,-1l10.17 12.63c-5.63,3.09 -11.26,4.63 -16.89,4.63 -5.39,0 -9.54,-1.3 -12.45,-3.91 -2.9,2.85 -7.54,4.27 -13.9,4.27 -1.21,0 -2.85,-0.12 -4.91,-0.36 -1.52,6.24 -4.8,11.06 -9.86,14.45 -5.06,3.39 -11.64,5.09 -19.76,5.09z"/>
   <path fill="black" d="M320.38 85.21c0,4.42 -0.42,8.48 -1.27,12.17 -0.85,3.69 -2.2,7.06 -4.05,10.08 -1.85,3.03 -4.39,5.39 -7.63,7.09 -3.24,1.7 -7.07,2.54 -11.49,2.54 -2.78,0 -5.88,-0.36 -9.27,-1.09l1.09 -13.27c1.45,0.24 2.97,0.36 4.55,0.36 5.27,0 9.04,-1.57 11.31,-4.72 2.27,-3.15 3.4,-7.03 3.4,-11.63 0,-3.63 -1.33,-10.05 -4,-19.26l14.35 -4.09c2,7.45 3,14.72 3,21.81z"/>
   <polygon fill="black" points="338.88,98.83 324.7,98.83 324.7,34.15 338.88,32.97 "/>
   <path fill="black" d="M355.6 99.75c-4.42,0 -8.45,-0.24 -12.09,-0.72l0 -15.63c5.21,0.36 9.78,0.54 13.72,0.54 3.93,0 7.72,-0.18 11.36,-0.54 -2.24,-7.51 -6.97,-14.54 -14.17,-21.08l10.26 -10.91c10.72,9.39 16.08,20.87 16.08,34.44 0,2.97 -0.31,6.21 -0.91,9.72 -5.03,2.78 -13.11,4.18 -24.26,4.18z"/>
   <path fill="black" d="M398.49 95.84c-1.21,6.42 -3.75,11.57 -7.63,15.45 -3.88,3.88 -9.18,5.81 -15.9,5.81 -2.78,0 -5.88,-0.36 -9.27,-1.09l1.09 -13.27c1.45,0.24 2.97,0.36 4.54,0.36 5.45,0 9.42,-1.59 11.91,-4.77 2.48,-3.18 3.72,-7.04 3.72,-11.58 0,-4.3 -1.24,-10.72 -3.72,-19.26l13.17 -4.09c0.12,0.55 0.37,1.59 0.77,3.13 0.39,1.55 0.69,2.62 0.87,3.23 0.18,0.61 0.44,1.49 0.77,2.63 0.34,1.15 0.62,2.04 0.87,2.68 0.24,0.64 0.54,1.35 0.91,2.14 0.36,0.79 0.76,1.49 1.18,2.09 1.24,1.76 3.32,2.83 6.25,3.21 0.22,-0.02 43.01,-0.04 43.23,-0.06 1.75,-0.15 3.33,-0.38 4.73,-0.7 -0.24,-6.84 -1.12,-13.48 -2.63,-19.9l13.17 -2.82c1.21,5.57 1.82,11.6 1.82,18.08 0,7.09 -0.72,12.81 -2.18,17.17 -3.18,1.72 -7.25,2.84 -10.81,3.56l-53.15 -0.13c-1.68,-0.01 -2.91,-1.29 -3.69,-1.89z"/>
   <path fill="black" d="M535.11 65.31c2.3,8.3 3.64,14.29 4,17.99 0.18,1.88 0.27,3.81 0.27,5.81 0,8.85 -2.62,15.72 -7.85,20.63 -5.24,4.91 -12.8,7.35 -22.67,7.35 -7.87,0 -13.92,-1.97 -18.12,-5.9 -4.21,-3.94 -6.32,-9.45 -6.32,-16.54 0,-7.2 2.12,-14.68 6.36,-22.44l11.08 4.36c-2.18,5.27 -3.27,9.69 -3.27,13.27 0,3.7 1.02,6.48 3.08,8.36 2.06,1.87 5.3,2.82 9.72,2.82 4.24,0 7.67,-0.87 10.27,-2.59 2.6,-1.72 3.9,-4.05 3.9,-6.95 0,-4.97 -1.51,-12.3 -4.54,-21.99l14.08 -4.18z"/>
   <polygon fill="black" points="507.05,50.42 520.51,62.02 509.54,74.48 496.08,63.38 "/>
   <path fill="black" d="M593.09 82.66l0.73 0c3.93,0 7.24,-0.3 9.9,-0.91 -0.24,-6.84 -1.12,-13.48 -2.63,-19.9l13.17 -2.82c1.21,5.57 1.82,11.6 1.82,18.08 0,7.09 -0.72,12.81 -2.18,17.17 -2.24,1.21 -5.27,2.27 -9.09,3.18 -3.81,0.91 -7.57,1.36 -11.26,1.36l-0.46 0 -31.72 0c-6.66,0 -11.41,-1.86 -14.22,-5.58 -2.82,-3.73 -4.22,-9.07 -4.22,-16.04l0 -43.06 14.17 -1.19 0 41.16c0,5.69 2.54,8.54 7.63,8.54l28.36 0z"/>
   <polygon fill="black" points="635.84,98.83 621.67,98.83 621.67,34.15 635.84,32.97 "/>
   <path fill="black" d="M658.89 90.47c0,4.42 -0.42,8.48 -1.27,12.17 -0.85,3.7 -2.19,7.06 -4.04,10.09 -1.85,3.03 -4.4,5.39 -7.64,7.09 -3.24,1.69 -7.07,2.54 -11.49,2.54 -2.79,0 -5.88,-0.36 -9.27,-1.09l1.09 -13.26c1.45,0.24 2.97,0.36 4.54,0.36 5.27,0 9.04,-1.57 11.31,-4.73 2.27,-3.15 3.41,-7.02 3.41,-11.63 0,-3.63 -1.34,-10.06 -4,-19.26l14.35 -4.09c2,7.45 3,14.72 3,21.8z"/>
   <polygon fill="black" points="408.45,101.53 421.91,113.13 410.94,125.59 397.48,114.5 "/>
   <polygon fill="black" points="425.87,101.53 439.33,113.13 428.36,125.59 414.9,114.5 "/>
   <polygon fill="black" points="443.27,101.53 456.74,113.13 445.77,125.59 432.3,114.5 "/>
   <polygon fill="black" points="238.74,38.11 252.2,49.7 241.23,62.17 227.77,51.08 "/>
   <polygon fill="black" points="256.14,38.11 269.61,49.7 258.64,62.17 245.17,51.08 "/>
   <polygon fill="black" points="273.56,38.11 287.02,49.7 276.05,62.17 262.59,51.08 "/>
   <polygon fill="black" points="303.11,38.11 316.57,49.7 305.6,62.17 292.14,51.08 "/>
   <polygon fill="black" points="569.55,101.53 579.62,110.2 586.96,101.53 600.43,113.13 589.46,125.59 579.36,117.28 572.04,125.59 558.58,114.5 "/>
   <g>
    <path fill="black" d="M118.98 114.7c-1.92,5.63 -4.79,10.36 -8.62,14.18 -5.29,5.29 -12.54,7.94 -21.72,7.94 -3.81,0 -8.03,-0.5 -12.66,-1.49l1.49 -18.12c1.99,0.33 4.05,0.49 6.21,0.49 7.45,0 12.87,-2.17 16.26,-6.51 3.39,-4.35 5.09,-9.62 5.09,-15.83 0,-3.76 -0.69,-8.72 -2.09,-14.85l0 0c-0.25,-1.1 -0.52,-2.24 -0.82,-3.42 -0.38,-4.03 1.04,-8.58 5.19,-10.33l1.62 -0.5 0 0 0 -0.01 9 -2.79c0.17,0.75 0.52,2.17 1.06,4.28 0.54,2.11 0.93,3.58 1.17,4.41l0.06 0.2c3.9,17.89 2.18,30.86 -1.25,42.34zm68.32 -107.91l0 20.6c-20.56,4.57 -39.46,12.54 -55.24,26.93l0 -24.82c18.6,-11.52 37,-18.82 55.24,-22.71zm-60.64 99.71c-0.6,-0.12 -1.18,-0.26 -1.75,-0.42 1.31,-6.82 1.82,-14.34 0.86,-23.14 2.05,1.27 4.79,1.97 8.22,2.1 10.61,-0.14 19.36,-0.91 26.25,-2.34 -2.15,-4.88 -5.65,-9.25 -10.49,-13.1 -4.84,-3.85 -10.74,-6.92 -17.69,-9.25 5.89,-5.37 12.3,-9.84 18.99,-13.58l0.13 -0.07c18.86,8.6 28.3,22.42 28.3,41.45 0,3.98 -0.33,7.65 -0.99,11.05 -14.45,8.04 -35.48,8.08 -51.83,7.29z"/>
    <path fill="black" d="M96.34 103.82l-19.37 0 0 -86.18 0 -4.5c0.45,-6.79 3.11,-10.91 8.11,-12.19l4.86 -0.41 6.4 -0.53 0 103.82z"/>
    <path fill="black" d="M59.92 14.76l4.89 -0.41 0 0 6.06 -0.51c0.83,45.43 1.24,70.46 1.24,75.09 0,11.42 -3.48,20.29 -10.43,26.62 -5.55,5.06 -12.96,8.09 -22.21,9.11 4.68,-2.33 8.14,-6.17 10.43,-11.44 5.82,-13.37 2.27,-69.78 2.01,-87.16 0.62,-6.25 3.25,-10.06 8,-11.29zm-28.23 110.28c-10.12,-0.07 -17.91,-2.68 -23.38,-7.82 -5.54,-5.21 -8.32,-12.62 -8.32,-22.21 0,-7.09 1.67,-14.8 5,-23.13 2.84,-4.06 6.91,-5.97 12.82,-4.7l0 0 6.63 2.51c-2.98,8.02 -4.46,14.68 -4.46,19.98 0,4.72 1.24,8.13 3.72,10.24 2.48,2.11 6.46,3.17 11.92,3.17 4.71,0 8.55,-0.89 11.53,-2.67 -0.5,4.81 -1.5,9 -3.03,12.52 -2.37,5.44 -6.01,9.32 -11.02,11.51l-1.4 0.61z"/>
    <path fill="black" d="M103.15 46.86l3.2 -3.2 0.12 -0.11c2.82,2.71 7.31,2.71 10.14,0l0.11 0.11 3.2 3.2c2.86,2.86 2.86,7.52 0,10.38l-3.2 3.2c-2.85,2.85 -7.51,2.85 -10.37,0l-3.2 -3.2c-2.85,-2.86 -2.85,-7.52 0,-10.38z"/>
    <path fill="black" d="M103.15 27.4l3.2 -3.2 0.12 -0.11c2.82,2.7 7.31,2.7 10.14,0l0.11 0.11 3.2 3.2c2.86,2.85 2.86,7.52 0,10.37l-3.2 3.2c-2.85,2.85 -7.51,2.85 -10.37,0l-3.2 -3.2c-2.85,-2.85 -2.85,-7.52 0,-10.37z"/>
    <path fill="black" d="M103.15 7.94l3.2 -3.2c2.86,-2.85 7.52,-2.85 10.37,0l3.2 3.2c2.86,2.86 2.86,7.52 0,10.37l-3.2 3.2c-2.85,2.86 -7.51,2.86 -10.37,0l-3.2 -3.2c-2.85,-2.85 -2.85,-7.51 0,-10.37z"/>
   </g>
  </g>
 </g>
</svg>
