<?xml version="1.0" encoding="UTF-8"?>
<!DOCTYPE svg PUBLIC "-//W3C//DTD SVG 1.0//EN" "http://www.w3.org/TR/2001/REC-SVG-20010904/DTD/svg10.dtd">
<!-- Creator: CorelDRAW 2017 -->
<svg xmlns="http://www.w3.org/2000/svg" xml:space="preserve" width="10.5533mm" height="2.1914mm" version="1.0" shape-rendering="geometricPrecision" text-rendering="geometricPrecision" image-rendering="optimizeQuality" fill-rule="evenodd" clip-rule="evenodd"
viewBox="0 0 76.27 15.84"
 xmlns:xlink="http://www.w3.org/1999/xlink">
 <g id="Layer_x0020_1">
  <metadata id="CorelCorpID_0Corel-Layer"/>
  <g id="_2373595877120">
   <path fill="white" d="M25.6 13.71c-0.91,0 -1.61,-0.23 -2.1,-0.68 -0.49,-0.46 -0.73,-1.09 -0.73,-1.91 0,-0.83 0.25,-1.7 0.74,-2.6l1.28 0.51c-0.25,0.61 -0.38,1.12 -0.38,1.54 0,0.43 0.12,0.75 0.36,0.97 0.24,0.22 0.61,0.33 1.13,0.33 0.49,0 0.89,-0.1 1.19,-0.3 0.3,-0.2 0.45,-0.47 0.45,-0.8 0,-0.57 -0.18,-1.42 -0.53,-2.54l1.63 -0.48c0.23,0.86 0.37,1.42 0.41,1.68 0.18,0.08 0.38,0.12 0.6,0.12 0.58,0 0.87,-0.26 0.87,-0.77l0 -0.87 1.46 -0.09 0 1.19c0,0.4 0.23,0.6 0.69,0.6 0.22,0 0.47,-0.04 0.75,-0.12l1.18 1.46c-0.65,0.36 -1.3,0.54 -1.96,0.54 -0.62,0 -1.1,-0.15 -1.44,-0.45 -0.34,0.33 -0.87,0.49 -1.61,0.49 -0.14,0 -0.33,-0.01 -0.57,-0.04 -0.18,0.72 -0.56,1.28 -1.14,1.67 -0.59,0.39 -1.35,0.59 -2.29,0.59z"/>
   <path fill="white" d="M37.09 9.86c0,0.51 -0.05,0.98 -0.15,1.41 -0.1,0.43 -0.25,0.82 -0.47,1.17 -0.21,0.35 -0.51,0.62 -0.88,0.82 -0.38,0.2 -0.82,0.29 -1.33,0.29 -0.32,0 -0.68,-0.04 -1.07,-0.13l0.13 -1.54c0.17,0.03 0.34,0.04 0.53,0.04 0.61,0 1.05,-0.18 1.31,-0.55 0.26,-0.36 0.39,-0.81 0.39,-1.35 0,-0.42 -0.15,-1.16 -0.46,-2.23l1.66 -0.47c0.23,0.86 0.35,1.7 0.35,2.52z"/>
   <polygon fill="white" points="39.23,11.44 37.59,11.44 37.59,3.95 39.23,3.82 "/>
   <path fill="white" d="M41.16 11.55c-0.51,0 -0.98,-0.03 -1.4,-0.08l0 -1.81c0.6,0.04 1.13,0.06 1.59,0.06 0.46,0 0.89,-0.02 1.31,-0.06 -0.26,-0.87 -0.81,-1.68 -1.64,-2.44l1.19 -1.26c1.24,1.09 1.86,2.42 1.86,3.99 0,0.34 -0.04,0.72 -0.11,1.13 -0.58,0.32 -1.52,0.48 -2.81,0.48z"/>
   <path fill="white" d="M46.13 11.09c-0.14,0.74 -0.43,1.34 -0.88,1.79 -0.45,0.45 -1.06,0.67 -1.84,0.67 -0.32,0 -0.68,-0.04 -1.07,-0.13l0.13 -1.54c0.17,0.03 0.34,0.04 0.53,0.04 0.63,0 1.09,-0.18 1.38,-0.55 0.29,-0.37 0.43,-0.81 0.43,-1.34 0,-0.5 -0.14,-1.24 -0.43,-2.23l1.52 -0.47c0.01,0.06 0.04,0.18 0.09,0.36 0.05,0.18 0.08,0.3 0.1,0.37 0.02,0.07 0.05,0.17 0.09,0.3 0.04,0.13 0.07,0.24 0.1,0.31 0.03,0.07 0.06,0.16 0.1,0.25 0.04,0.09 0.09,0.17 0.14,0.24 0.14,0.2 0.38,0.33 0.72,0.37 0.03,-0 4.98,-0 5,-0.01 0.2,-0.02 0.39,-0.04 0.55,-0.08 -0.03,-0.79 -0.13,-1.56 -0.3,-2.3l1.52 -0.33c0.14,0.64 0.21,1.34 0.21,2.09 0,0.82 -0.08,1.48 -0.25,1.99 -0.37,0.2 -0.84,0.33 -1.25,0.41l-6.15 -0.02c-0.19,-0 -0.34,-0.15 -0.43,-0.22z"/>
   <path fill="white" d="M61.95 7.56c0.27,0.96 0.42,1.65 0.46,2.08 0.02,0.22 0.03,0.44 0.03,0.67 0,1.02 -0.3,1.82 -0.91,2.39 -0.61,0.57 -1.48,0.85 -2.62,0.85 -0.91,0 -1.61,-0.23 -2.1,-0.68 -0.49,-0.46 -0.73,-1.09 -0.73,-1.91 0,-0.83 0.25,-1.7 0.74,-2.6l1.28 0.5c-0.25,0.61 -0.38,1.12 -0.38,1.54 0,0.43 0.12,0.75 0.36,0.97 0.24,0.22 0.61,0.33 1.13,0.33 0.49,0 0.89,-0.1 1.19,-0.3 0.3,-0.2 0.45,-0.47 0.45,-0.8 0,-0.58 -0.17,-1.42 -0.53,-2.55l1.63 -0.48z"/>
   <polygon fill="white" points="58.7,5.84 60.25,7.18 58.98,8.62 57.43,7.34 "/>
   <path fill="white" d="M68.66 9.57l0.08 0c0.46,0 0.84,-0.03 1.15,-0.1 -0.03,-0.79 -0.13,-1.56 -0.3,-2.3l1.52 -0.33c0.14,0.64 0.21,1.34 0.21,2.09 0,0.82 -0.08,1.48 -0.25,1.99 -0.26,0.14 -0.61,0.26 -1.05,0.37 -0.44,0.11 -0.88,0.16 -1.3,0.16l-0.05 0 -3.67 0c-0.77,0 -1.32,-0.22 -1.65,-0.65 -0.33,-0.43 -0.49,-1.05 -0.49,-1.86l0 -4.98 1.64 -0.14 0 4.76c0,0.66 0.29,0.99 0.88,0.99l3.28 0z"/>
   <polygon fill="white" points="73.61,11.44 71.96,11.44 71.96,3.95 73.61,3.82 "/>
   <path fill="white" d="M76.27 10.47c0,0.51 -0.05,0.98 -0.15,1.41 -0.1,0.43 -0.25,0.82 -0.47,1.17 -0.21,0.35 -0.51,0.62 -0.88,0.82 -0.38,0.2 -0.82,0.29 -1.33,0.29 -0.32,0 -0.68,-0.04 -1.07,-0.13l0.13 -1.54c0.17,0.03 0.34,0.04 0.53,0.04 0.61,0 1.05,-0.18 1.31,-0.55 0.26,-0.36 0.39,-0.81 0.39,-1.35 0,-0.42 -0.15,-1.16 -0.46,-2.23l1.66 -0.47c0.23,0.86 0.35,1.7 0.35,2.52z"/>
   <polygon fill="white" points="47.28,11.75 48.84,13.1 47.57,14.54 46.01,13.25 "/>
   <polygon fill="white" points="49.3,11.75 50.86,13.1 49.59,14.54 48.03,13.25 "/>
   <polygon fill="white" points="51.31,11.75 52.87,13.1 51.6,14.54 50.04,13.25 "/>
   <polygon fill="white" points="27.64,4.41 29.19,5.75 27.92,7.2 26.37,5.91 "/>
   <polygon fill="white" points="29.65,4.41 31.21,5.75 29.94,7.2 28.38,5.91 "/>
   <polygon fill="white" points="31.67,4.41 33.23,5.75 31.96,7.2 30.4,5.91 "/>
   <polygon fill="white" points="35.09,4.41 36.65,5.75 35.38,7.2 33.82,5.91 "/>
   <polygon fill="white" points="65.93,11.75 67.1,12.76 67.95,11.75 69.51,13.1 68.24,14.54 67.07,13.58 66.22,14.54 64.66,13.25 "/>
   <g>
    <path fill="white" d="M13.77 13.28c-0.22,0.65 -0.56,1.2 -1,1.64 -0.61,0.61 -1.45,0.92 -2.51,0.92 -0.44,0 -0.93,-0.06 -1.47,-0.17l0.17 -2.1c0.23,0.04 0.47,0.06 0.72,0.06 0.86,0 1.49,-0.25 1.88,-0.75 0.39,-0.5 0.59,-1.11 0.59,-1.83 0,-0.44 -0.08,-1.01 -0.24,-1.72l0 0c-0.03,-0.13 -0.06,-0.26 -0.09,-0.4 -0.04,-0.47 0.12,-0.99 0.6,-1.2l0.19 -0.06 0 0 0 -0 1.04 -0.32c0.02,0.09 0.06,0.25 0.12,0.5 0.06,0.24 0.11,0.41 0.14,0.51l0.01 0.02c0.45,2.07 0.25,3.57 -0.14,4.9zm7.91 -12.49l0 2.39c-2.38,0.53 -4.57,1.45 -6.39,3.12l0 -2.87c2.15,-1.33 4.28,-2.18 6.39,-2.63zm-7.02 11.54c-0.07,-0.01 -0.14,-0.03 -0.2,-0.05 0.15,-0.79 0.21,-1.66 0.1,-2.68 0.24,0.15 0.55,0.23 0.95,0.24 1.23,-0.02 2.24,-0.11 3.04,-0.27 -0.25,-0.57 -0.65,-1.07 -1.21,-1.52 -0.56,-0.45 -1.24,-0.8 -2.05,-1.07 0.68,-0.62 1.42,-1.14 2.2,-1.57l0.02 -0.01c2.18,1 3.28,2.6 3.28,4.8 0,0.46 -0.04,0.89 -0.11,1.28 -1.67,0.93 -4.11,0.94 -6,0.84z"/>
    <path fill="white" d="M11.15 12.02l-2.24 0 0 -9.98 0 -0.52c0.05,-0.79 0.36,-1.26 0.94,-1.41l0.56 -0.05 0.74 -0.06 0 12.02z"/>
    <path fill="white" d="M6.94 1.71l0.57 -0.05 0 0 0.7 -0.06c0.1,5.26 0.14,8.16 0.14,8.69 0,1.32 -0.4,2.35 -1.21,3.08 -0.64,0.59 -1.5,0.94 -2.57,1.05 0.54,-0.27 0.94,-0.71 1.21,-1.32 0.67,-1.55 0.26,-8.08 0.23,-10.09 0.07,-0.72 0.38,-1.16 0.93,-1.31zm-3.27 12.77c-1.17,-0.01 -2.07,-0.31 -2.71,-0.9 -0.64,-0.6 -0.96,-1.46 -0.96,-2.57 0,-0.82 0.19,-1.71 0.58,-2.68 0.33,-0.47 0.8,-0.69 1.48,-0.54l0 0 0.77 0.29c-0.34,0.93 -0.52,1.7 -0.52,2.31 0,0.55 0.14,0.94 0.43,1.19 0.29,0.24 0.75,0.37 1.38,0.37 0.55,0 0.99,-0.1 1.33,-0.31 -0.06,0.56 -0.17,1.04 -0.35,1.45 -0.27,0.63 -0.7,1.08 -1.28,1.33l-0.16 0.07z"/>
    <path fill="white" d="M11.94 5.42l0.37 -0.37 0.01 -0.01c0.33,0.31 0.85,0.31 1.17,0l0.01 0.01 0.37 0.37c0.33,0.33 0.33,0.87 0,1.2l-0.37 0.37c-0.33,0.33 -0.87,0.33 -1.2,0l-0.37 -0.37c-0.33,-0.33 -0.33,-0.87 0,-1.2z"/>
    <path fill="white" d="M11.94 3.17l0.37 -0.37 0.01 -0.01c0.33,0.31 0.85,0.31 1.17,0l0.01 0.01 0.37 0.37c0.33,0.33 0.33,0.87 0,1.2l-0.37 0.37c-0.33,0.33 -0.87,0.33 -1.2,0l-0.37 -0.37c-0.33,-0.33 -0.33,-0.87 0,-1.2z"/>
    <path fill="white" d="M11.94 0.92l0.37 -0.37c0.33,-0.33 0.87,-0.33 1.2,0l0.37 0.37c0.33,0.33 0.33,0.87 0,1.2l-0.37 0.37c-0.33,0.33 -0.87,0.33 -1.2,0l-0.37 -0.37c-0.33,-0.33 -0.33,-0.87 0,-1.2z"/>
   </g>
  </g>
 </g>
</svg>
