<?xml version="1.0" encoding="UTF-8"?>
<!DOCTYPE svg PUBLIC "-//W3C//DTD SVG 1.0//EN" "http://www.w3.org/TR/2001/REC-SVG-20010904/DTD/svg10.dtd">
<!-- Creator: CorelDRAW 2017 -->
<svg xmlns="http://www.w3.org/2000/svg" xml:space="preserve" width="5.3656mm" height="6mm" version="1.0" shape-rendering="geometricPrecision" text-rendering="geometricPrecision" image-rendering="optimizeQuality" fill-rule="evenodd" clip-rule="evenodd"
viewBox="0 0 92.11 103"
 xmlns:xlink="http://www.w3.org/1999/xlink">
 <g id="Layer_x0020_1">
  <metadata id="CorelCorpID_0Corel-Layer"/>
  <path fill="white" fill-rule="nonzero" d="M40.16 0c11.09,0 21.13,4.5 28.39,11.76 7.27,7.27 11.76,17.31 11.76,28.39 0,10.17 -3.79,19.46 -10.02,26.54l21.82 27.28 -11.3 9.03 -21.88 -27.35c-5.61,2.97 -12,4.66 -18.78,4.66 -11.08,0 -21.13,-4.5 -28.39,-11.76 -7.27,-7.27 -11.76,-17.31 -11.76,-28.39 0,-11.08 4.5,-21.13 11.76,-28.39 7.27,-7.27 17.31,-11.76 28.39,-11.76zm20.17 19.98c-5.16,-5.16 -12.29,-8.35 -20.17,-8.35 -7.88,0 -15.02,3.19 -20.17,8.35 -5.16,5.16 -8.35,12.29 -8.35,20.17 0,7.88 3.19,15.01 8.35,20.17 5.16,5.16 12.29,8.35 20.17,8.35 7.88,0 15.01,-3.19 20.17,-8.35 5.16,-5.16 8.35,-12.29 8.35,-20.17 0,-7.88 -3.19,-15.02 -8.35,-20.17z"/>
 </g>
</svg>
