<?xml version="1.0" encoding="UTF-8"?>
<!DOCTYPE svg PUBLIC "-//W3C//DTD SVG 1.0//EN" "http://www.w3.org/TR/2001/REC-SVG-20010904/DTD/svg10.dtd">
<!-- Creator: CorelDRAW 2017 -->
<svg xmlns="http://www.w3.org/2000/svg" xml:space="preserve" width="41.6719mm" height="22.8335mm" version="1.0" shape-rendering="geometricPrecision" text-rendering="geometricPrecision" image-rendering="optimizeQuality" fill-rule="evenodd" clip-rule="evenodd"
viewBox="0 0 1849.69 1013.51"
 xmlns:xlink="http://www.w3.org/1999/xlink">
 <g id="Layer_x0020_1">
  <metadata id="CorelCorpID_0Corel-Layer"/>
  <path fill="#F39517" d="M1789.56 0l-1729.44 0c-33.06,0 -60.12,27.07 -60.12,60.13l0 885.26c846.86,-662.62 1440.81,326.44 1849.69,0l0 -885.26c0,-33.07 -27.07,-60.13 -60.13,-60.13z"/>
  <path fill="#0DA39B" d="M1789.56 0l-1729.44 0c-33.06,0 -60.12,27.07 -60.12,60.13l0 885.26c846.86,-662.62 1440.81,326.44 1849.69,0l0 -885.26c0,-33.07 -27.07,-60.13 -60.13,-60.13z"/>
  <path fill="#09897E" d="M-0 890.49l0 54.89c321.88,-251.86 607.2,-265.01 859.73,-202.56 -247.27,-75.37 -530.22,-79.48 -859.73,147.67z"/>
  <path fill="#09897E" d="M1132.88 837.48c285.7,120.7 522.23,263.25 716.8,107.9l0 -150.53c-88.88,-70.71 -206.25,-113.74 -334.95,-113.74 -152.85,0 -289.73,60.67 -381.86,156.37z"/>
 </g>
</svg>
