<?xml version="1.0" encoding="UTF-8"?>
<!DOCTYPE svg PUBLIC "-//W3C//DTD SVG 1.0//EN" "http://www.w3.org/TR/2001/REC-SVG-20010904/DTD/svg10.dtd">
<!-- Creator: CorelDRAW 2017 -->
<svg xmlns="http://www.w3.org/2000/svg" xml:space="preserve" width="19.3612mm" height="9.6912mm" version="1.0" shape-rendering="geometricPrecision" text-rendering="geometricPrecision" image-rendering="optimizeQuality" fill-rule="evenodd" clip-rule="evenodd"
viewBox="0 0 324.02 162.19"
 xmlns:xlink="http://www.w3.org/1999/xlink">
 <g id="Layer_x0020_1">
  <metadata id="CorelCorpID_0Corel-Layer"/>
  <g id="_2373608819568">
   <path fill="#553180" fill-rule="nonzero" d="M322.48 42.22l-120.08 0c-1.85,0 -2.13,-2.67 -0.31,-3.04 3.85,-0.79 8.15,-1.67 12.48,-2.55 2.25,-5.87 7.92,-10.03 14.57,-10.03 1.27,0 2.5,0.17 3.69,0.46 2.6,-5.01 7.83,-8.44 13.86,-8.44 1.24,0 2.45,0.16 3.6,0.44l-0.02 -0.44c0,-8.63 6.99,-15.62 15.62,-15.62 7.4,0 13.59,5.15 15.2,12.07 1.25,-0.43 2.59,-0.68 3.99,-0.68 6.74,0 12.21,5.47 12.21,12.21l-0 0.1c5.68,0.62 10.43,4.28 12.61,9.32l12.94 3.17c1.77,0.43 1.45,3.03 -0.36,3.03z"/>
   <path fill="#553180" fill-rule="nonzero" d="M59.49 158.5l-43.99 0c-0.83,0 -1.5,-0.67 -1.5,-1.5 0,-0.83 0.67,-1.5 1.5,-1.5l43.99 0c0.83,0 1.5,0.67 1.5,1.5 0,0.83 -0.66,1.5 -1.5,1.5zm217.92 -111.66l-39.7 0c-0.83,0 -1.5,-0.67 -1.5,-1.5 0,-0.83 0.67,-1.5 1.5,-1.5l39.7 0c0.83,0 1.5,0.67 1.5,1.5 0,0.83 -0.67,1.5 -1.5,1.5zm18.77 23.17l-24.79 0c-0.83,0 -1.5,-0.67 -1.5,-1.5 0,-0.83 0.67,-1.5 1.5,-1.5l24.79 0c0.83,0 1.5,0.67 1.5,1.5 0,0.83 -0.67,1.5 -1.5,1.5zm-7.9 48.55l-22.67 0c-0.83,0 -1.5,-0.67 -1.5,-1.5 0,-0.83 0.67,-1.5 1.5,-1.5l22.67 0c0.83,0 1.5,0.67 1.5,1.5 0,0.83 -0.67,1.5 -1.5,1.5zm-36.79 20.71l-39.69 0c-0.83,0 -1.5,-0.67 -1.5,-1.5 0,-0.83 0.67,-1.5 1.5,-1.5l39.69 0c0.83,0 1.5,0.67 1.5,1.5 0,0.83 -0.67,1.5 -1.5,1.5zm-67.12 17.72l-40.49 0c-0.83,0 -1.5,-0.67 -1.5,-1.5 0,-0.83 0.67,-1.5 1.5,-1.5l40.49 0c0.83,0 1.5,0.67 1.5,1.5 0,0.83 -0.67,1.5 -1.5,1.5zm15.78 -132.89l-45.26 0c-0.83,0 -1.5,-0.67 -1.5,-1.5 0,-0.83 0.66,-1.5 1.5,-1.5l45.26 0c0.82,0 1.5,0.67 1.5,1.5 0,0.83 -0.67,1.5 -1.5,1.5zm-55.43 -21.11l-16.67 0c-0.83,0 -1.5,-0.67 -1.5,-1.5 0,-0.83 0.67,-1.5 1.5,-1.5l16.67 0c0.83,0 1.5,0.67 1.5,1.5 0,0.83 -0.66,1.5 -1.5,1.5zm-107.86 12.53l-16.52 0 -11.96 0 -0.04 0 -0.04 -0 -0.04 -0 -0.04 -0 -0.04 -0 -0.04 -0.01 -0.04 -0.01 -0.04 -0.01 -0.04 -0.01 -0.04 -0.01 -0.04 -0.01 -0.04 -0.01 -0.04 -0.01 -0.04 -0.01 -0.04 -0.01 -0.03 -0.01 -0.03 -0.02 -0.03 -0.02 -0.03 -0.02 -0.03 -0.02 -0.03 -0.02 -0.03 -0.02 -0.03 -0.02 -0.03 -0.02 -0.03 -0.02 -0.03 -0.02 -0.03 -0.02 -0.03 -0.02 -0.03 -0.02 -0.03 -0.02 -0.03 -0.03 -0.03 -0.03 -0.03 -0.03 -0.03 -0.03 -0.02 -0.03 -0.02 -0.03 -0.02 -0.03 -0.02 -0.03 -0.02 -0.03 0 -0 -0.02 -0.03 -0.02 -0.03 -0.02 -0.03 0 -0 -0.02 -0.03 -0.02 -0.03 -0.02 -0.03 -0.02 -0.03 0 -0 -0.02 -0.03 -0.02 -0.03 -0.01 -0.03 0 -0 -0.01 -0.03 -0.01 -0.03 0 -0 -0.01 -0.03 0 -0 -0.01 -0.03 0 -0 -0.01 -0.03 0 -0 -0.01 -0.04 0 -0 -0.01 -0.04 -0.01 -0.04 -0.01 -0.04 0 -0 -0.01 -0.04 0 -0 -0 -0.04 -0 -0.04 0 -0 -0 -0.04 0 -0 -0 -0.04 0 -0 0 -0.04 0 -0 0 -0.04 0 -0 0 -0.04 0 -0 0 -0.04 0 -0 0 -0.04 0 -0.04 0 -0 0.01 -0.04 0 -0 0.01 -0.04 0.01 -0.04 0.01 -0.04 0 -0 0.01 -0.04 0 -0 0.01 -0.03 0 -0 0.01 -0.03 0 -0 0.01 -0.03 0 -0 0.01 -0.03 0.01 -0.03 0 -0 0.01 -0.03 0.02 -0.03 0.02 -0.03 0 -0 0.02 -0.03 0.02 -0.03 0.02 -0.03 0.02 -0.03 0 -0 0.02 -0.03 0.02 -0.03 0.02 -0.03 0 -0 0.02 -0.03 0.02 -0.03 0.02 -0.03 0.02 -0.03 0.02 -0.03 0.03 -0.03 0.03 -0.03 0.03 -0.03 0.03 -0.03 0.03 -0.02 0.03 -0.02 0.03 -0.02 0.03 -0.02 0.03 -0.02 0.03 -0.02 0.03 -0.02 0.03 -0.02 0.03 -0.02 0.03 -0.02 0.03 -0.02 0.03 -0.02 0.03 -0.02 0.03 -0.02 0.03 -0.01 0.04 -0.01 0.04 -0.01 0.04 -0.01 0.04 -0.01 0.04 -0.01 0.04 -0.01 0.04 -0.01 0.04 -0.01 0.04 -0.01 0.04 -0.01 0.04 -0 0.04 -0 0.04 -0 0.04 -0 0.04 0 11.96 0 16.52 0c0.82,0 1.5,0.67 1.5,1.5 0,0.83 -0.67,1.5 -1.5,1.5zm18.91 24.94l-31.66 0c-0.83,0 -1.5,-0.67 -1.5,-1.5 0,-0.83 0.67,-1.5 1.5,-1.5l31.66 0c0.83,0 1.5,0.67 1.5,1.5 0,0.83 -0.67,1.5 -1.5,1.5zm-29.26 21.27l-6.17 0 -18.84 0c-0.83,0 -1.5,-0.67 -1.5,-1.5l0 -0.04 0 -0.04 0 -0.04 0 -0.04 0 -0.04 0.01 -0.04 0.01 -0.04 0.01 -0.04 0 -0 0.01 -0.04 0.01 -0.04 0.01 -0.04 0 -0 0.01 -0.03 0 -0 0.01 -0.03 0 -0 0.01 -0.03 0 -0 0.01 -0.03 0.01 -0.03 0.02 -0.03 0.02 -0.03 0.02 -0.03 0 -0 0.02 -0.03 0 -0 0.02 -0.03 0 -0 0.02 -0.03 0 -0 0.02 -0.03 0 -0 0.02 -0.03 0 -0 0.02 -0.03 0 -0 0.02 -0.03 0 -0 0.02 -0.03 0 -0 0.02 -0.03 0 -0 0.02 -0.03 0 -0 0.02 -0.03 0 -0 0.03 -0.02 0 -0 0.03 -0.03 0 -0 0.03 -0.02 0 -0 0.03 -0.02 0.03 -0.02 0 -0 0.03 -0.02 0 -0 0.03 -0.02 0 -0 0.03 -0.02 0 -0 0.03 -0.02 0 -0 0.03 -0.02 0 -0 0.03 -0.02 0 -0 0.03 -0.02 0.03 -0.02 0.03 -0.02 0 -0 0.03 -0.02 0 -0 0.03 -0.02 0 -0 0.03 -0.01 0 -0 0.03 -0.01 0 -0 0.03 -0.01 0 -0 0.04 -0.01 0 -0 0.04 -0.01 0 -0 0.04 -0.01 0 -0 0.04 -0.01 0 -0 0.04 -0.01 0 -0 0.04 -0.01 0 -0 0.04 -0.01 0 -0 0.04 -0.01 0 -0 0.04 -0.01 0 -0 0.04 -0 0 -0 0.04 -0 0 -0 0.04 -0 0 -0 0.04 -0 0 -0 0.04 0 0.04 -0 18.84 0 0 0 6.17 0c0.83,0 1.5,0.67 1.5,1.5 0,0.83 -0.67,1.5 -1.5,1.5zm28.02 61.3l-25.01 0c-0.83,0 -1.5,-0.67 -1.5,-1.5 0,-0.83 0.67,-1.5 1.5,-1.5l25.01 0c0.83,0 1.5,0.67 1.5,1.5 0,0.83 -0.67,1.5 -1.5,1.5z"/>
   <path fill="#A16AA9" fill-rule="nonzero" d="M67.8 86.26c0,0 0,-16.16 0,-20.43 -10.91,0 -16.61,5.93 -16.61,5.93 0,0 5.7,0.71 7.36,3.8 -10.2,1.66 -18.13,10.71 -18.13,10.71 0,0 7.93,9.05 18.13,10.71 -1.66,3.09 -7.36,3.8 -7.36,3.8 0,0 5.7,5.93 16.61,5.93 0,-4.27 0,-20.44 0,-20.44zm8.99 -30.8l0 -45.13c34.76,0 52.16,15.97 60.56,28.88 -29.76,4.43 -51.54,12.49 -60.56,16.25zm0 61.6l0 45.12c34.76,0 52.16,-15.97 60.56,-28.88 -29.76,-4.43 -51.54,-12.49 -60.56,-16.25zm21.97 33.38c0.68,0.62 1.78,0.27 1.96,-0.64l0.74 -3.62c0.07,-0.34 0.28,-0.63 0.58,-0.79l3.21 -1.82c0.8,-0.45 0.8,-1.61 0,-2.06l-3.21 -1.82c-0.3,-0.17 -0.51,-0.46 -0.58,-0.8l-0.74 -3.62c-0.19,-0.9 -1.28,-1.26 -1.96,-0.64l-2.72 2.5c-0.26,0.23 -0.59,0.34 -0.93,0.3l-3.67 -0.42c-0.92,-0.1 -1.6,0.84 -1.21,1.68l1.53 3.36 0 0.98 -1.53 3.36c-0.38,0.84 0.29,1.77 1.21,1.67l3.67 -0.42c0.34,-0.04 0.68,0.07 0.93,0.31l2.72 2.49zm152.3 -53.28c6.56,-5.82 6.56,-16 0,-21.81 -3.42,-3.04 -7.69,-6.44 -12.78,-9.86l0.42 0.28c-1.05,5.58 -1.96,12.66 -1.96,20.49 0,7.82 0.91,14.89 1.95,20.5 4.93,-3.33 9.06,-6.62 12.39,-9.59zm-115.78 -9.76c1.19,-0.34 1.19,-1.94 0,-2.29 -7.35,-2.13 -24.35,-6.47 -40.51,-6.47 -8.01,0 -13.49,1.41 -16.56,2.52 -1.77,0.64 -2.95,2.23 -2.95,4.03l0 2.14c0,1.8 1.18,3.4 2.95,4.03 3.07,1.1 8.55,2.51 16.56,2.51 16.16,0 33.16,-4.35 40.51,-6.47zm99.25 -24.33c-17.98,-11.12 -44.92,-21.43 -80.86,-18.19 -48.86,4.39 -81.47,20.22 -81.47,20.22l0 42.31c0,0 32.61,15.83 81.47,20.22 35.68,3.2 62.49,-6.92 80.47,-17.95l-0.08 0.05c-1.25,-6.12 -2.42,-14.27 -2.42,-23.47 0,-9.24 1.18,-17.38 2.44,-23.46l0.45 0.28z"/>
   <path fill="#733D8D" fill-rule="nonzero" d="M98.76 150.45c0.68,0.62 1.78,0.26 1.96,-0.64l0.73 -3.62c0.07,-0.33 0.28,-0.63 0.58,-0.79l3.21 -1.82c0.8,-0.45 0.8,-1.61 0,-2.06l-3.21 -1.82c-0.3,-0.17 -0.51,-0.46 -0.58,-0.8l-0.73 -3.61c-0.19,-0.91 -1.28,-1.26 -1.96,-0.64l-2.72 2.49c-0.26,0.23 -0.59,0.34 -0.93,0.31l-3.67 -0.42c-0.92,-0.1 -1.6,0.84 -1.21,1.67l1.53 3.36 0 0.98 -1.53 3.36c-0.39,0.84 0.29,1.77 1.21,1.67l3.67 -0.42c0.34,-0.04 0.68,0.07 0.93,0.31l2.72 2.49zm98.22 -64.19c0,-6.73 -5.47,-12.2 -12.2,-12.2 -6.73,0 -12.2,5.47 -12.2,12.2 0,6.73 5.47,12.2 12.2,12.2 6.73,0 12.2,-5.47 12.2,-12.2zm-29.48 0c0,-9.53 7.75,-17.28 17.28,-17.28 9.53,0 17.28,7.75 17.28,17.28 0,9.53 -7.75,17.28 -17.28,17.28 -9.53,0 -17.28,-7.76 -17.28,-17.28zm40.49 0c0,-12.82 -10.39,-23.21 -23.21,-23.21 -12.82,0 -23.21,10.39 -23.21,23.21 0,12.81 10.39,23.21 23.21,23.21 12.81,0 23.21,-10.39 23.21,-23.21zm-72.71 1.14c1.19,-0.34 1.19,-1.94 0,-2.29 -7.35,-2.13 -24.35,-6.47 -40.51,-6.47 -8.01,0 -13.49,1.41 -16.56,2.52 -1.77,0.64 -2.95,2.23 -2.95,4.03l0 2.14c0,1.8 1.18,3.4 2.95,4.03 3.07,1.1 8.55,2.51 16.56,2.51 16.16,0 33.16,-4.35 40.51,-6.47zm-36.52 -65.33c0.68,-0.62 1.78,-0.26 1.96,0.64l0.73 3.62c0.07,0.33 0.28,0.63 0.58,0.79l3.21 1.82c0.8,0.46 0.8,1.61 0,2.06l-3.21 1.82c-0.3,0.17 -0.51,0.46 -0.58,0.79l-0.73 3.62c-0.19,0.91 -1.28,1.26 -1.96,0.64l-2.72 -2.49c-0.26,-0.23 -0.59,-0.34 -0.93,-0.31l-3.67 0.42c-0.92,0.1 -1.6,-0.83 -1.21,-1.67l1.53 -3.36 0 -0.98 -1.53 -3.36c-0.39,-0.84 0.29,-1.77 1.21,-1.67l3.67 0.42c0.34,0.04 0.68,-0.07 0.93,-0.3l2.72 -2.49z"/>
  </g>
 </g>
</svg>
