<?xml version="1.0" encoding="UTF-8"?>
<!DOCTYPE svg PUBLIC "-//W3C//DTD SVG 1.0//EN" "http://www.w3.org/TR/2001/REC-SVG-20010904/DTD/svg10.dtd">
<!-- Creator: CorelDRAW 2017 -->
<svg xmlns="http://www.w3.org/2000/svg" xml:space="preserve" width="24.2574mm" height="8.7364mm" version="1.0" shape-rendering="geometricPrecision" text-rendering="geometricPrecision" image-rendering="optimizeQuality" fill-rule="evenodd" clip-rule="evenodd"
viewBox="0 0 462.43 166.55"
 xmlns:xlink="http://www.w3.org/1999/xlink">
 <g id="Layer_x0020_1">
  <metadata id="CorelCorpID_0Corel-Layer"/>
  <g id="_2373594582912">
   <path fill="#64C0B9" fill-rule="nonzero" d="M322.69 25.55l-223.46 44.14c-3.45,0.68 -3.65,5.56 -0.26,6.51l47.19 13.35c0.63,0.18 1.31,0.17 1.94,-0.04l103.39 -33.24c3.71,-1.19 6.13,3.85 2.86,5.99l-68.41 44.88c-1.78,1.17 -2.03,3.68 -0.52,5.18l41.8 41.51c1.44,1.43 3.79,1.27 5.02,-0.34l93.77 -122.62c1.88,-2.45 -0.28,-5.92 -3.31,-5.32zm-86.69 40.38l-82.58 28.87c-1.53,0.53 -2.46,2.08 -2.21,3.68l5.88 37.8c0.53,3.4 5.22,3.89 6.44,0.67l10.85 -28.59 0.55 -1.44 1.59 -1 60.48 -37.92c1.17,-0.74 0.31,-2.54 -1,-2.08zm-43.17 62.53l-10.4 -10.17c-1.73,-1.69 -4.62,-1.05 -5.48,1.21l-7.51 19.78 -1.35 3.56c-1.16,3.06 2.31,5.81 5.03,3.96l19.26 -13.17c1.74,-1.19 1.96,-3.68 0.45,-5.16z"/>
   <path fill="#09897E" fill-rule="nonzero" d="M135.97 43.86l-134.25 0c-2.07,0 -2.38,-2.98 -0.35,-3.4 4.31,-0.88 9.1,-1.87 13.95,-2.86 2.52,-6.55 8.85,-11.21 16.29,-11.21 1.42,0 2.79,0.19 4.12,0.51 2.91,-5.6 8.75,-9.43 15.5,-9.43 1.39,0 2.73,0.18 4.03,0.49l-0.03 -0.49c0,-9.65 7.82,-17.47 17.47,-17.47 8.28,0 15.19,5.77 17,13.5 1.4,-0.48 2.89,-0.76 4.46,-0.76 7.54,0 13.65,6.11 13.65,13.65l-0.01 0.11c6.35,0.7 11.66,4.79 14.1,10.42l14.47 3.55c1.97,0.49 1.62,3.39 -0.41,3.39zm263.25 103.83l-5.21 0 -2.87 0 -39.45 0 -18.87 0c-2.31,0 -2.81,-3.25 -0.6,-3.94l6.4 -2 -0.03 -0.71c0,-7.21 5.36,-13.14 12.32,-14.08 0.2,-1 0.47,-1.99 0.79,-2.94 3.17,-9.3 11.98,-15.98 22.35,-15.98 5.98,0 11.43,2.24 15.59,5.91 0.49,-0.3 0.99,-0.58 1.52,-0.82l0 -0.02c0.91,-0.42 1.87,-0.73 2.87,-0.92 0.01,-0 0.02,-0 0.03,-0.01 0.32,-0.07 0.65,-0.12 0.98,-0.15l0.04 -0 0.02 -0 0.02 -0 0.04 -0 0.04 -0.01 0.01 0 0.03 -0 0.04 -0.01 0.04 -0 0.01 0 0.03 -0 0.04 -0 0.04 -0 0 0 0.04 -0 0.04 -0 0.04 -0 0 0 0.04 -0 0.04 -0 0.04 -0 0.04 -0 0.04 -0 0.04 -0 0 0 0.04 -0 0.04 -0 0.04 -0 0 0 0.04 -0 0.04 -0 0.04 0 0 0 0.04 -0 0.04 -0 0.03 -0 0.01 0 0.04 -0 0.04 0 0.04 -0 0 0 0.04 -0 0.04 0 0.04 0 0 0 0.04 -0 0.04 0 0.04 0 0 0 0.04 0 0.04 0 0.04 0 0.04 0 0.04 0 0.04 0 0 0 0.04 0 0.04 0 0.04 0 0 0 0.04 0 0.04 0 0.04 0 0 0 0.04 0 0.04 0 0.04 0 0 0 0.04 0 0.04 0 0.04 0 0 0 0.04 0 0.04 0 0.04 0 0 0 0.04 0 0.04 0 0.04 0 0 0 0.04 0 0.04 0 0.04 0 0.04 0 0.04 0 0.04 0 0 0 0.04 0 0.04 0 0.03 0 0.01 0 0.04 0 0.04 0 0.03 0 0.01 0 0.04 0 0.04 0.01 0.03 0 0.01 0 0.04 0.01 0.04 0 0.02 0 0.02 0 0.04 0c0.32,0.04 0.65,0.09 0.98,0.15 0.01,0.01 0.02,0.01 0.03,0.01 1,0.19 1.96,0.51 2.87,0.92l0 0.02c0.52,0.24 1.03,0.52 1.52,0.82 4.16,-3.67 9.6,-5.91 15.59,-5.91 10.37,0 19.18,6.68 22.35,15.98 0.32,0.95 0.59,1.94 0.79,2.94 6.95,0.93 12.32,6.87 12.32,14.08l-0.03 0.71 6.4 2c2.2,0.69 1.71,3.94 -0.6,3.94l-18.87 0 -39.45 0 -2.87 0zm5.08 -112.51l-5.08 0 -47.53 0 -5.08 0c-0.93,0 -1.67,-0.75 -1.67,-1.68 0,-0.93 0.75,-1.68 1.67,-1.68l57.7 0c0.92,0 1.67,0.75 1.67,1.68 0,0.93 -0.75,1.68 -1.67,1.68zm-152.98 -8.03l-50.59 0c-0.93,0 -1.68,-0.75 -1.68,-1.67 0,-0.93 0.75,-1.68 1.68,-1.68l50.59 0c0.92,0 1.68,0.75 1.68,1.68 0,0.92 -0.75,1.67 -1.68,1.67zm-176.61 47.7l-45.24 0c-0.93,0 -1.68,-0.75 -1.68,-1.68 0,-0.92 0.75,-1.68 1.68,-1.68l45.24 0c0.93,0 1.68,0.75 1.68,1.68 0,0.92 -0.75,1.68 -1.68,1.68zm41.69 29.32l-94.97 0c-0.93,0 -1.68,-0.75 -1.68,-1.67 0,-0.93 0.75,-1.67 1.68,-1.67l94.97 0c0.92,0 1.67,0.75 1.67,1.67 0,0.92 -0.75,1.67 -1.67,1.67zm-11.18 45.2l-49.18 0c-0.92,0 -1.67,-0.75 -1.67,-1.68 0,-0.92 0.75,-1.67 1.67,-1.67l49.18 0c0.92,0 1.67,0.75 1.67,1.67 0,0.92 -0.75,1.68 -1.67,1.68zm213.56 17.18l-45.27 0c-0.93,0 -1.68,-0.75 -1.68,-1.67 0,-0.93 0.75,-1.68 1.68,-1.68l45.27 0c0.92,0 1.67,0.75 1.67,1.68 0,0.92 -0.75,1.67 -1.67,1.67zm-17.75 -42.61l-18.64 0c-0.93,0 -1.68,-0.75 -1.68,-1.68 0,-0.92 0.75,-1.67 1.68,-1.67l18.64 0c0.93,0 1.67,0.75 1.67,1.67 0,0.93 -0.75,1.68 -1.67,1.68zm94.53 -28.4l-43.87 0 -17.35 0c-0.92,0 -1.67,-0.75 -1.67,-1.68 0,-0.92 0.75,-1.67 1.67,-1.67l17.35 0 43.87 0c0.92,0 1.67,0.75 1.67,1.67 0,0.93 -0.75,1.68 -1.67,1.68zm-28.05 -28l-15.82 0 -28.56 0c-0.92,0 -1.67,-0.75 -1.67,-1.68 0,-0.92 0.75,-1.67 1.67,-1.67l28.56 0 15.82 0c0.92,0 1.67,0.75 1.67,1.67 0,0.93 -0.75,1.68 -1.67,1.68z"/>
  </g>
 </g>
</svg>
