<?xml version="1.0" encoding="UTF-8"?>
<!DOCTYPE svg PUBLIC "-//W3C//DTD SVG 1.0//EN" "http://www.w3.org/TR/2001/REC-SVG-20010904/DTD/svg10.dtd">
<!-- Creator: CorelDRAW 2017 -->
<svg xmlns="http://www.w3.org/2000/svg" xml:space="preserve" width="17.6985mm" height="14.3898mm" version="1.0" shape-rendering="geometricPrecision" text-rendering="geometricPrecision" image-rendering="optimizeQuality" fill-rule="evenodd" clip-rule="evenodd"
viewBox="0 0 285.34 231.99"
 xmlns:xlink="http://www.w3.org/1999/xlink">
 <g id="Layer_x0020_1">
  <metadata id="CorelCorpID_0Corel-Layer"/>
  <g id="_2373594594304">
   <path fill="#FDDDB1" fill-rule="nonzero" d="M259.86 82.54l-19.85 0c-0.66,0 -1.2,-0.54 -1.2,-1.2 0,-0.66 0.54,-1.2 1.2,-1.2l19.85 0c0.66,0 1.2,0.54 1.2,1.2 0,0.66 -0.54,1.2 -1.2,1.2zm-6.32 38.88l-18.15 0c-0.66,0 -1.2,-0.54 -1.2,-1.2 0,-0.66 0.54,-1.2 1.2,-1.2l18.15 0c0.66,0 1.2,0.54 1.2,1.2 0,0.66 -0.54,1.2 -1.2,1.2zm-47.88 -75.63l-36.24 0c-0.67,0 -1.2,-0.54 -1.2,-1.2 0,-0.66 0.53,-1.2 1.2,-1.2l36.24 0c0.66,0 1.2,0.54 1.2,1.2 0,0.66 -0.54,1.2 -1.2,1.2zm-101.11 -16.9l-13.35 0c-0.66,0 -1.2,-0.54 -1.2,-1.2 0,-0.66 0.54,-1.2 1.2,-1.2l13.35 0c0.67,0 1.2,0.54 1.2,1.2 0,0.66 -0.53,1.2 -1.2,1.2zm-52.34 4.36l-13.23 0 -9.58 0 -0.03 0 -0.03 -0 -0.03 -0 -0.03 -0 -0.03 -0 -0.03 -0 -0.03 -0 -0.03 -0 -0.03 -0.01 -0.03 -0.01 -0.03 -0.01 -0.03 -0.01 -0.03 -0.01 -0.03 -0.01 -0.03 -0.01 -0.03 -0.01 -0.03 -0.01 -0.03 -0.01 -0.03 -0.01 -0.03 -0.01 -0.03 -0.01 -0.03 -0.01 -0.02 -0.02 -0.02 -0.02 -0.02 -0.02 -0.02 -0.02 -0.02 -0.02 -0.02 -0.02 -0.02 -0.02 -0.02 -0.02 -0.02 -0.02 -0.02 -0.02 -0.02 -0.02 -0.02 -0.02 -0.02 -0.02 -0.02 -0.02 -0.02 -0.02 -0.02 -0.02 -0.02 -0.02 0 -0 -0.02 -0.02 -0.02 -0.02 -0.02 -0.02 0 -0 -0.01 -0.02 -0.01 -0.02 -0.01 -0.03 -0.01 -0.03 0 -0 -0.01 -0.03 -0.01 -0.03 -0.01 -0.03 0 -0 -0.01 -0.03 -0.01 -0.03 0 -0 -0.01 -0.03 0 -0 -0.01 -0.03 0 -0 -0.01 -0.03 0 -0 -0.01 -0.03 0 -0 -0.01 -0.03 -0 -0.03 -0 -0.03 0 0 -0 -0.03 0 -0 -0 -0.03 -0 -0.03 0 -0 -0 -0.03 0 -0 -0 -0.03 0 -0 0 -0.03 0 0 0 -0.03 0 -0 0 -0.03 0 -0 0 -0.03 0 -0 0 -0.03 0 -0.03 0 -0 0 -0.03 0 0 0 -0.03 0 -0.03 0.01 -0.03 0 -0 0.01 -0.03 0 -0 0.01 -0.03 0 -0 0.01 -0.03 0 -0 0.01 -0.03 0 -0 0.01 -0.03 0.01 -0.03 0 -0 0.01 -0.03 0.01 -0.03 0.01 -0.03 0 -0 0.01 -0.03 0.01 -0.03 0.01 -0.02 0.01 -0.02 0 -0 0.02 -0.02 0.02 -0.02 0.02 -0.02 0 -0 0.02 -0.02 0.02 -0.02 0.02 -0.02 0.02 -0.02 0.02 -0.02 0.02 -0.02 0.02 -0.02 0.02 -0.02 0.02 -0.02 0.02 -0.02 0.02 -0.02 0.02 -0.02 0.02 -0.02 0.02 -0.02 0.02 -0.02 0.02 -0.02 0.02 -0.02 0.03 -0.01 0.03 -0.01 0.03 -0.01 0.03 -0.01 0.03 -0.01 0.03 -0.01 0.03 -0.01 0.03 -0.01 0.03 -0.01 0.03 -0.01 0.03 -0.01 0.03 -0.01 0.03 -0.01 0.03 -0.01 0.03 -0 0.03 -0 0.03 -0 0.03 -0 0.03 -0 0.03 -0 0.03 -0 0.03 0 9.58 0 13.23 0c0.66,0 1.2,0.54 1.2,1.2 0,0.66 -0.54,1.2 -1.2,1.2zm-30.98 42.68l-4.94 0 -15.09 0c-0.67,0 -1.2,-0.54 -1.2,-1.2l0 -0.03 0 -0.03 0 -0.03 0 -0.03 0 -0.03 0 -0.03 0.01 -0.03 0 -0.03 0 -0 0.01 -0.03 0.01 -0.03 0.01 -0.03 0 -0 0.01 -0.03 0 -0 0.01 -0.03 0 -0 0.01 -0.03 0 0 0.01 -0.03 0.01 -0.03 0.01 -0.03 0.01 -0.03 0.01 -0.03 0 -0 0.01 -0.02 0 0 0.01 -0.02 0 -0 0.01 -0.02 0 -0 0.02 -0.02 0 -0 0.02 -0.02 0 -0 0.02 -0.02 0 -0 0.02 -0.02 0 -0 0.02 -0.02 0 -0 0.02 -0.02 0 -0 0.02 -0.02 0 0 0.02 -0.02 0 -0 0.02 -0.02 0 -0 0.02 -0.02 0 0 0.02 -0.02 0 -0 0.02 -0.02 0.02 -0.02 0 -0 0.02 -0.02 0 -0 0.02 -0.02 0 0 0.02 -0.02 0 -0 0.02 -0.02 0 -0 0.02 -0.01 0 -0 0.02 -0.01 0 -0 0.02 -0.01 0.03 -0.01 0.03 -0.01 0 0 0.03 -0.01 0 -0 0.02 -0.01 0 -0 0.03 -0.01 0 -0 0.03 -0.01 0 -0 0.03 -0.01 0 -0 0.03 -0.01 0 0 0.03 -0.01 0 -0 0.03 -0.01 0 -0 0.03 -0.01 0 -0 0.03 -0.01 0 -0 0.03 -0 0 -0 0.03 -0 0 -0 0.03 -0 0 -0 0.03 -0 0 -0 0.03 -0 0 0 0.03 -0 0 -0 0.03 -0 0 -0 0.03 -0 0 0 0.03 0 0.03 -0 15.09 0 0 0 4.94 0c0.67,0 1.2,0.54 1.2,1.2 0,0.66 -0.54,1.2 -1.2,1.2zm45.12 49.09l-20.03 0c-0.67,0 -1.2,-0.54 -1.2,-1.2 0,-0.66 0.54,-1.2 1.2,-1.2l20.03 0c0.33,0 0.63,0.14 0.85,0.35 0.22,0.22 0.35,0.52 0.35,0.85 0,0.67 -0.54,1.2 -1.2,1.2z"/>
   <path fill="#82A5D7" fill-rule="nonzero" d="M108.69 103.99c-2.46,2.37 -3.4,6.05 -1.05,8.88 2.21,2.67 6.49,3.24 9.25,1.11 6.66,-5.14 -0.28,-14.64 -7.48,-12.67 -1.33,0.36 -1,2.26 0.32,2.34 2.1,0.12 4.35,0.2 6.03,1.67 1.8,1.58 1.84,4.26 0.36,6.08 -3.92,4.82 -10.73,-2.28 -6.61,-6.59 0.52,-0.54 -0.28,-1.35 -0.83,-0.83z"/>
   <path fill="#ED7183" fill-rule="nonzero" d="M177.35 112.13c0.9,3.35 1.9,6.67 2.93,9.98 0.25,0.8 1,1.05 1.69,0.58 2.7,-1.83 5.39,-3.63 7.94,-5.66 0.49,-0.39 0.38,-1.17 -0.1,-1.51 -2.99,-2.05 -7.02,-5.08 -10.82,-5.1 -0.96,-0.01 -1.64,1.35 -0.66,1.92 1.53,0.88 3.36,1.2 5,1.88 1.89,0.79 3.75,1.7 5.42,2.89 0.04,-0.55 0.07,-1.1 0.11,-1.65 -2.85,1.76 -5.54,3.72 -8.25,5.69 0.54,0.1 1.07,0.21 1.6,0.32 -1.16,-3.27 -2.34,-6.52 -3.63,-9.75 -0.27,-0.68 -1.43,-0.31 -1.23,0.4z"/>
   <path fill="#FBC681" fill-rule="nonzero" d="M196.27 129.89c4,-1.92 8.1,-4.12 11.71,-6.71 1.33,-0.95 0.02,-2.81 -1.38,-2.07 -3.86,2.02 -7.61,4.63 -11.06,7.29 -0.69,0.54 -0.18,1.93 0.73,1.49z"/>
   <path fill="#F29481" fill-rule="nonzero" d="M48.73 142.13c-0.84,-4.36 -1.93,-8.88 -3.51,-13.03 -0.58,-1.53 -2.71,-0.73 -2.36,0.8 0.97,4.24 2.54,8.54 4.24,12.55 0.34,0.8 1.82,0.67 1.63,-0.32z"/>
   <path fill="#312E53" fill-rule="nonzero" d="M61.34 103.53l-0.23 -0.2c-0.99,-0.88 -2.62,-1.05 -3.58,0 -0.97,1.06 -0.94,2.52 0,3.58l0.2 0.23c0.89,1 2.71,0.97 3.61,0 0.89,-0.97 1.07,-2.66 0,-3.61z"/>
   <path fill="#ED7183" fill-rule="nonzero" d="M168.09 215.91c0,0 -42.09,9.79 -59,-7.12l6.05 -40.39c1.84,-11.61 0.74,-33.95 9.63,-41.87 1.72,-1.53 3.38,-2.3 3.38,-2.3 6.24,-3.01 17.33,-4.64 27.98,-4.68 12.94,-0.05 26.26,9.74 29.66,22.22l-14.01 32.76 -3.69 41.36z"/>
   <path fill="#F4ABA8" fill-rule="nonzero" d="M163.93 146.81c0,0 18.86,36.32 9.49,38.26 -30.8,6.37 -48.68,11.58 -48.68,11.58l-1.57 11.96c0.46,1.81 62.32,0.24 69.64,-8.07 5.18,-5.87 12.05,-19.43 -2.58,-48.78l-4.44 -9.98 -21.86 5.03z"/>
   <path fill="#F4ABA8" fill-rule="nonzero" d="M128.51 128.1l-46.97 18.19 -1.47 -24.64 -10.06 -3.89c0,0 -14.58,39.55 3.65,46.91 18.23,7.36 38.78,-6.24 38.78,-6.24l16.06 -30.33z"/>
   <path fill="#ED7183" fill-rule="nonzero" d="M134.32 122.07c-16.39,5.22 -26.17,11.34 -49.25,20.97l11.85 26.43 20.43 -6.56 16.97 -40.84z"/>
   <polygon fill="#ED7183" fill-rule="nonzero" points="161.1,141.78 173.01,169.46 199.88,164.55 181.78,133.38 160.35,141.78 "/>
   <path fill="#2C3C63" fill-rule="nonzero" d="M147.04 160.65c5.72,-0.32 11.37,-0.07 17.09,0.01 0.5,0.01 0.47,-0.7 0,-0.76 -5.63,-0.67 -11.45,-0.4 -17.09,0.08 -0.42,0.04 -0.44,0.7 0,0.67z"/>
   <path fill="#2C3C63" fill-rule="nonzero" d="M172.67 128.55c-19.33,1.75 -6.11,30.25 -1.16,38.88 0.28,0.48 1.02,0.05 0.74,-0.43 -4.93,-8.72 -18.1,-35.25 0.48,-37.98 0.27,-0.04 0.2,-0.5 -0.06,-0.47z"/>
   <path fill="#2C3C63" fill-rule="nonzero" d="M119.09 144.84c-2.38,9.49 -3.98,19.37 -4.57,29.14 -0.02,0.4 0.66,0.51 0.72,0.1 1.38,-9.72 2.77,-19.41 4.33,-29.11 0.05,-0.31 -0.4,-0.45 -0.48,-0.13z"/>
   <path fill="#312E53" fill-rule="nonzero" d="M164.34 92.19c0.3,-4.08 0.59,-8.16 0.89,-12.25 3.21,-0.9 4.87,-5.01 3.59,-8.09 -1.28,-3.08 -4.92,-4.81 -8.22,-4.34 2.08,-1.42 1.92,-4.8 0.21,-6.66 -1.71,-1.85 -4.39,-2.45 -6.91,-2.55 -2.52,-0.1 -5.07,0.21 -7.54,-0.25 -2.19,-0.41 -4.34,-1.41 -6.56,-1.13 -2.21,0.28 -4.33,2.77 -3.14,4.65 -3.19,-0.47 -6.65,-0.89 -9.49,0.65 -2.84,1.54 -4.26,5.92 -1.82,8.04 -1.61,0.82 -2.02,3.15 -1.11,4.72 0.9,1.57 2.76,2.39 4.56,2.52 1.8,0.13 3.59,-0.33 5.34,-0.78l30.18 15.46z"/>
   <path fill="#F4ABA8" fill-rule="nonzero" d="M163.82 84.25l-0.64 8.49c0,0 7.22,0.97 5.16,7.55 -2.06,6.58 -6.99,3.7 -6.99,3.7 0,0 -1.23,16.86 -18.51,11.51 -13.75,-4.25 -12.91,-22.06 -11.16,-37.23 0.68,-5.88 6.24,-9.92 12.04,-8.79l10.39 2.02c6,1.17 10.18,6.65 9.72,12.74z"/>
   <path fill="#F4ABA8" fill-rule="nonzero" d="M163.18 99.78l-4.65 24.82c-1.05,5.59 -6.56,9.17 -12.09,7.85 -5.13,-1.23 -8.41,-6.23 -7.49,-11.43l2.53 -14.22 21.71 -7.02z"/>
   <path fill="#312E53" fill-rule="nonzero" d="M144.07 100.06c0.03,-0.01 0.08,0.35 -0.43,0.6 -0.53,0.24 -1.38,-0.28 -1.59,-1.12 -0.28,-0.81 -0.24,-1.79 -0.19,-2.8 0.06,-1.07 0.11,-2.17 0.18,-3.31 0.29,-4.7 0.71,-8.49 0.94,-8.48 0.22,0.01 0.17,3.83 -0.13,8.53 -0.08,1.14 -0.16,2.24 -0.24,3.31 -0.09,1.02 -0.17,1.91 -0,2.59 0.13,0.69 0.63,1.03 0.96,0.98 0.33,-0.05 0.46,-0.33 0.51,-0.29z"/>
   <path fill="#312E53" fill-rule="nonzero" d="M138.47 113.77c0.08,-0.1 0.89,0.46 2.31,1.09 1.42,0.64 3.5,1.29 5.86,1.34 2.36,0.05 4.47,-0.51 5.91,-1.09 1.45,-0.57 2.29,-1.1 2.36,-0.99 0.06,0.08 -0.67,0.78 -2.12,1.52 -1.44,0.74 -3.65,1.43 -6.17,1.38 -2.51,-0.05 -4.7,-0.84 -6.1,-1.64 -1.42,-0.8 -2.12,-1.54 -2.06,-1.61z"/>
   <path fill="#312E53" fill-rule="nonzero" d="M141.84 103.54c0.09,-0.08 0.48,0.29 1.2,0.61 0.71,0.33 1.83,0.56 2.94,0.21 1.1,-0.36 1.88,-1.21 2.27,-1.88 0.4,-0.69 0.5,-1.2 0.62,-1.19 0.1,-0 0.22,0.57 -0.1,1.44 -0.3,0.84 -1.14,1.96 -2.53,2.42 -1.4,0.44 -2.73,0.03 -3.47,-0.49 -0.76,-0.52 -1,-1.06 -0.92,-1.11z"/>
   <path fill="#312E53" fill-rule="nonzero" d="M163.72 101.11c-0.01,-0.12 0.42,-0.19 0.9,-0.48 0.23,-0.15 0.44,-0.37 0.52,-0.67 0.08,-0.31 -0.01,-0.59 -0.25,-0.67 -0.2,-0.08 -0.39,-0.01 -0.43,0.06l-0.69 -0.36c0.65,-1.34 1.23,-2.27 1.4,-2.19 0.17,0.07 -0.13,1.13 -0.69,2.51l-0.69 -0.36c0.29,-0.49 0.93,-0.61 1.39,-0.42 0.34,0.11 0.64,0.45 0.71,0.77 0.1,0.33 0.06,0.64 -0.04,0.9 -0.19,0.53 -0.64,0.84 -0.99,0.96 -0.73,0.23 -1.15,0.05 -1.14,-0.04z"/>
   <path fill="#312E53" fill-rule="nonzero" d="M150.42 84.39c-0.09,-0.2 0.81,-0.68 1.95,-0.38 1.14,0.3 1.69,1.15 1.52,1.29 -0.17,0.16 -0.83,-0.27 -1.72,-0.5 -0.89,-0.24 -1.68,-0.19 -1.75,-0.41z"/>
   <path fill="#312E53" fill-rule="nonzero" d="M135.49 82.02c-0.1,-0.19 0.79,-0.78 2.05,-0.67 1.26,0.1 2.04,0.84 1.9,1.01 -0.13,0.2 -0.94,-0.12 -1.97,-0.2 -1.03,-0.1 -1.89,0.07 -1.97,-0.14z"/>
   <path fill="#312E53" fill-rule="nonzero" d="M163.18 92.73c-4.82,-4.7 -6.24,-12.53 -7.55,-19.14 -4.46,3.25 -10.61,4.05 -15.75,2.05 -1.62,1.9 -3.51,3.55 -5.61,4.9 -0.6,0.38 -1.3,0.76 -1.98,0.55 -0.81,-0.24 -1.17,-1.17 -1.36,-1.99 -0.61,-2.63 -0.64,-5.45 0.28,-8 0.92,-2.54 2.84,-4.78 5.37,-5.76 2.7,-1.04 5.73,-0.59 8.53,0.14 4.22,1.09 8.28,2.77 12.04,4.97 3.69,2.16 7.23,5.02 8.8,9 1.57,3.98 1.56,11.71 -2.22,13.72l-0.54 -0.45z"/>
   <path fill="#312E53" fill-rule="nonzero" d="M151.72 91.3c-0.22,-0.02 -0.36,-0.61 -0.31,-1.33 0.05,-0.72 0.28,-1.29 0.5,-1.27 0.22,0.02 0.36,0.61 0.31,1.33 -0.05,0.72 -0.28,1.29 -0.5,1.27z"/>
   <path fill="#312E53" fill-rule="nonzero" d="M137.85 89.53c-0.23,-0.02 -0.37,-0.61 -0.31,-1.33 0.05,-0.72 0.27,-1.29 0.5,-1.28 0.22,0.02 0.36,0.61 0.31,1.33 -0.05,0.72 -0.28,1.29 -0.5,1.28z"/>
   <path fill="#F4ABA8" fill-rule="nonzero" d="M69.51 118.58c0,0 2.09,-12.81 4.58,-12.67 2.49,0.14 7.48,-0 7.48,-0 0,0 0.42,-12.19 1.8,-10.25 1.39,1.94 1.82,18.33 -3.52,26.2l-10.33 -3.28z"/>
   <path fill="#F4ABA8" fill-rule="nonzero" d="M124.74 196.65c0,0 -22.35,3.91 -21.91,6.81 0.44,2.9 2.01,5.82 2.01,5.82l19.9 -0.47 0 -12.17z"/>
   <polygon fill="#674492" fill-rule="nonzero" points="149,209.99 148.82,206.9 102.79,204.08 87.36,162.78 36.83,165.56 54.07,210.22 "/>
   <path fill="#AC8DC0" fill-rule="nonzero" d="M68.43 190.27c-2.76,0 -5.08,-2.16 -5.23,-4.96 -0.16,-2.89 2.06,-5.37 4.95,-5.53 0.1,-0 0.2,-0.01 0.29,-0.01 2.76,0 5.08,2.16 5.23,4.96 0.16,2.89 -2.06,5.37 -4.95,5.53 -0.1,0 -0.2,0.01 -0.29,0.01zm0.01 -8.99c-0.07,0 -0.14,0 -0.21,0.01 -2.06,0.11 -3.65,1.88 -3.53,3.95 0.11,1.99 1.76,3.54 3.74,3.54 0.07,0 0.14,-0 0.21,-0 2.07,-0.12 3.65,-1.88 3.53,-3.95 -0.11,-1.99 -1.76,-3.54 -3.74,-3.54z"/>
   <path fill="#CFBBDC" fill-rule="nonzero" d="M68.43 188.77c-1.97,0 -3.63,-1.54 -3.74,-3.54 -0.11,-2.07 1.47,-3.83 3.53,-3.95 0.07,-0 0.14,-0.01 0.21,-0.01 1.97,0 3.63,1.55 3.74,3.54 0.11,2.07 -1.47,3.83 -3.53,3.95 -0.07,0 -0.14,0 -0.21,0z"/>
   <path fill="#E0D3E9" fill-rule="nonzero" d="M29.33 210.9l197.59 -2.47 11.57 6.08c0,0 -151.68,41.63 -209.16,-3.61z"/>
   <path fill="#E0D3E9" fill-rule="nonzero" d="M183.89 64.74c-0.6,1.16 1.36,31.16 1.36,31.16l14.77 -1.23 -1.72 7.92 7.22 -8.14 14.45 -1.67 -0.88 -29.08 -35.2 1.03zm8.08 13.42l3.1 10.8 4.35 -0.85 -0.43 -2.17 1.23 -0.74 2.33 2.3 7.36 -1.43 0.95 -2.82 -2.09 -0.47 2.7 -0.9 -0.59 -3.02 -2.34 0.2 3.21 -0.88 -0.73 -3.74 -7.48 1.46c0,0 0.48,-5.23 -1.73,-6.93l-1.69 0.33c0,0 0.57,1.64 0.52,2.66 -0.05,1.01 -1.53,5.68 -1.53,5.68l-2.3 1.07 -0.54 -1.52 -4.32 0.97z"/>
   <path fill="#F7B682" fill-rule="nonzero" d="M146.37 18.01c0,0 -10.18,0.51 -10.52,11.37 0,0 0.17,5.94 3.39,8.14 3.22,2.21 3.05,4.58 3.05,4.58l8.48 0c0,0 -0.34,-3.05 1.02,-4.75 1.36,-1.7 4.75,-5.26 4.24,-10.52 -0.51,-5.26 -4.41,-9.33 -9.67,-8.82z"/>
   <path fill="#674492" fill-rule="nonzero" d="M142.14 44.76c3.05,-0.14 6.12,0.19 9.15,0.02 0.44,-0.03 0.59,-0.7 0.11,-0.8 -2.94,-0.61 -6.3,-0.27 -9.26,0.06 -0.45,0.05 -0.48,0.75 0,0.73z"/>
   <path fill="#674492" fill-rule="nonzero" d="M143.32 47.42c1.22,-0.07 2.43,-0.12 3.65,-0.11 1.21,0.01 2.45,0.21 3.65,0.13 0.44,-0.03 0.58,-0.68 0.11,-0.81 -2.32,-0.61 -5.16,-0.25 -7.51,0.08 -0.4,0.06 -0.31,0.74 0.1,0.71z"/>
   <path fill="#674492" fill-rule="nonzero" d="M144.32 49.39c1.06,0.07 2.16,0.37 3.22,0.35 0.53,-0.01 0.62,-0.75 0.12,-0.91 -1.03,-0.32 -2.28,-0.21 -3.34,-0.17 -0.47,0.02 -0.46,0.69 0,0.73z"/>
   <path fill="#674492" fill-rule="nonzero" d="M144.8 41.98c0.24,-3.02 -0.78,-6.36 -1.3,-9.32 -0.29,0.12 -0.59,0.25 -0.89,0.37 0.43,0.7 1.13,2.72 2.22,2.65 1.13,-0.08 1.54,-2.08 1.7,-2.9 -0.32,0 -0.65,0 -0.97,0 0.22,0.93 0.25,3.18 1.71,2.97 1.24,-0.18 2.08,-2.02 2.46,-3.03 -0.34,-0.09 -0.67,-0.19 -1.01,-0.28 -0.75,2.95 -1.11,6.69 -0.36,9.67 0.14,0.54 0.99,0.43 0.97,-0.13 -0.09,-3.13 -0.53,-6.19 0.4,-9.25 0.2,-0.66 -0.77,-0.89 -1.01,-0.28 -0.14,0.35 -0.94,2.33 -1.7,2.07 -0.19,-0.06 -0.44,-1.83 -0.49,-2 -0.11,-0.46 -0.88,-0.5 -0.97,0 -0.11,0.61 -0.36,2.26 -1.08,1.76 -0.41,-0.29 -0.78,-1.3 -1.04,-1.74 -0.3,-0.5 -0.97,-0.15 -0.89,0.37 0.47,2.96 0.59,6.41 1.78,9.18 0.1,0.24 0.43,0.09 0.44,-0.12z"/>
   <path fill="#F7B682" fill-rule="nonzero" d="M114.83 38.21c4.53,-1.44 9.2,-2.68 13.61,-4.42 0.35,-0.14 0.23,-0.68 -0.16,-0.58 -4.61,1.14 -9.13,2.85 -13.64,4.3 -0.44,0.14 -0.26,0.84 0.19,0.7z"/>
   <path fill="#F7B682" fill-rule="nonzero" d="M120.4 24.74c2.85,-0.06 5.81,0.1 8.64,-0.26 0.48,-0.06 0.49,-0.72 0,-0.76 -2.84,-0.21 -5.79,0.11 -8.64,0.2 -0.52,0.02 -0.53,0.83 0,0.82z"/>
   <path fill="#F7B682" fill-rule="nonzero" d="M134.07 19.79c-3.21,-2.8 -6.27,-6.28 -9.92,-8.49 -0.58,-0.35 -1.11,0.43 -0.69,0.9 2.8,3.18 6.73,5.54 10.03,8.18 0.4,0.32 0.99,-0.23 0.58,-0.58z"/>
   <path fill="#F7B682" fill-rule="nonzero" d="M141.29 15.5c0.03,-0.9 -0.66,-1.76 -1.1,-2.51 -0.52,-0.89 -0.96,-1.91 -1.68,-2.65 -0.36,-0.38 -1.09,0.01 -0.91,0.53 0.34,0.97 1.05,1.83 1.62,2.69 0.48,0.73 0.94,1.74 1.76,2.12 0.14,0.07 0.3,-0.01 0.31,-0.18z"/>
   <path fill="#F7B682" fill-rule="nonzero" d="M148.06 13.68c0.14,-4.32 0.3,-8.89 -0.2,-13.19 -0.07,-0.64 -0.96,-0.66 -1.01,0 -0.33,4.31 0.02,8.88 0.34,13.19 0.04,0.56 0.86,0.57 0.88,0z"/>
   <path fill="#F7B682" fill-rule="nonzero" d="M153.11 15.75c1.09,-1.6 2.22,-3.2 3.05,-4.95 0.3,-0.62 -0.52,-1.1 -0.92,-0.54 -1.12,1.58 -1.95,3.36 -2.81,5.09 -0.23,0.45 0.39,0.82 0.68,0.4z"/>
   <path fill="#F7B682" fill-rule="nonzero" d="M157.03 19.36c2.15,-0.9 4.17,-2.08 6.21,-3.19 2.02,-1.1 4.28,-2.06 6.03,-3.55 0.36,-0.31 -0.02,-0.94 -0.46,-0.79 -2.06,0.67 -3.92,1.99 -5.79,3.06 -2.12,1.21 -4.3,2.37 -6.28,3.79 -0.31,0.22 -0.13,0.85 0.29,0.68z"/>
   <path fill="#F7B682" fill-rule="nonzero" d="M159.85 24.98c1.58,0.57 4.33,0.14 5.56,-1.04 0.43,-0.41 -0.03,-1.02 -0.54,-0.93 -0.85,0.15 -1.63,0.6 -2.47,0.79 -0.84,0.2 -1.7,0.19 -2.54,0.37 -0.44,0.1 -0.36,0.68 0,0.81z"/>
   <path fill="#F7B682" fill-rule="nonzero" d="M160.5 32.82c6.09,1.52 12.37,3.26 18.59,4.06 0.76,0.1 0.86,-1.09 0.18,-1.29 -5.96,-1.78 -12.37,-2.69 -18.5,-3.75 -0.63,-0.11 -0.92,0.82 -0.27,0.99z"/>
   <path fill="#813787" fill-rule="nonzero" d="M74.26 139.12c0.2,-1.34 0.16,-2.62 0.92,-3.81 1.5,-2.36 3.63,-1.77 5.69,-0.73 2.1,1.06 4.08,1.69 6.36,0.7 3.57,-1.54 5.24,-6.92 1.84,-9.45 -1.1,-0.82 -2.19,0.53 -2.04,1.57 0.2,1.45 0.92,3.04 -0.32,4.28 -1.65,1.66 -3.6,0.27 -5.25,-0.48 -1.79,-0.81 -3.69,-0.98 -5.53,-0.24 -3.17,1.28 -5.47,5.58 -2.95,8.49 0.35,0.41 1.2,0.23 1.29,-0.34z"/>
   <path fill="#FBC681" fill-rule="nonzero" d="M121.1 141.72c4.29,-1.17 8.71,-2.6 12.73,-4.5 1.48,-0.7 0.53,-2.76 -0.98,-2.29 -4.16,1.29 -8.33,3.19 -12.19,5.19 -0.77,0.4 -0.53,1.87 0.44,1.6z"/>
   <path fill="#F0E7F3" fill-rule="nonzero" d="M99.85 146.18c0.9,3.35 1.9,6.67 2.93,9.98 0.25,0.8 1,1.05 1.69,0.58 2.69,-1.83 5.39,-3.63 7.94,-5.66 0.49,-0.39 0.38,-1.18 -0.1,-1.51 -2.99,-2.05 -7.02,-5.08 -10.82,-5.1 -0.96,-0.01 -1.64,1.35 -0.66,1.92 1.53,0.88 3.36,1.2 5,1.88 1.89,0.79 3.76,1.7 5.42,2.89 0.04,-0.55 0.07,-1.1 0.11,-1.65 -2.85,1.76 -5.54,3.73 -8.25,5.69 0.53,0.1 1.07,0.21 1.6,0.32 -1.16,-3.27 -2.34,-6.52 -3.63,-9.75 -0.27,-0.68 -1.43,-0.31 -1.23,0.41z"/>
   <path fill="#813787" fill-rule="nonzero" d="M105.74 179.74c4.43,0.33 9.08,0.46 13.5,0.02 1.62,-0.16 1.42,-2.37 -0.15,-2.44 -4.35,-0.17 -8.91,0.21 -13.22,0.79 -0.87,0.12 -1.12,1.55 -0.12,1.62z"/>
   <path fill="#FEFEFE" fill-rule="nonzero" d="M191.98 78.16l3.1 10.8 4.35 -0.85 -0.43 -2.17 1.23 -0.74 2.33 2.3 7.36 -1.43 0.95 -2.82 -2.09 -0.47 2.7 -0.9 -0.59 -3.02 -2.34 0.2 3.21 -0.88 -0.73 -3.74 -7.48 1.46c0,0 0.48,-5.23 -1.73,-6.93l-1.69 0.33c0,0 0.57,1.64 0.52,2.66 -0.05,1.01 -1.53,5.68 -1.53,5.68l-2.3 1.07 -0.54 -1.52 -4.32 0.97z"/>
   <polygon fill="#E0D3E9" fill-rule="nonzero" points="39.72,57.95 42.23,87.86 97.3,87.86 100.35,98.38 103.56,86.84 114.06,86.23 109.22,59.44 "/>
   <path fill="#FEFEFE" fill-rule="nonzero" d="M46.95 69.02c18.98,-0.8 37.88,-0.76 56.81,0.98 0.68,0.06 0.68,-1.01 0,-1.07 -18.9,-1.43 -37.88,-2 -56.81,-0.83 -0.59,0.04 -0.59,0.94 0,0.92z"/>
   <path fill="#FEFEFE" fill-rule="nonzero" d="M48.06 74.92c18.98,-0.8 37.87,-0.76 56.81,0.98 0.68,0.06 0.68,-1.01 0,-1.06 -18.9,-1.44 -37.88,-2 -56.81,-0.83 -0.59,0.04 -0.59,0.94 0,0.92z"/>
   <path fill="#FEFEFE" fill-rule="nonzero" d="M48.16 79.86c12.74,0.45 25.33,-0.49 38.06,0.64 0.68,0.06 0.68,-1.02 0,-1.07 -12.72,-0.87 -25.34,-0.33 -38.06,-0.5 -0.59,-0.01 -0.59,0.9 0,0.92z"/>
   <path fill="#ED701E" fill-rule="nonzero" d="M284.11 37.23l-96.15 0c-1.48,0 -1.7,-2.14 -0.25,-2.43 3.08,-0.63 6.52,-1.33 9.99,-2.04 1.8,-4.7 6.34,-8.03 11.67,-8.03 1.02,0 2,0.14 2.95,0.37 2.08,-4.01 6.27,-6.75 11.1,-6.75 0.99,0 1.96,0.13 2.89,0.35l-0.02 -0.35c0,-6.91 5.6,-12.51 12.51,-12.51 5.93,0 10.88,4.13 12.17,9.67 1,-0.35 2.07,-0.54 3.19,-0.54 5.4,0 9.78,4.38 9.78,9.78l-0 0.08c4.54,0.5 8.35,3.43 10.1,7.47l10.36 2.54c1.41,0.35 1.16,2.42 -0.29,2.42z"/>
  </g>
 </g>
</svg>
