<svg id="Layer_1" data-name="Layer 1" xmlns="http://www.w3.org/2000/svg" xmlns:xlink="http://www.w3.org/1999/xlink" viewBox="0 0 2822.27 668.37"><defs><style>.cls-1{filter:url(#filter-3);}.cls-2{fill:url(#linear-gradient);}</style><filter id="filter-3" x="-1.6" y="-6" width="103.1" height="113.2" name="filter-3"><feMorphology result="shadowSpreadOuter1" operator="dilate" radius="5.5" in="SourceAlpha"/><feOffset result="shadowOffsetOuter1" dy="4" in="shadowSpreadOuter1"/><feGaussianBlur result="shadowBlurOuter1" stdDeviation="8.5" in="shadowOffsetOuter1"/><feColorMatrix values="0 0 0 0 0.8 0 0 0 0 0.8 0 0 0 0 0.8 0 0 0 0.5 0" in="shadowBlurOuter1"/></filter><linearGradient id="linear-gradient" x1="1939.02" y1="771.04" x2="1939.12" y2="770.15" gradientTransform="matrix(2822.27, 0, 0, -668.37, -5471275.75, 515168.96)" gradientUnits="userSpaceOnUse"><stop offset="0" stop-color="#197067"/><stop offset="1" stop-color="#10a79d"/></linearGradient></defs><title>header</title><g id="Welcome"><g id="Desktop-HD"><g id="Header"><g id="Combined-Shape"><g class="cls-1"><path id="path-2" d="M2046.3,660.44c-12.68-76.7-82.12-140.81-175.3-153a243.75,243.75,0,0,0-98.58,7.38C1759.54,438,1690,374.48,1597,361.93,1543.26,354.54,1491,366,1449.1,390c-22.81-19.94-53-34-87.55-38.4-61.42-8.12-120.28,15.88-153.38,57.6L1193.82,407c-122.12-16.24-236.88,48.74-271.09,148C851,558.35,789.21,604.5,776,668.37H0V0H776V.16H2046.3V0h776V668.37h-776Z"/></g><path id="path-2-2" data-name="path-2" class="cls-2" d="M2046.3,660.44c-12.68-76.7-82.12-140.81-175.3-153a243.75,243.75,0,0,0-98.58,7.38C1759.54,438,1690,374.48,1597,361.93,1543.26,354.54,1491,366,1449.1,390c-22.81-19.94-53-34-87.55-38.4-61.42-8.12-120.28,15.88-153.38,57.6L1193.82,407c-122.12-16.24-236.88,48.74-271.09,148C851,558.35,789.21,604.5,776,668.37H0V0H776V.16H2046.3V0h776V668.37h-776Z"/></g></g></g></g></svg>