<?xml version="1.0" encoding="UTF-8"?>
<svg width="193px" height="160px" viewBox="0 0 193 160" version="1.1" xmlns="http://www.w3.org/2000/svg" xmlns:xlink="http://www.w3.org/1999/xlink">
    <!-- Generator: Sketch 51.1 (57501) - http://www.bohemiancoding.com/sketch -->
    <title>Untitled-2</title>
    <desc>Created with Sketch.</desc>
    <defs></defs>
    <g id="Welcome" stroke="none" stroke-width="1" fill="none" fill-rule="evenodd">
        <g id="Mobile-Portrait" transform="translate(-64.000000, -179.000000)" fill-rule="nonzero">
            <g id="Middle-Image-and-slug" transform="translate(21.000000, 179.000000)">
                <g id="Untitled-2" transform="translate(43.000000, 0.000000)">
                    <g id="Untitled-1">
                        <path d="M77.5607477,156.691729 C77.5607477,158.511278 66.2022949,160 52.1580997,160 C38.1139044,160 26.7554517,158.511278 26.7554517,156.691729 C26.7554517,154.87218 38.1139044,153.383459 52.1580997,153.383459 C66.2022949,153.383459 77.5607477,154.87218 77.5607477,156.691729 Z" id="Shape" fill="#AEE4ED"></path>
                        <ellipse id="Oval" fill="#AEE4ED" cx="167.296729" cy="152.631579" rx="25.703271" ry="2.55639098"></ellipse>
                        <polygon id="Shape" fill="#30C5CC" points="7.81619938 124.197728 4.84384187 124.197728 4.84384187 121.203008 2.97235751 121.203008 2.97235751 124.197728 0 124.197728 0 126.027836 2.97235751 126.027836 2.97235751 129.022556 4.84384187 129.022556 4.84384187 126.027836 7.81619938 126.027836"></polygon>
                        <path d="M10.8224299,118.496241 C10.8224299,119.480519 10.0025489,120.300752 9.01869159,120.300752 C8.03483432,120.300752 7.21495327,119.480519 7.21495327,118.496241 C7.21495327,117.511962 8.03483432,116.691729 9.01869159,116.691729 C10.0025489,116.691729 10.8224299,117.511962 10.8224299,118.496241 Z" id="Shape" fill="#3D9CFF"></path>
                        <path d="M167.301218,142.556391 L24.7969126,142.556391 C19.0810498,142.556391 14.4299065,137.906007 14.4299065,132.191077 L14.4299065,22.094637 C14.4299065,16.3797073 19.0810498,11.7293233 24.7969126,11.7293233 L167.301218,11.7293233 C173.017081,11.7293233 177.668224,16.3797073 177.668224,22.094637 L177.668224,132.191077 C177.612186,137.906007 172.961043,142.556391 167.301218,142.556391 Z" id="Shape" fill="#30C5CC"></path>
                        <path d="M25.9643384,138.045113 C22.2658838,138.045113 19.2398754,135.018728 19.2398754,131.319812 L19.2398754,23.2666537 C19.2398754,19.5677385 22.2658838,16.5413534 25.9643384,16.5413534 L165.833169,16.5413534 C169.531624,16.5413534 172.557632,19.5677385 172.557632,23.2666537 L172.557632,131.319812 C172.557632,135.018728 169.531624,138.045113 165.833169,138.045113 L25.9643384,138.045113 Z" id="Shape" fill="#0B9B9B"></path>
                        <path d="M163.92683,134.736842 L27.5140787,134.736842 C25.1071242,134.736842 23.1479751,132.773785 23.1479751,130.362028 L23.1479751,24.5251896 C23.1479751,22.1134334 25.1071242,20.1503759 27.5140787,20.1503759 L163.982806,20.1503759 C166.389761,20.1503759 168.34891,22.1134334 168.34891,24.5251896 L168.34891,130.418116 C168.292934,132.773785 166.333785,134.736842 163.92683,134.736842 Z" id="Shape" fill="#C6F4FF"></path>
                        <path d="M4.50934579,134.43609 C7.75824906,139.816 13.6958998,143.458647 20.4737842,143.458647 L171.323724,143.458647 C178.045592,143.458647 183.983243,139.816 187.288162,134.43609 L4.50934579,134.43609 Z" id="Shape" fill="#0B9B9B"></path>
                        <path d="M6.47049189,137.142857 L185.327016,137.142857 C186.055442,136.278995 186.727835,135.415134 187.288162,134.43609 L4.50934579,134.43609 C5.125706,135.357543 5.7420662,136.278995 6.47049189,137.142857 Z" id="Shape" fill="#30C5CC"></path>
                        <rect id="Rectangle-path" fill="#DB5A28" x="34.5716511" y="88.1203008" width="40.5841121" height="22.8571429"></rect>
                        <g id="Group" transform="translate(33.369159, 29.774436)" fill="#30C5CC">
                            <rect id="Rectangle-path" x="41.1305246" y="0.186466165" width="15.2978654" height="2.05714286"></rect>
                            <rect id="Rectangle-path" x="21.3497682" y="0.186466165" width="9.30199875" height="2.05714286"></rect>
                            <rect id="Rectangle-path" x="0.0560361371" y="0.186466165" width="18.4919252" height="2.05714286"></rect>
                            <rect id="Rectangle-path" x="33.6216822" y="0.186466165" width="4.03460187" height="2.05714286"></rect>
                            <rect id="Rectangle-path" x="60.2948835" y="0.186466165" width="9.30199875" height="2.05714286"></rect>
                        </g>
                        <g id="Group" transform="translate(33.369159, 35.789474)" fill="#30C5CC">
                            <rect id="Rectangle-path" x="41.2043773" y="0.186466165" width="5.72594888" height="2.05714286"></rect>
                            <rect id="Rectangle-path" x="49.2319331" y="0.186466165" width="5.72594888" height="2.05714286"></rect>
                            <rect id="Rectangle-path" x="11.9009918" y="0.186466165" width="9.31870113" height="2.05714286"></rect>
                            <rect id="Rectangle-path" x="0.0561367538" y="0.186466165" width="9.15029086" height="2.05714286"></rect>
                            <rect id="Rectangle-path" x="23.8019836" y="0.186466165" width="15.3814705" height="2.05714286"></rect>
                        </g>
                        <g id="Group" transform="translate(27.957944, 88.421053)">
                            <path d="M32.2276381,64.5046763 C31.2774999,61.425026 29.3772235,48.3225136 28.9859901,43.1710985 C28.8742091,42.1072193 16.9695362,37.4037533 16.9695362,37.4037533 C9.98322583,37.2357724 6.40623492,39.9794608 6.40623492,39.9794608 L23.1733798,45.6348188 C23.1733798,53.1939605 29.6007854,64.6166636 29.6007854,64.6166636 C29.6007854,64.6726573 32.2276381,64.5046763 32.2276381,64.5046763 Z" id="Shape" fill="#2F2F8E"></path>
                            <path d="M17.8637839,47.1466471 L12.889531,64.5046763 L15.7399456,65.1206064 C16.9695362,61.0330705 24.1235181,47.0346598 24.2911895,45.3548505 C24.34708,44.6269332 24.34708,44.0669968 24.0676276,43.8990158 C23.7881752,43.6750413 15.7958361,38.859588 13.4484358,38.3556452 C10.3185687,37.6277279 5.67965864,36.507855 5.67965864,36.507855 C5.67965864,36.507855 3.05280593,39.1955499 3.55582028,43.6750413 C4.11472511,48.1545327 17.8637839,47.1466471 17.8637839,47.1466471 Z" id="Shape" fill="#4C49A2"></path>
                            <path d="M11.156926,16.6301119 C11.156926,16.6301119 5.67965864,17.1340546 5.4560967,18.5898894 C5.23253477,20.1017177 8.08294941,29.5086497 8.08294941,29.5086497 L5.28842526,36.9558041 C5.28842526,36.9558041 13.1689834,38.9155816 16.9695362,37.4597469 C17.3607696,37.6277279 17.9755649,29.6766306 17.9755649,29.6766306 L19.3169365,25.7570756 L21.0495415,31.6364081 L25.0177658,37.2357724 L27.6446185,35.1080139 L24.7383134,30.0125925 C24.7383134,30.0125925 20.2670747,19.7657559 19.0933746,18.5898894 C16.8577553,16.3501437 11.156926,16.6301119 11.156926,16.6301119 Z" id="Shape" fill="#FFFFFF"></path>
                            <path d="M15.4604932,17.0220674 L15.0133693,11.4227031 L10.933364,11.4227031 L10.933364,16.6861055 C10.4303497,16.7420992 11.4922689,20.9416223 14.7898074,20.9416223 C14.7898074,20.8856287 16.3547409,20.3256923 15.4604932,17.0220674 Z" id="Shape" fill="#E67750"></path>
                            <path d="M7.18870168,26.5409866 C7.69171603,28.2207959 8.02705893,29.5086497 8.02705893,29.5086497 L5.28842526,36.9558041 C5.28842526,36.9558041 11.2687069,38.4116389 15.3487122,37.8517024 C14.9574788,37.5717342 10.1508973,34.3241029 9.92733535,32.9242619 C9.424321,29.9006052 7.18870168,26.5409866 7.18870168,26.5409866 Z" id="Shape" fill="#EFEFEF"></path>
                            <path d="M19.0933746,5.71135155 C18.7580317,4.25551684 16.5224124,3.86356134 12.9454214,4.25551684 C10.5421307,4.53548505 9.98322583,6.77523076 9.92733535,8.3990464 C9.87144487,8.3990464 9.87144487,8.3990464 9.81555439,8.3990464 C8.97719714,8.67901461 8.41829231,9.46292561 8.41829231,10.3588239 C8.41829231,10.806773 8.58596376,11.1987285 8.92130666,11.5346904 C9.25664955,12.0386332 9.7596639,12.374595 10.3744592,12.4865823 C10.5421307,12.4865823 10.7098021,12.4865823 10.8774736,12.4865823 C11.8835023,14.5583471 13.7278882,17.1900483 16.2988504,16.8540864 C20.0994033,14.2783789 19.0933746,5.71135155 19.0933746,5.71135155 Z" id="Shape" fill="#FD9E71"></path>
                            <path d="M10.9892545,9.51891925 C10.9892545,9.51891925 10.2067878,7.6151354 11.9952832,6.32728162 C13.7837787,4.9834342 13.8955597,6.94321169 15.7399456,7.2231799 C17.5843315,7.44715447 19.4287175,7.33516719 19.261046,8.56702732 C20.3788557,5.76734519 18.7580317,4.1995232 16.9136457,3.30362492 C15.0692598,2.40772663 12.2188452,2.07176478 10.2626783,3.69558041 C8.30651134,5.37538969 8.53007327,9.35093832 8.53007327,9.35093832 C9.81555439,8.67901461 10.2067878,9.18295739 10.9892545,9.51891925 Z" id="Shape" fill="#201251"></path>
                            <path d="M10.2626783,3.63958677 C10.2626783,3.63958677 8.64185424,-0.783910997 5.51198719,0.335961856 C2.38212014,1.45583471 3.77938221,7.72712268 3.44403931,10.4708112 C3.10869642,13.2144997 1.15252951,13.3264869 0.425953227,12.0946268 C-0.859527884,14.5583471 4.22650608,17.078061 5.90322057,14.726328 C7.57993506,12.3186014 6.62979685,6.32728162 7.69171603,5.71135155 C8.75363521,5.09542148 9.81555439,5.87933248 9.81555439,5.87933248 L10.2626783,3.63958677 Z" id="Shape" fill="#201251"></path>
                            <path d="M5.56787767,18.0859466 C4.28239656,18.8698576 1.8232153,27.884834 1.8232153,29.3966624 C1.8232153,30.9084907 13.4484358,38.2996516 13.4484358,38.2996516 C13.4484358,38.2996516 14.0073406,36.4518614 15.2369312,36.1158995 C15.0133693,36.0039122 6.57390637,27.9408277 6.57390637,27.9408277 L8.80952569,21.6135461 C8.75363521,21.5575524 8.75363521,16.2381564 5.56787767,18.0859466 Z" id="Shape" fill="#FFFFFF"></path>
                            <polygon id="Shape" fill="#30C5CC" points="12.5541881 39.4195244 24.4029705 39.0835626 32.0599667 41.9392383 19.0933746 42.6111621"></polygon>
                            <polygon id="Shape" fill="#0B9B9B" points="19.0933746 42.6111621 12.5541881 40.0914481 12.5541881 39.4195244 19.5963889 41.995232"></polygon>
                            <polygon id="Shape" fill="#0B9B9B" points="19.0933746 42.6111621 23.0057084 31.9163763 35.91641 32.6442937 32.0599667 42.1632129"></polygon>
                            <path d="M27.0298232,36.6758359 C26.6385898,37.4597469 26.7503708,38.2996516 27.3092756,38.5236261 C27.8122899,38.8035944 28.5947567,38.3556452 28.9859901,37.6277279 C29.3772235,36.8438169 29.2654425,36.0039122 28.7065377,35.7799376 C28.1476328,35.4999694 27.4210566,35.8919249 27.0298232,36.6758359 Z" id="Shape" fill="#30C5CC"></path>
                            <path d="M15.2369312,36.1158995 C15.2369312,36.1158995 19.9317318,39.8674736 19.4287175,40.0914481 C18.9257031,40.3154227 16.8018648,40.3154227 15.6840551,39.6994926 C14.5662454,39.0835626 13.3925453,38.2996516 13.3925453,38.2996516 C13.3925453,38.2996516 13.8396692,36.2278868 15.2369312,36.1158995 Z" id="Shape" fill="#FD9E71"></path>
                            <path d="M15.8517266,64.2807018 C16.6900838,65.1206064 19.5404984,66.4084602 20.9377605,66.744422 C22.4468036,67.1363775 22.1673511,68.3682377 21.105432,68.3682377 C18.9257031,68.3682377 14.1750121,68.0882695 11.7717213,68.0882695 C11.3804879,66.9683966 12.0511737,65.4565682 12.77775,64.4486827 C13.0013119,64.2247081 15.7399456,64.1687145 15.8517266,64.2807018 Z" id="Shape" fill="#201251"></path>
                            <path d="M32.8424334,64.2807018 C33.6807907,65.1206064 36.5312053,66.4084602 37.9284674,66.744422 C39.4375104,67.1363775 39.158058,68.3682377 38.0961388,68.3682377 C35.91641,68.3682377 31.1657189,68.0882695 28.7624282,68.0882695 C28.3711948,66.9683966 29.0418806,65.4565682 29.7684568,64.4486827 C29.9920188,64.2247081 32.674762,64.1687145 32.8424334,64.2807018 Z" id="Shape" fill="#201251"></path>
                        </g>
                        <g id="Group" transform="translate(34.872274, 79.398496)" fill="#31D0A8">
                            <rect id="Rectangle-path" x="0.203435326" y="0" width="11.3693168" height="3.0877193"></rect>
                            <rect id="Rectangle-path" x="29.1587889" y="0" width="11.3693168" height="3.0877193"></rect>
                            <rect id="Rectangle-path" x="14.7091154" y="0" width="11.3693168" height="3.0877193"></rect>
                        </g>
                        <g id="Group" transform="translate(73.051402, 18.646617)">
                            <rect id="Rectangle-path" fill="#FEBA40" transform="translate(19.756003, 11.321818) rotate(-13.774982) translate(-19.756003, -11.321818) " x="1.22903934" y="4.43707252" width="37.0539275" height="13.7694913"></rect>
                            <rect id="Rectangle-path" fill="#FEDB9B" transform="translate(15.953972, 8.058298) rotate(-13.774982) translate(-15.953972, -8.058298) " x="2.28928826" y="7.11059982" width="27.3293673" height="1.89539556"></rect>
                            <rect id="Rectangle-path" fill="#FEDB9B" transform="translate(14.523131, 11.862571) rotate(-13.774982) translate(-14.523131, -11.862571) " x="3.12192239" y="10.914873" width="22.8024169" height="1.89539556"></rect>
                            <rect id="Rectangle-path" fill="#FEDB9B" transform="translate(9.602276, 16.875577) rotate(-13.774982) translate(-9.602276, -16.875577) " x="4.18111278" y="15.9278793" width="10.8423257" height="1.89539556"></rect>
                            <rect id="Rectangle-path" fill="#FFFFFF" transform="translate(29.555061, 8.231245) rotate(-13.774982) translate(-29.555061, -8.231245) " x="26.6488703" y="7.28354755" width="5.81238078" height="1.89539556"></rect>
                        </g>
                        <rect id="Rectangle-path" fill="#FFFFFF" x="34.5716511" y="42.7067669" width="40.5841121" height="33.0827068"></rect>
                        <g id="Group" transform="translate(77.861371, 61.654135)">
                            <rect id="Rectangle-path" fill="#4CB0DD" x="0.202920561" y="0.146079484" width="79.6158403" height="14.8571429"></rect>
                            <rect id="Rectangle-path" fill="#FFFFFF" x="55.8724645" y="2.32438238" width="21.5404768" height="10.556391"></rect>
                            <rect id="Rectangle-path" fill="#75D5EF" x="3.11228366" y="2.93877551" width="49.7948685" height="2.01074114"></rect>
                            <rect id="Rectangle-path" fill="#75D5EF" x="3.11228366" y="6.56928034" width="49.7948685" height="2.01074114"></rect>
                            <rect id="Rectangle-path" fill="#75D5EF" x="3.11228366" y="10.1997852" width="33.513625" height="2.01074114"></rect>
                        </g>
                        <g id="Group" transform="translate(77.861371, 87.218045)">
                            <g id="Rectangle-path">
                                <rect fill="#FFFFFF" x="0.203247325" y="0.279930596" width="76.5323118" height="35.9430885"></rect>
                                <rect fill="#FDBE44" x="0.203247325" y="0.279930596" width="76.5323118" height="5.93452863"></rect>
                                <rect fill="#98DBE5" x="2.05077204" y="14.6683632" width="44.2286221" height="3.02325043"></rect>
                                <rect fill="#98DBE5" x="2.05077204" y="20.0430307" width="39.6378031" height="3.02325043"></rect>
                                <rect fill="#98DBE5" x="2.05077204" y="25.4736842" width="26.7611156" height="3.02325043"></rect>
                                <rect fill="#98DBE5" x="2.05077204" y="9.68559861" width="15.9558953" height="3.02325043"></rect>
                            </g>
                            <g transform="translate(50.387038, 9.517640)">
                                <rect id="Rectangle-path" fill="#86D2E8" x="0.203247325" y="0.0559861191" width="23.1220518" height="23.1222672"></rect>
                                <path d="M14.0876755,11.4771544 C14.4235891,10.9732794 14.6475315,10.357432 14.6475315,9.74158473 L14.6475315,7.95002892 C14.6475315,6.32643146 13.3038772,4.9827646 11.6802948,4.9827646 C10.0567125,4.9827646 8.71305815,6.32643146 8.71305815,7.95002892 L8.71305815,9.74158473 C8.71305815,10.4134182 8.93700054,11.0852516 9.32889972,11.5891267 C6.64159104,12.5408907 4.68209513,15.1162522 4.68209513,18.1395026 L19.2383505,18.1395026 C19.3503217,18.0835165 18.7904657,12.8208213 14.0876755,11.4771544 Z" id="Shape" fill="#F6FFFA"></path>
                            </g>
                            <g transform="translate(2.498657, 1.679584)" id="Oval">
                                <ellipse fill="#DB5A28" cx="1.67956793" cy="1.67958357" rx="1.51161113" ry="1.51162522"></ellipse>
                                <ellipse fill="#FFE780" cx="6.49432932" cy="1.67958357" rx="1.51161113" ry="1.51162522"></ellipse>
                                <ellipse fill="#1FB288" cx="12.0369035" cy="1.67958357" rx="1.51161113" ry="1.51162522"></ellipse>
                            </g>
                        </g>
                        <rect id="Rectangle-path" fill="#DB5A28" x="128.666667" y="28.5714286" width="26.7554517" height="26.7669173"></rect>
                        <g id="Group" transform="translate(148.507788, 55.338346)">
                            <path d="M17.7031083,92.4594244 C17.7031083,92.4594244 17.9274539,93.1874514 15.796171,94.1394866 C13.6088018,95.147524 11.3653462,94.7555095 10.8044823,95.5955406 C10.2436184,96.4355717 10.1314456,97.2196007 10.1314456,97.2196007 L22.4704515,97.2196007 C22.4704515,97.2196007 22.3582787,93.8034742 20.9561189,92.2914182 C21.0682917,92.6274306 17.7031083,92.4594244 17.7031083,92.4594244 Z" id="Shape" fill="#9E472D"></path>
                            <path d="M31.163842,92.4034223 C31.163842,92.4034223 31.3881876,93.0754472 29.3129911,94.0274825 C27.2377947,94.9795178 25.0504254,94.6435053 24.4895615,95.4275344 C23.9286976,96.2115634 23.8165249,96.9955924 23.8165249,96.9955924 L35.6507532,96.9955924 C35.6507532,96.9955924 35.5385805,93.7474721 34.1925071,92.2914182 C34.3607663,92.6274306 31.163842,92.4034223 31.163842,92.4034223 Z" id="Shape" fill="#9E472D"></path>
                            <polygon id="Shape" fill="#FFFFFF" points="15.2913935 27.7210267 6.31757102 29.2890848 0.0358952899 15.848587 9.68275445 15.0645579"></polygon>
                            <path d="M4.13635538,26.3209749 C4.13635538,26.3209749 4.13635538,26.3209749 4.13635538,26.3209749 C4.07206421,26.3850825 4.07206421,26.3850825 4.13635538,26.3209749 Z" id="Shape" fill="#262845"></path>
                            <path d="M21.4608965,2.46409126 C21.4608965,2.46409126 20.2830823,4.81617838 20.2830823,7.00025927 C20.2830823,8.51231527 20.4513414,10.6963962 20.5635142,11.8724397 C20.6196006,12.3204563 21.0122053,12.6004667 21.4608965,12.4324605 L23.1995746,11.8724397 L23.0874018,14.4485351 L28.0230041,14.336531 L29.0886456,4.03214934 C29.1447319,4.03214934 25.0504254,-0.504018667 21.4608965,2.46409126 Z" id="Shape" fill="#FD9E71"></path>
                            <path d="M21.8535012,7.89629246 C21.8535012,7.89629246 22.1339331,5.82421571 23.6482657,6.2722323 C25.2186846,6.7202489 23.4239201,8.73632357 23.4239201,8.73632357 L24.8821663,11.3684211 C25.9478077,11.7604356 27.1817083,11.7604356 28.3034361,11.2564169 C28.3034361,11.2564169 29.9299414,6.2722323 29.9299414,4.70417423 C29.9299414,3.13611615 28.4716953,2.07207674 28.4716953,2.07207674 C28.4716953,2.07207674 24.6017343,0.168006222 22.5826243,0.280010371 C20.5074278,0.392014519 20.3391686,2.46409126 20.3391686,2.46409126 C20.3391686,2.46409126 19.5539592,4.03214934 20.3391686,4.70417423 C21.1804645,5.43220119 21.8535012,7.89629246 21.8535012,7.89629246 Z" id="Shape" fill="#201251"></path>
                            <path d="M28.3034361,12.9364791 L28.0790905,14.336531 L22.975229,14.336531 C22.975229,14.3925331 23.984784,12.824475 28.3034361,12.9364791 Z" id="Shape" fill="#6AA5CC"></path>
                            <path d="M6.54191659,25.64895 C6.54191659,25.64895 6.87843493,24.5289085 5.47627517,23.8568836 C5.53236156,23.5768732 5.19584321,22.2888255 4.85932487,22.0088151 C4.57889292,21.7288048 4.35454736,23.408867 4.35454736,23.408867 C4.35454736,23.408867 2.95238759,20.8887737 2.55978286,21.5607985 C2.22326452,22.1768214 5.75670712,27.1050039 5.81279351,27.3290122 C5.98105268,27.4970184 6.54191659,25.64895 6.54191659,25.64895 Z" id="Shape" fill="#FD9E71"></path>
                            <path d="M19.7783047,41.8335494 L16.3570349,70.6186155 L17.086158,92.9634431 L21.4048101,92.6834327 C21.4048101,92.6834327 22.6387107,80.9229971 22.694797,78.0108893 C22.8069698,75.0427794 21.9095876,70.5626134 21.9095876,70.5626134 L26.2282396,52.7539539 L26.9573627,52.865958 L27.1817083,70.3946072 L31.1077556,92.6834327 L34.6972846,92.8514389 C34.6972846,92.8514389 34.8094574,81.3710137 34.472939,78.514908 C34.1925071,75.6588022 32.6220882,69.9465906 32.6220882,69.9465906 L34.1925071,51.8019186 C34.1925071,51.8019186 35.762926,47.0417423 32.9586065,41.6655432 C32.6220882,41.6655432 19.7783047,41.8335494 19.7783047,41.8335494 Z" id="Shape" fill="#201251"></path>
                            <path d="M22.975229,14.3925331 C22.975229,14.3925331 16.8618124,16.3526057 15.7400846,17.4726471 C14.6183568,18.5926886 11.4214326,30.0731138 11.4214326,30.0731138 L6.59800298,25.2569354 L5.08367043,28.729064 C5.08367043,28.729064 10.7483959,37.1293752 12.487074,37.3533835 C14.2818385,37.6333938 18.2639722,26.7689914 18.2639722,26.7689914 C18.2639722,26.7689914 18.6004905,32.7052113 19.3296136,35.6733212 C20.1148231,39.0894478 19.7222183,41.8335494 19.7222183,41.8335494 C25.1625982,42.8415867 29.8177686,42.6175784 32.9025201,41.6095411 L34.4168527,30.185118 C34.4168527,30.185118 36.4920491,30.4091263 37.1650858,29.6810993 C37.8381225,28.9530723 34.8094574,17.1366347 34.1364207,16.1845994 C33.463384,15.2325642 28.0230041,14.336531 28.0230041,14.336531 L22.975229,14.3925331 Z" id="Shape" fill="#96C4EA"></path>
                            <path d="M28.9203864,22.2328234 C28.8643,22.0088151 28.5277817,22.0648172 28.5277817,22.2888255 C28.6960408,27.217008 28.5277817,32.0331864 27.7425722,36.9053669 C27.6864858,37.2413793 28.1912633,37.4093855 28.2473497,37.017371 C29.3129911,32.2011926 29.5934231,27.161006 28.9203864,22.2328234 Z" id="Shape" fill="#6AA5CC"></path>
                            <path d="M34.5290254,25.8729583 C34.472939,25.704952 34.2485935,25.7609541 34.2485935,25.9289603 C34.1925071,28.7850661 33.8559887,31.5291677 33.2951248,34.3852735 C32.7903473,36.9053669 32.3416562,39.4254602 32.5099154,41.9455535 C32.5099154,42.281566 33.0707793,42.3375681 33.0707793,41.9455535 C32.9586065,38.9774436 33.5755568,36.1213378 34.0803343,33.20923 C34.5290254,30.8571429 35.0338029,28.3370495 34.5290254,25.8729583 Z" id="Shape" fill="#6AA5CC"></path>
                            <path d="M18.8809225,25.8169562 C17.2544172,26.8809956 16.6374669,28.8970703 16.0205166,30.6331346 C15.1792207,32.9852217 14.3379249,35.2813067 12.487074,37.017371 C12.206642,37.2973814 12.5992468,37.6893959 12.8796787,37.4093855 C16.3009485,34.3292715 16.1326894,29.3450869 19.0491817,25.9849624 C19.1052681,25.8729583 19.0491817,25.704952 18.8809225,25.8169562 Z" id="Shape" fill="#6AA5CC"></path>
                            <path d="M33.0146929,40.76951 C33.0146929,40.76951 24.7699935,41.8335494 19.7783047,40.2654913 C19.8904775,40.2654913 19.7783047,41.8335494 19.7783047,41.8335494 C19.7783047,41.8335494 26.1160669,44.1856365 33.4072976,42.3375681 C33.3512112,42.3375681 33.0146929,40.76951 33.0146929,40.76951 Z" id="Shape" fill="#9E472D"></path>
                        </g>
                        <g id="Group" transform="translate(82.070093, 28.270677)">
                            <path d="M14.0290758,101.215579 C14.0290758,101.215579 13.3556802,102.727931 12.1772378,102.951983 C10.9987954,103.176035 7.91239875,103.904205 7.40735202,104.296296 C6.9023053,104.744401 6.9023053,105.864662 6.9023053,105.864662 L16.7787747,105.864662 C16.7787747,105.864662 16.7787747,102.89597 16.1614953,101.327605 C16.3859605,101.327605 14.0290758,101.215579 14.0290758,101.215579 Z" id="Shape" fill="#1A133A"></path>
                            <path d="M33.0525026,101.215579 C33.0525026,101.215579 32.379107,102.727931 31.2006646,102.951983 C30.0222222,103.176035 26.9358255,103.904205 26.4307788,104.296296 C25.9257321,104.744401 25.9257321,105.864662 25.9257321,105.864662 L35.8022015,105.864662 C35.8022015,105.864662 35.8022015,102.89597 35.1849221,101.327605 C35.4093873,101.327605 33.0525026,101.215579 33.0525026,101.215579 Z" id="Shape" fill="#1A133A"></path>
                            <path d="M31.8740602,4.36901778 C31.8740602,4.36901778 29.1243614,3.64084815 28.9560125,4.08895254 C28.7876636,4.53705693 33.2208515,5.82535704 33.2208515,5.82535704 L37.205109,16.8599276 L35.6899688,20.3887497 L38.4396677,23.3574412 C38.4396677,23.3574412 41.4138318,19.3245017 41.6944133,18.1482277 C41.9188785,16.9719537 34.6237591,5.09718741 34.6237591,5.09718741 C34.6237591,5.09718741 33.1647352,0.504117436 32.94027,0.280065242 C32.7158048,0.0560130485 30.0783385,0.224052194 29.5171755,0.224052194 C28.8998962,0.224052194 31.2567809,2.57660023 31.2567809,2.57660023 L31.8740602,4.36901778 Z" id="Shape" fill="#E79673"></path>
                            <path d="M21.1558463,12.4909098 C21.1558463,12.4909098 19.8651713,14.3393404 19.5845898,16.2997971 C19.3040083,18.2602538 19.6968224,20.1086844 19.6968224,20.1086844 L22.1098235,20.0526714 L22.1098235,22.2931933 L26.8797092,22.2931933 C26.8797092,22.2931933 26.9919418,20.6128018 27.1602908,19.66058 C27.3286397,18.7083582 28.6754309,16.9719537 28.6754309,16.9719537 L26.5430114,10.9225445 L23.4566147,10.6424792 L21.1558463,12.4909098 Z" id="Shape" fill="#E79673"></path>
                            <path d="M22.390405,15.3475753 C22.390405,15.3475753 23.2321495,13.3871186 24.242243,14.1152882 C25.2523364,14.8434579 23.9616615,16.4678363 23.9616615,16.4678363 C23.9616615,16.4678363 24.6350571,19.1564626 25.7573832,19.5485539 C26.8797092,19.9406453 26.8797092,19.9406453 26.8797092,19.9406453 C26.8797092,19.9406453 29.797757,17.2520189 30.2466874,16.4678363 C30.6956179,15.7396666 29.5171755,11.4266619 28.6754309,10.5304531 C27.8336864,9.57823129 24.1861267,9.69025739 23.9055452,9.242153 C23.6249637,8.79404861 22.6709865,7.95385289 21.7731256,8.28993118 C20.8752648,8.62600947 21.0436137,11.7627402 21.0436137,11.7627402 C21.0436137,11.7627402 22.2220561,12.7709751 22.2781724,13.4431316 C22.3342887,14.1713013 21.829242,15.1235231 21.829242,15.1235231 L22.390405,15.3475753 Z" id="Shape" fill="#201251"></path>
                            <path d="M17.8449844,22.4052194 C17.8449844,22.4052194 22.6148702,21.7330628 25.3645691,21.6210367 C28.1142679,21.5650237 32.4352233,22.9653499 32.4352233,22.9653499 L35.5777362,19.604567 L39.6181101,23.4134543 C39.6181101,23.4134543 36.1950156,28.4546286 35.0726895,29.6309027 C33.9503634,30.8071767 33.1647352,36.3524685 32.8841537,38.0328599 C32.6596885,39.7132514 31.9862928,49.5155349 31.9862928,49.5155349 C31.9862928,49.5155349 29.0682451,52.9883439 17.0593562,49.1794566 C16.9471236,49.0674305 17.5644029,41.9537733 17.5082866,40.2173688 C17.4521703,38.4809643 15.8809138,32.5995942 15.6003323,31.143255 C15.2636345,29.7429288 10.3253998,26.8302502 10.3253998,26.8302502 C10.3253998,26.8302502 9.70812046,23.3574412 12.0088889,21.6770498 C12.3455867,21.957115 17.8449844,22.4052194 17.8449844,22.4052194 Z" id="Shape" fill="#201251"></path>
                            <path d="M6.73395639,8.17790508 C6.73395639,8.17790508 4.93823468,9.85829653 4.82600208,10.5304531 C4.71376947,11.2026097 7.29511942,18.9884234 7.29511942,18.9884234 L12.0650052,21.7890759 L10.3815161,26.9422763 C10.3815161,26.9422763 5.2188162,23.3574412 4.43318795,22.2931933 C3.70367601,21.2289454 2.35688474,10.6984923 2.35688474,10.6984923 C2.35688474,10.6984923 0.673395639,8.56999642 0.561163032,8.00986593 C0.448930426,7.44973545 0.0561163032,5.60130485 0.336697819,5.26522656 C0.617279335,4.92914827 2.52523364,2.91267852 2.80581516,3.52882206 C3.08639668,4.14496559 4.09649013,8.40195727 4.09649013,8.40195727 C4.09649013,8.40195727 6.34114226,7.44973545 6.73395639,8.17790508 Z" id="Shape" fill="#E79673"></path>
                            <path d="M17.1154725,49.2354696 L14.4218899,74.6653936 L13.0189823,101.663683 L17.6766355,101.831722 C17.6766355,101.831722 20.5946833,83.9075466 20.5946833,81.1629073 C20.6507996,78.4182679 20.538567,75.1695111 20.538567,75.1695111 L23.512731,61.5583403 L25.1962201,61.5583403 L28.6754309,79.2584636 L32.210758,101.215579 L35.9705504,101.383618 C35.9705504,101.383618 36.5317134,87.7164339 35.9705504,84.9157815 C35.4093873,82.1151291 34.5676428,79.4265028 34.5676428,79.4265028 L32.8841537,61.0542229 C32.8841537,61.0542229 34.3992939,54.5567092 32.0424091,49.4035088 C31.5934787,48.6193261 17.1154725,49.2354696 17.1154725,49.2354696 Z" id="Shape" fill="#4C49A2"></path>
                        </g>
                        <polygon id="Shape" fill="#FDBE44" points="70.6464174 48.3871651 67.6529794 48.3871651 67.6529794 45.4135338 65.8236561 45.4135338 65.8236561 48.3871651 62.8302181 48.3871651 62.8302181 50.2594514 65.8236561 50.2594514 65.8236561 53.2330827 67.6529794 53.2330827 67.6529794 50.2594514 70.6464174 50.2594514"></polygon>
                        <path d="M42.7163825,71.8796992 C40.0413207,71.8796992 37.8785047,69.7708557 37.8785047,67.2180451 C37.8785047,64.6097386 40.0413207,62.556391 42.7163825,62.556391 C45.3914444,62.556391 47.4973442,64.6652345 47.4973442,67.2180451 C47.5542604,69.7708557 45.3914444,71.8796992 42.7163825,71.8796992 Z M42.7163825,64.9427139 C41.4642259,64.9427139 40.4397341,65.9416398 40.4397341,67.1625492 C40.4397341,68.3834586 41.4642259,69.3823845 42.7163825,69.3823845 C43.9685392,69.3823845 44.993031,68.3834586 44.993031,67.1625492 C45.0499472,65.9416398 44.0254554,64.9427139 42.7163825,64.9427139 Z" id="Shape" fill="#30C5CC"></path>
                        <polygon id="Shape" fill="#30C5CC" points="187.889408 28.537541 184.89597 28.537541 184.89597 25.5639098 183.066647 25.5639098 183.066647 28.537541 180.073209 28.537541 180.073209 30.4098274 183.066647 30.4098274 183.066647 33.3834586 184.89597 33.3834586 184.89597 30.4098274 187.889408 30.4098274"></polygon>
                        <path d="M172.858255,7.81954887 C172.858255,8.80382775 172.038374,9.62406015 171.054517,9.62406015 C170.07066,9.62406015 169.250779,8.80382775 169.250779,7.81954887 C169.250779,6.83526999 170.07066,6.01503759 171.054517,6.01503759 C172.038374,6.01503759 172.858255,6.83526999 172.858255,7.81954887 Z" id="Shape" fill="#3D9CFF"></path>
                        <path d="M136.510775,40.6015038 C133.835713,40.6015038 131.672897,38.4926602 131.672897,35.9398496 C131.672897,33.3315431 133.835713,31.2781955 136.510775,31.2781955 C139.185837,31.2781955 141.291737,33.387039 141.291737,35.9398496 C141.348653,38.4926602 139.185837,40.6015038 136.510775,40.6015038 Z M136.510775,33.6645184 C135.258618,33.6645184 134.234127,34.6634443 134.234127,35.8843537 C134.234127,37.1052632 135.258618,38.104189 136.510775,38.104189 C137.762932,38.104189 138.787423,37.1052632 138.787423,35.8843537 C138.84434,34.7189402 137.819848,33.6645184 136.510775,33.6645184 Z" id="Shape" fill="#FEBA40"></path>
                        <path d="M161.763112,9.32330827 C159.08805,9.32330827 156.925234,7.21446473 156.925234,4.66165414 C156.925234,2.05334765 159.08805,0 161.763112,0 C164.438173,0 166.544073,2.10884354 166.544073,4.66165414 C166.600989,7.21446473 164.438173,9.32330827 161.763112,9.32330827 Z M161.763112,2.38632295 C160.510955,2.38632295 159.486463,3.38524884 159.486463,4.60615825 C159.486463,5.82706767 160.510955,6.82599356 161.763112,6.82599356 C163.015268,6.82599356 164.03976,5.82706767 164.03976,4.60615825 C164.096676,3.38524884 163.072184,2.38632295 161.763112,2.38632295 Z" id="Shape" fill="#FEBA40"></path>
                    </g>
                </g>
            </g>
        </g>
    </g>
</svg>