<svg width="32" height="32" viewBox="0 0 32 32" fill="none" xmlns="http://www.w3.org/2000/svg">
<g clip-path="url(#clip0)">
<path d="M21.0946 31.1669C20.928 31.2232 20.7603 31.2778 20.5914 31.328C20.7608 31.2772 20.928 31.2226 21.0946 31.1669Z" fill="#F9EDE0"/>
<path d="M21.9305 30.8601C21.7506 30.9319 21.5707 31.0025 21.3876 31.0676C21.5707 31.0019 21.7512 30.9319 21.9305 30.8601Z" fill="#F9EDE0"/>
<path d="M16 32C24.8366 32 32 24.8366 32 16C32 7.16344 24.8366 0 16 0C7.16344 0 0 7.16344 0 16C0 24.8366 7.16344 32 16 32Z" fill="#EFECE8"/>
<path d="M20.2687 31.4196C20.1054 31.4648 19.941 31.5079 19.7749 31.5481C19.941 31.5079 20.1054 31.4648 20.2687 31.4196Z" fill="#F9EDE0"/>
<path d="M14.8408 31.9537C14.6455 31.9399 14.4507 31.925 14.2582 31.904C14.4513 31.925 14.646 31.9399 14.8408 31.9537Z" fill="#F9EDE0"/>
<path d="M12.2246 31.5476C12.0591 31.5073 11.8946 31.4643 11.7308 31.419C11.8946 31.4648 12.0591 31.5079 12.2246 31.5476Z" fill="#F9EDE0"/>
<path d="M13.9272 31.8621C13.7523 31.8395 13.5779 31.8157 13.4047 31.7876C13.5774 31.8157 13.7523 31.8389 13.9272 31.8621Z" fill="#F9EDE0"/>
<path d="M16 32C15.7054 32 15.4135 31.9906 15.1227 31.9752C15.4135 31.9906 15.7054 32 16 32Z" fill="#F9EDE0"/>
<path d="M13.0632 31.7264C12.8954 31.6955 12.7283 31.6624 12.5627 31.6259C12.7283 31.6624 12.8954 31.6955 13.0632 31.7264Z" fill="#F9EDE0"/>
<path d="M9.83134 30.7657C9.58252 30.6614 9.33645 30.5521 9.09424 30.4363C9.337 30.5521 9.58307 30.6619 9.83134 30.7657Z" fill="#F9EDE0"/>
<path d="M10.6119 31.0676C10.4292 31.0019 10.2488 30.9319 10.069 30.8602C10.2488 30.9319 10.4292 31.0019 10.6119 31.0676Z" fill="#F9EDE0"/>
<path d="M16.8772 31.9752C16.5865 31.9906 16.2946 32 16 32C16.2946 32 16.5865 31.9906 16.8772 31.9752Z" fill="#F9EDE0"/>
<path d="M17.7418 31.904C17.5487 31.925 17.3539 31.9399 17.1592 31.9537C17.3539 31.9399 17.5487 31.925 17.7418 31.904Z" fill="#F9EDE0"/>
<path d="M19.4378 31.6259C19.2717 31.6624 19.1051 31.6955 18.9374 31.7264C19.1046 31.6955 19.2717 31.6624 19.4378 31.6259Z" fill="#F9EDE0"/>
<path d="M18.5958 31.787C18.4226 31.8152 18.2483 31.8389 18.0734 31.8615C18.2477 31.8389 18.4226 31.8157 18.5958 31.787Z" fill="#F9EDE0"/>
<path d="M22.8988 30.4392C22.6577 30.5545 22.4127 30.6637 22.165 30.7674C22.4127 30.6637 22.6577 30.555 22.8988 30.4392Z" fill="#F9EDE0"/>
<path d="M11.4085 31.328C11.2391 31.2772 11.072 31.2226 10.9053 31.1669C11.072 31.2226 11.2391 31.2772 11.4085 31.328Z" fill="#F9EDE0"/>
<path d="M22.1649 30.7675C22.0877 30.8 22.0088 30.8287 21.931 30.8596C22.0083 30.8287 22.0872 30.8 22.1649 30.7675Z" fill="#F9EDE0"/>
<path d="M22.9163 30.4292C22.9106 30.4319 22.9045 30.4345 22.8987 30.4372C22.9045 30.4345 22.9106 30.4323 22.9163 30.4292Z" fill="#F9EDE0"/>
<path d="M12.5622 31.6259C12.4491 31.6011 12.3365 31.5752 12.2245 31.5481C12.3365 31.5752 12.4491 31.6011 12.5622 31.6259Z" fill="#F9EDE0"/>
<path d="M13.4041 31.787C13.2899 31.7683 13.1762 31.7473 13.0626 31.7264C13.1768 31.7473 13.2899 31.7688 13.4041 31.787Z" fill="#F9EDE0"/>
<path d="M15.1227 31.9752C15.0283 31.9702 14.9346 31.9603 14.8408 31.9537C14.9351 31.9603 15.0283 31.9702 15.1227 31.9752Z" fill="#F9EDE0"/>
<path d="M14.2582 31.904C14.1473 31.8919 14.0375 31.8764 13.9272 31.8621C14.0375 31.8764 14.1473 31.8919 14.2582 31.904Z" fill="#F9EDE0"/>
<path d="M9.09465 30.437C9.08982 30.4348 9.08454 30.4326 9.07971 30.4304C9.08454 30.4326 9.08982 30.4348 9.09465 30.437Z" fill="#F9EDE0"/>
<path d="M17.1592 31.9537C17.0648 31.9603 16.9716 31.9702 16.8773 31.9752C16.9716 31.9702 17.0648 31.9603 17.1592 31.9537Z" fill="#F9EDE0"/>
<path d="M20.5914 31.328C20.4844 31.36 20.3768 31.3898 20.2687 31.4196C20.3768 31.3898 20.4844 31.36 20.5914 31.328Z" fill="#F9EDE0"/>
<path d="M21.3881 31.0676C21.291 31.1024 21.1928 31.1338 21.0952 31.1669C21.1928 31.1338 21.291 31.1024 21.3881 31.0676Z" fill="#F9EDE0"/>
<path d="M10.0695 30.8602C9.99171 30.8293 9.91281 30.8 9.83557 30.768C9.91281 30.8 9.99171 30.8287 10.0695 30.8602Z" fill="#F9EDE0"/>
<path d="M10.9053 31.1669C10.8077 31.1338 10.7089 31.1024 10.6124 31.0676C10.7089 31.1024 10.8071 31.1338 10.9053 31.1669Z" fill="#F9EDE0"/>
<path d="M18.0729 31.8621C17.9625 31.8764 17.8527 31.8924 17.7418 31.904C17.8527 31.8919 17.9625 31.8764 18.0729 31.8621Z" fill="#F9EDE0"/>
<path d="M19.7755 31.5476C19.6635 31.5746 19.5509 31.6006 19.4378 31.6254C19.5509 31.6011 19.6635 31.5752 19.7755 31.5476Z" fill="#F9EDE0"/>
<path d="M18.9369 31.7264C18.8232 31.7473 18.7101 31.7688 18.5953 31.787C18.7101 31.7688 18.8232 31.7473 18.9369 31.7264Z" fill="#F9EDE0"/>
<path d="M11.7313 31.4196C11.6237 31.3898 11.5155 31.36 11.4085 31.328C11.5155 31.36 11.6231 31.3898 11.7313 31.4196Z" fill="#F9EDE0"/>
<path d="M19.6623 17.1001C21.445 15.9134 22.6207 13.888 22.6207 11.5862C22.6207 7.92993 19.6563 4.96552 16 4.96552C12.3437 4.96552 9.37931 7.92993 9.37931 11.5862C9.37931 13.888 10.555 15.9134 12.3377 17.1001C12.3377 17.1001 12.3382 17.1007 12.3388 17.1007C12.3382 17.1007 12.3382 17.1001 12.3382 17.1001C8.07117 18.3862 4.74869 21.8494 3.67889 26.2063L3.67945 26.2069C3.85379 26.4171 4.03476 26.6223 4.21958 26.8237C4.26427 26.8728 4.31117 26.9197 4.35696 26.9677C4.49931 27.1189 4.64331 27.2679 4.79117 27.4135C4.85241 27.4737 4.91476 27.5316 4.9771 27.5906C5.11393 27.7208 5.25241 27.8494 5.39365 27.9746C5.46372 28.0364 5.53489 28.0977 5.60551 28.1583C5.744 28.277 5.88414 28.3934 6.02703 28.507C6.10207 28.5672 6.17765 28.6262 6.25324 28.6852C6.39779 28.7967 6.54455 28.9048 6.69296 29.0108C6.76965 29.0654 6.84524 29.1211 6.92303 29.1746C7.07972 29.2828 7.23917 29.3865 7.39972 29.4891C7.472 29.5349 7.54262 29.5823 7.61545 29.6276C7.80082 29.7418 7.98951 29.851 8.17986 29.9581C8.23007 29.9862 8.27917 30.0166 8.32993 30.0441C8.576 30.1788 8.82593 30.3079 9.07972 30.4298C9.08579 30.4325 9.09241 30.4353 9.09848 30.4381C9.34069 30.5539 9.58676 30.6637 9.83558 30.7674C9.91282 30.8 9.99172 30.8287 10.0695 30.8596C10.2494 30.9313 10.4292 31.0019 10.6124 31.067C10.7095 31.1018 10.8077 31.1332 10.9054 31.1663C11.072 31.2226 11.2397 31.2772 11.4085 31.3274C11.5156 31.3594 11.6232 31.3892 11.7313 31.419C11.8946 31.4643 12.059 31.5073 12.2251 31.5476C12.3371 31.5746 12.4497 31.6005 12.5628 31.6254C12.7288 31.6618 12.8954 31.6949 13.0632 31.7258C13.1768 31.7468 13.2899 31.7683 13.4047 31.7865C13.5779 31.8146 13.7523 31.8383 13.9272 31.861C14.0375 31.8753 14.1473 31.8913 14.2582 31.9029C14.4513 31.9239 14.6461 31.9388 14.8408 31.9526C14.9352 31.9592 15.0284 31.9691 15.1228 31.9741C15.4135 31.9906 15.7054 32 16 32C16.2946 32 16.5865 31.9906 16.8772 31.9752C16.9716 31.9702 17.0654 31.9603 17.1592 31.9537C17.3545 31.9399 17.5492 31.925 17.7418 31.904C17.8527 31.8919 17.9625 31.8764 18.0728 31.8621C18.2477 31.8394 18.4221 31.8157 18.5953 31.7876C18.7095 31.7688 18.8232 31.7479 18.9368 31.7269C19.1045 31.696 19.2717 31.6629 19.4372 31.6265C19.5503 31.6017 19.6629 31.5757 19.7749 31.5487C19.9404 31.5084 20.1048 31.4654 20.2687 31.4201C20.3763 31.3903 20.4844 31.3605 20.5914 31.3286C20.7608 31.2778 20.928 31.2232 21.0946 31.1674C21.1923 31.1343 21.291 31.1029 21.3876 31.0681C21.5702 31.0025 21.7506 30.9324 21.9305 30.8607C22.0083 30.8298 22.0872 30.8006 22.1644 30.7686C22.4121 30.6648 22.6571 30.5561 22.8982 30.4403C22.9054 30.437 22.9131 30.4337 22.9203 30.4303C23.1741 30.3084 23.424 30.1793 23.6701 30.0447C23.7208 30.0171 23.7699 29.9868 23.8201 29.9586C24.0105 29.8516 24.1992 29.7423 24.3845 29.6281C24.4574 29.5834 24.5285 29.536 24.6003 29.4897C24.7608 29.387 24.9203 29.2828 25.077 29.1752C25.1542 29.1217 25.2303 29.0665 25.307 29.0113C25.4554 28.9048 25.6022 28.7967 25.7468 28.6858C25.8229 28.6273 25.8979 28.5677 25.973 28.5076C26.1153 28.3939 26.256 28.2775 26.3945 28.1589C26.4657 28.0982 26.5368 28.037 26.6063 27.9752C26.7476 27.8499 26.8861 27.7214 27.0229 27.5912C27.0847 27.5321 27.1476 27.4737 27.2088 27.4141C27.3567 27.2684 27.5012 27.1194 27.643 26.9683C27.6883 26.9197 27.7352 26.8728 27.7804 26.8243C27.9652 26.6229 28.1462 26.4177 28.3205 26.2074L28.3211 26.2069C27.2519 21.8494 23.9294 18.3862 19.6623 17.1001Z" fill="#C6C3BD"/>
</g>
<defs>
<clipPath id="clip0">
<rect width="32" height="32" fill="white"/>
</clipPath>
</defs>
</svg>
