<?xml version="1.0" encoding="UTF-8"?>
<!DOCTYPE svg PUBLIC "-//W3C//DTD SVG 1.0//EN" "http://www.w3.org/TR/2001/REC-SVG-20010904/DTD/svg10.dtd">
<!-- Creator: CorelDRAW 2017 -->
<svg xmlns="http://www.w3.org/2000/svg" xml:space="preserve" width="5.08mm" height="5.08mm" version="1.0" shape-rendering="geometricPrecision" text-rendering="geometricPrecision" image-rendering="optimizeQuality" fill-rule="evenodd" clip-rule="evenodd"
viewBox="0 0 110 110"
 xmlns:xlink="http://www.w3.org/1999/xlink">
 <g id="Layer_x0020_1">
  <metadata id="CorelCorpID_0Corel-Layer"/>
  <path fill="white" d="M55 0c30.38,0 55,24.63 55,55 0,30.38 -24.63,55 -55,55 -30.38,0 -55,-24.63 -55,-55 0,-30.38 24.63,-55 55,-55zm-4.79 22.09l-6.45 -1.71c-5.78,-1.54 -11.72,1.91 -13.25,7.69l-1.62 6.07c5.19,-6.43 12.73,-10.88 21.32,-12.05zm-28.26 38.2l-1.58 5.94c-1.54,5.78 1.91,11.71 7.69,13.25l6.17 1.64c-6.42,-5.05 -10.94,-12.41 -12.29,-20.84zm59.97 -29.78l-6.9 -1.83c6.86,5.29 11.58,13.19 12.7,22.22l1.89 -7.14c1.54,-5.78 -1.91,-11.72 -7.69,-13.25zm-22.3 57.36l6.6 1.75c5.78,1.54 11.72,-1.91 13.25,-7.69l1.86 -7c-5.14,6.84 -12.86,11.64 -21.72,12.94zm6.82 -33.73c-4.7,-0.91 -7.78,-5.45 -6.87,-10.15 0.9,-4.7 5.45,-7.78 10.15,-6.87 4.7,0.91 7.78,5.45 6.87,10.15 -0.9,4.7 -5.45,7.78 -10.15,6.88zm5.73 16.06c-0.91,4.7 -5.45,7.78 -10.15,6.87 -4.7,-0.91 -7.78,-5.45 -6.87,-10.15 0.91,-4.7 5.45,-7.78 10.15,-6.87 4.7,0.91 7.78,5.45 6.87,10.15zm-18.07 -11.21c-2.09,-0.4 -3.46,-2.42 -3.05,-4.51 0.4,-2.09 2.42,-3.46 4.51,-3.06 2.09,0.4 3.46,2.43 3.05,4.51 -0.4,2.09 -2.42,3.46 -4.51,3.05zm-3.68 7.02c-0.91,4.7 -5.45,7.78 -10.15,6.87 -4.7,-0.91 -7.78,-5.45 -6.87,-10.15 0.9,-4.7 5.45,-7.78 10.15,-6.88 4.7,0.91 7.78,5.45 6.87,10.15zm-12.61 -26.21c0.91,-4.7 5.45,-7.78 10.15,-6.88 4.7,0.91 7.78,5.45 6.87,10.15 -0.91,4.7 -5.45,7.78 -10.15,6.87 -4.7,-0.91 -7.78,-5.45 -6.88,-10.15zm17.18 -15.14c-16.76,0 -30.34,13.58 -30.34,30.34 0,16.76 13.58,30.34 30.34,30.34 16.76,0 30.34,-13.58 30.34,-30.34 0,-16.75 -13.58,-30.34 -30.34,-30.34z"/>
 </g>
</svg>
