<?xml version="1.0" encoding="UTF-8"?>
<!DOCTYPE svg PUBLIC "-//W3C//DTD SVG 1.0//EN" "http://www.w3.org/TR/2001/REC-SVG-20010904/DTD/svg10.dtd">
<!-- Creator: CorelDRAW 2017 -->
<svg xmlns="http://www.w3.org/2000/svg" xml:space="preserve" width="5.0799mm" height="5.0798mm" version="1.0" shape-rendering="geometricPrecision" text-rendering="geometricPrecision" image-rendering="optimizeQuality" fill-rule="evenodd" clip-rule="evenodd"
viewBox="0 0 74.58 74.57"
 xmlns:xlink="http://www.w3.org/1999/xlink">
 <g id="Layer_x0020_1">
  <metadata id="CorelCorpID_0Corel-Layer"/>
  <path fill="white" fill-rule="nonzero" d="M56.55 46.31c0,5.36 -4.35,9.71 -9.71,9.71l-18.66 0c-5.36,0 -9.71,-4.35 -9.71,-9.71l0 -18.66c0,-5.36 4.35,-9.71 9.71,-9.71l18.66 0c5.36,0 9.71,4.35 9.71,9.71l0 18.66zm4.43 -18.66c0,-7.81 -6.33,-14.14 -14.14,-14.14l-18.66 0c-7.81,0 -14.14,6.33 -14.14,14.14l0 18.66c0,7.81 6.33,14.14 14.14,14.14l18.66 0c7.81,0 14.14,-6.33 14.14,-14.14l0 -18.66zm-23.39 17.06c-4.09,0 -7.42,-3.33 -7.42,-7.43 0,-4.09 3.33,-7.42 7.42,-7.42 4.1,0 7.42,3.33 7.42,7.42 0,4.09 -3.33,7.43 -7.42,7.43zm0 -19.02c-6.39,0 -11.59,5.2 -11.59,11.59 0,6.39 5.2,11.59 11.59,11.59 6.39,0 11.59,-5.2 11.59,-11.59 0,-6.39 -5.2,-11.59 -11.59,-11.59zm12.27 -3.54c-1.52,0 -2.76,1.23 -2.76,2.76 0,1.52 1.24,2.76 2.76,2.76 1.52,0 2.76,-1.24 2.76,-2.76 0,-1.52 -1.24,-2.76 -2.76,-2.76zm-12.57 52.42c-20.56,0 -37.29,-16.73 -37.29,-37.29 0,-20.56 16.73,-37.29 37.29,-37.29 20.56,0 37.29,16.73 37.29,37.29 0,20.56 -16.73,37.29 -37.29,37.29z"/>
 </g>
</svg>
