<?xml version="1.0" encoding="UTF-8"?>
<!DOCTYPE svg PUBLIC "-//W3C//DTD SVG 1.0//EN" "http://www.w3.org/TR/2001/REC-SVG-20010904/DTD/svg10.dtd">
<!-- Creator: CorelDRAW 2017 -->
<svg xmlns="http://www.w3.org/2000/svg" xml:space="preserve" width="5.08mm" height="5.08mm" version="1.0" shape-rendering="geometricPrecision" text-rendering="geometricPrecision" image-rendering="optimizeQuality" fill-rule="evenodd" clip-rule="evenodd"
viewBox="0 0 463.18 463.18"
 xmlns:xlink="http://www.w3.org/1999/xlink">
 <g id="Layer_x0020_1">
  <metadata id="CorelCorpID_0Corel-Layer"/>
  <path fill="white" d="M231.59 0c127.9,0 231.59,103.69 231.59,231.59 0,127.9 -103.69,231.59 -231.59,231.59 -127.9,0 -231.59,-103.69 -231.59,-231.59 0,-127.9 103.69,-231.59 231.59,-231.59zm96.22 135.38c16.55,16.55 27.97,35.48 34.19,56.77 6.28,21.3 7.38,42.73 3.4,64.27 6.99,11.49 10.52,24.57 10.52,39.07 -0.52,23.03 -8.28,42.08 -23.29,57.15 -15.07,15.01 -34.13,22.78 -57.15,23.29 -14.5,0 -27.59,-3.53 -39.07,-10.52 -21.55,3.98 -42.97,2.89 -64.27,-3.4 -21.3,-6.22 -40.22,-17.63 -56.77,-34.18 -16.55,-16.55 -27.97,-35.48 -34.19,-56.77 -6.28,-21.3 -7.38,-42.73 -3.4,-64.28 -6.99,-11.48 -10.52,-24.56 -10.52,-39.06 0.52,-23.03 8.28,-42.08 23.29,-57.15 15.07,-15.02 34.13,-22.78 57.15,-23.29 14.5,0 27.59,3.53 39.07,10.52 21.55,-3.98 42.97,-2.89 64.27,3.39 21.3,6.23 40.22,17.64 56.77,34.19zm-95.44 178.9c23.03,-0.51 40.35,-5.52 51.82,-15.01 11.55,-9.56 17.32,-21.81 17.32,-36.88 0,-10.01 -3.15,-19.38 -9.43,-28.16 -6.23,-8.79 -17.9,-15.14 -34.97,-19.17l-31.56 -6.74c-6.47,-1.54 -12.38,-3.53 -17.63,-6.03 -5.26,-2.51 -8.02,-6.67 -8.28,-12.38 -0.26,-5.77 1.99,-10.46 6.74,-13.92 4.81,-3.53 11.67,-5.25 20.72,-5.25 16.55,0.96 27.07,5.12 31.56,12.37 4.5,7.25 10.52,11.42 18.03,12.38 5.01,0 9.17,-1.35 12.38,-4.1 3.27,-2.76 4.94,-6.42 4.94,-10.9 -0.52,-11.54 -7.57,-20.79 -21.04,-27.77 -13.53,-7.06 -28.09,-10.59 -43.62,-10.59 -17.06,-0.45 -32.19,3.15 -45.48,10.9 -13.28,7.76 -20.4,20.97 -21.42,39.51 -0.52,8.98 1.99,17.52 7.5,25.53 5.52,8.02 16.8,14.31 33.8,18.8l42.85 11.29c6.54,1.48 10.9,3.85 13.15,7.12 2.31,3.27 3.4,6.67 3.4,10.13 0,5.52 -2.64,10.39 -7.9,14.69 -5.25,4.24 -12.89,6.61 -22.89,7.12 -18.09,-1.47 -29.31,-6.47 -33.87,-15.01 -4.49,-8.53 -11.22,-13.53 -20.27,-15.07 -4.49,0 -8.27,1.54 -11.29,4.55 -3.02,3.02 -4.49,6.74 -4.49,11.3 -0.52,9.49 4.87,18.66 16.16,27.39 11.3,8.78 29.19,13.4 53.76,13.91z"/>
 </g>
</svg>
