<?xml version="1.0" encoding="UTF-8"?>
<!DOCTYPE svg PUBLIC "-//W3C//DTD SVG 1.0//EN" "http://www.w3.org/TR/2001/REC-SVG-20010904/DTD/svg10.dtd">
<!-- Creator: CorelDRAW 2017 -->
<svg xmlns="http://www.w3.org/2000/svg" xml:space="preserve" width="5.08mm" height="5.08mm" version="1.0" shape-rendering="geometricPrecision" text-rendering="geometricPrecision" image-rendering="optimizeQuality" fill-rule="evenodd" clip-rule="evenodd"
viewBox="0 0 128.47 128.47"
 xmlns:xlink="http://www.w3.org/1999/xlink">
 <g id="Layer_x0020_1">
  <metadata id="CorelCorpID_0Corel-Layer"/>
  <path fill="white" d="M64.24 0c35.48,0 64.24,28.76 64.24,64.24 0,35.48 -28.76,64.24 -64.24,64.24 -35.48,0 -64.24,-28.76 -64.24,-64.24 0,-35.48 28.76,-64.24 64.24,-64.24zm-38.65 59.79l70.09 -27.02c3.25,-1.17 6.09,0.8 5.04,5.71l0.01 -0.01 -11.93 56.22c-0.88,3.98 -3.25,4.95 -6.57,3.08l-18.17 -13.39 -8.77 8.44c-0.97,0.97 -1.78,1.79 -3.66,1.79l1.29 -18.49 33.68 -30.43c1.47,-1.29 -0.33,-2.02 -2.26,-0.74l-41.62 26.21 -17.94 -5.6c-3.89,-1.23 -3.98,-3.89 0.82,-5.77l0 0z"/>
 </g>
</svg>
