<?xml version="1.0" encoding="UTF-8"?>
<!DOCTYPE svg PUBLIC "-//W3C//DTD SVG 1.0//EN" "http://www.w3.org/TR/2001/REC-SVG-20010904/DTD/svg10.dtd">
<!-- Creator: CorelDRAW 2017 -->
<svg xmlns="http://www.w3.org/2000/svg" xml:space="preserve" width="5.08mm" height="5.08mm" version="1.0" shape-rendering="geometricPrecision" text-rendering="geometricPrecision" image-rendering="optimizeQuality" fill-rule="evenodd" clip-rule="evenodd"
viewBox="0 0 288.53 288.53"
 xmlns:xlink="http://www.w3.org/1999/xlink">
 <g id="Layer_x0020_1">
  <metadata id="CorelCorpID_0Corel-Layer"/>
  <path fill="white" d="M144.27 0c79.68,0 144.27,64.59 144.27,144.27 0,79.68 -64.59,144.27 -144.27,144.27 -79.68,0 -144.27,-64.59 -144.27,-144.27 0,-79.68 64.59,-144.27 144.27,-144.27zm-17.64 183.66l0 -78.78 52.53 39.39 -52.53 39.39zm87.82 -105.84c-3.29,-0.84 -11.62,-1.65 -25.03,-2.49 -13.42,-0.81 -28.43,-1.23 -45.14,-1.23 -16.7,0 -31.72,0.35 -45.13,1.02 -13.41,0.7 -21.74,1.44 -25.03,2.28 -6.55,3 -11.14,10.78 -13.73,23.38 -2.63,12.58 -3.92,27 -3.92,43.28 0,16.28 1.29,30.78 3.92,43.49 2.59,12.75 7.18,20.45 13.73,23.17 3.29,1.12 11.62,2 25.03,2.7 13.41,0.66 28.43,1.02 45.13,1.02 16.7,0 31.72,-0.35 45.14,-1.02 13.41,-0.7 21.74,-1.57 25.03,-2.7 6.55,-2.73 11.14,-10.43 13.73,-23.17 2.63,-12.71 3.92,-27.21 3.92,-43.49 0,-16.28 -1.29,-30.7 -3.92,-43.28 -2.58,-12.6 -7.18,-20.24 -13.73,-22.96z"/>
 </g>
</svg>
