<?xml version="1.0" encoding="utf-8"?>
<!-- Generator: Adobe Illustrator 22.1.0, SVG Export Plug-In . SVG Version: 6.00 Build 0)  -->
<svg version="1.1" id="Layer_1" xmlns="http://www.w3.org/2000/svg" xmlns:xlink="http://www.w3.org/1999/xlink" x="0px" y="0px"
	 viewBox="0 0 512 512" style="enable-background:new 0 0 512 512;" xml:space="preserve">
<style type="text/css">
	.st0{fill:#DEB09D;}
	.st1{fill:#E2BBA1;}
	.st2{fill:#F9CFB3;}
	.st3{fill:#FFFFFF;}
	.st4{fill:#1C75BC;}
	.st5{fill:#186EA8;}
	.st6{fill:#594A42;}
</style>
<g id="_x34__1_">
	<path class="st0" d="M158.8,422.7c11,18.8,22,37.6,33,56.4c1.2,2.1,5.8,8.9,11.1,16.9h44.4c18-25.4,37.9-49.5,59.7-71.8
		c35-35.7,67.8-58.3,110.6-84.2c-16.1,9.8-30.7,1.9-47.8,1.7c-10.9-0.1-17.4-3.6-19.9-4.5c-3.4-1.3-20.5-7.8-29.9-19.5
		c-18.3-23-10.7-65.1-10.7-65.1s-20.6,3.1-56.7,0.8c-11.3-0.7-22.6-2.6-33.8-2.9c-5.3-0.2-14.4-1.2-19,1.9c-4,2.7-5.4,3.9-5.6,5.1
		c-0.7,3.7,1.4,7.4,2.1,8.5c5.8,9.2,2.4,35.4-8.8,51c-4.1,5.7-17,13.3-42.7,28.7c-9.6,5.7-19.4,11-20.3,20.1
		c-0.4,3.8,0.6,8,3.4,12.4C137.3,392.8,149.5,406.8,158.8,422.7z"/>
	<path class="st1" d="M152.4,91.7c-8.9,19.3-10.7,42-8.3,64c-14.8,1.4-11.2,21.3-4.2,38c4.1,9.8,9.3,18.5,12.7,21.9
		c3.9,3.9,7.6,5.8,10.9,6.3c13.7,30,33,57.7,62.9,70.9c5.9,2.6,11.8,4,17.6,4.4V39.2C206.1,38.1,169.7,54,152.4,91.7z"/>
	<path class="st2" d="M349.8,148.9c-1.5-38.5-16.8-76.1-50.7-95.4c-5.7-3.3-12-6-18.9-8.2c-11.8-3.7-24.1-5.8-36.2-6.1v258.1
		c38.7,2.7,74.4-39.4,92.2-78.2c16.4-8.6,28.2-26.6,29.4-45.9C366.1,164.2,359.7,149.7,349.8,148.9z"/>
	<path class="st3" d="M288.7,496c20.3-64.7,37.4-127.2,38-153c-97.5,63.7-144.7,6.1-144.7,6.1l-33.5,145.3c0,0,0.1,0.7,0.2,1.7
		H288.7z"/>
	<path class="st4" d="M475.8,382c-2.4-11.4-9.4-21.2-19.3-27.3c-1-0.9-2-1.9-3.3-2.9c-8.3-6.3-19.3-9-28.8-11.6
		c-52.4-14.2-104.5-22.5-104.5-22.5c0.6,23.9,8.7,49.2-10.4,95.5c-16.1,39-38.1,66.3-53.5,82.7h157h24.9h53.2
		C489.5,472.1,478.4,394.8,475.8,382z"/>
	<path class="st4" d="M36.2,382c2.4-11.4,9.4-21.2,19.3-27.3c1-0.9,2-1.9,3.3-2.9c8.3-6.3,19.3-9,28.8-11.6
		c52.4-14.2,99.9-23.3,99.9-23.3c-0.8,20.6,0.4,56.4,16.1,97.1c15.5,40.1,38.1,67.1,52.5,81.9H99H74.1H20.9
		C22.5,472.1,33.6,394.8,36.2,382z"/>
	<path class="st5" d="M322.9,496c22.9-29.5,45.6-56.8,67.8-81.7l-30.3-19.8l30.3-37.8l-25.1-33.3l-48.4-10
		c-0.6,24-2.2,55.7-15.7,95.1c-13.5,39-32,68.3-46.2,87.5H322.9z"/>
	<path class="st5" d="M187.6,496c-22.9-29.5-45.6-56.8-67.8-81.7l30.3-19.8l-30.3-37.8l21.7-26.9l46-12.8
		c2.8,23.3,8.3,51.9,19.3,83.5c14.2,40.8,32.8,72.8,48.5,95.5H187.6z"/>
	<path class="st6" d="M142.9,155.1c1.6,11.6,4.3,23.1,8,33.9c-9.8-29.3,8.1-76.8,26.6-99.8c72.3,49.4,148.5,71.2,161.5,92
		c2.5-6.9,4.6-14.1,7.5-20.9c0.8-1.9,1.7-8.3,3.7-9.3c0.6-0.3,6.3-0.8,5.8,0.2c1.7-32.3,1.9-67.8-19.5-93.6
		c-21.3-25.7-54.3-42.3-88-41.6C173.3,17.5,133.4,87.1,142.9,155.1z"/>
	<path class="st6" d="M370.5,303c0.8,37.2-16.3,74.4-45,98.3c12.6-18.8,11.9-43.6,6.2-65.5c-5.7-21.9-15.8-42.5-20.8-64.5
		c-0.7-3.1-1.3-6.2-1.7-9.4c10.8-12.8,20-27.7,26.7-42.2C357,242.1,369.8,272.3,370.5,303z"/>
</g>
</svg>
