<?xml version="1.0" encoding="utf-8"?>
<!-- Generator: Adobe Illustrator 22.1.0, SVG Export Plug-In . SVG Version: 6.00 Build 0)  -->
<svg version="1.1" id="Layer_1" xmlns="http://www.w3.org/2000/svg" xmlns:xlink="http://www.w3.org/1999/xlink" x="0px" y="0px"
	 viewBox="0 0 512 512" style="enable-background:new 0 0 512 512;" xml:space="preserve">
<style type="text/css">
	.st0{fill:#DEB09D;}
	.st1{fill:#F9CFB3;}
	.st2{fill:#E2BBA1;}
	.st3{fill:#824327;}
	.st4{fill:#BAD1DD;}
	.st5{fill:#3D5872;}
	.st6{fill:#78919E;}
	.st7{fill:#6A828C;}
	.st8{fill:#E4F4FF;}
	.st9{fill:#64787D;}
</style>
<g id="_x39__1_">
	<g>
		<polygon class="st0" points="200.4,268.5 200.4,274.2 200.4,320.6 261.7,376.8 281.2,354.7 312.8,318.9 312.8,261.8 		"/>
		<path class="st1" d="M355.1,171.2c-0.2-3.9-2.3-10.5-7.4-6.7c-2.3,1.7-1.2,5.9-3.3,7.4c-5.2,3.4-5.7-4.3-6.1-7.7
			c-1.3-13,4.5-25.4,3-38.2c-2.2-17.8-18.8-29.8-34.4-35.8c-15.5-6-36-5.9-51.9-0.4c-0.9-0.3-1.8-0.5-2.6-0.8v219.3
			c0.9,0,1.8,0,2.6-0.1c7,0.3,14.7,0.3,20.1-2.5c9.1-4.7,15.2-11.9,21.8-19.1c7.1-7.7,17.8-11.7,23.9-20.2c2.9-4,5-8.5,6.4-13.5
			c2.1-7.4,1.2-18.9,6.7-24.8c5-5.3,10-7.4,13.6-14.8C353.8,200.5,355.8,185.2,355.1,171.2z"/>
		<path class="st2" d="M203,90.1c-15.6,6-32.2,18.1-34.4,35.8c-1.6,12.7,4.3,25.2,3,38.2c-0.3,3.4-0.8,11.1-6.1,7.7
			c-2.2-1.4-1-5.6-3.3-7.4c-5.1-3.8-7.2,2.8-7.4,6.7c-0.7,14,1.3,29.3,7.5,42c3.6,7.4,8.6,9.5,13.6,14.8c5.6,5.9,4.6,17.5,6.7,24.8
			c1.4,5,3.5,9.6,6.4,13.5c6.2,8.5,16.9,12.5,23.9,20.2c6.6,7.2,12.7,14.5,21.8,19.1c4.8,2.5,11.2,2.8,17.5,2.6V88.9
			C236.8,84.2,217.7,84.4,203,90.1z"/>
		<path class="st3" d="M161.6,153.6c2.1,7.3,2.4,12.8,2.2,20.2c0,1-0.1,2.5-0.1,4.1h9.3c0.1-2,0-3.8-0.1-5c-0.3-5.4-0.1-9.6,0.2-15
			c0.4-7.2-0.5-14.5,0.2-21.7c1.9-18.7,17.9-32,35.7-33.4c13.1-1,26.2,1.7,39.3,1.7c16.2,0,23.5-7.8,36.3-15.7
			c3.4-2.1,1.4-2.4,5-1.5c2.3,0.6,5.3,3.8,7.3,5c12.1,7.4,33.9,14.8,37.4,30.5c2.8,12.3,2.2,24.9,1.9,37.4c0,1.8-1.6,11.3-1.2,17.6
			h7.3c2.3-7.6,5.5-17.8,6.2-21.8c3.1-15.9,2.3-22.9,3.1-29.7c2.6-24,4-47-10.8-67.1c-15.8-21.6-39.3-34.2-51.9-32.6
			c-0.7,0.1-9.2,0.9-8.1,1.8c-4.5-4-12.3-4.3-17.8-5.6c-29.4-7-66.6,11.3-88,30.8c-22.6,20.6-19.2,47.2-16.7,72.7
			C159.2,135.3,159.1,145.1,161.6,153.6z"/>
	</g>
	<g>
		<path class="st4" d="M284.8,490.6l28.1-75.1l-51.6-57.6h-6.9c0,0-54.3,57-53.9,61.2l29.8,71.6H284.8z"/>
		<path class="st5" d="M228.3,479.5c-0.1,0.4-0.1,0.9,0.1,1.3l3.8,9.9h48.7l3.8-9.9c0.2-0.4,0.2-0.8,0.1-1.3l-18.4-83.3
			c-0.6-2.6-0.2-5.4,1.1-7.8l7-13.1c0.3-0.8,0.1-1.7-0.5-2.3c-2.7-2.7-5.4-5.3-8-8c-1.8-1.8-4-3.5-5.1-5.9c-0.8-1.7-2.8-5.5-5.3-3.9
			c-2.1,1.4-2.8,3.6-4.2,5.5c-1.4,1.9-3.5,3.5-5.2,5.1c-2.4,2.4-4.8,4.8-7.2,7.1c-0.6,0.6-0.8,1.5-0.5,2.3l7,13.1
			c1.3,2.4,1.7,5.2,1.1,7.8L228.3,479.5z"/>
		<g>
			<path class="st6" d="M241.3,490.6l-30.1-99.9L193.6,332c0,0-0.7,0.2-1.9,0.6c-4.4,1.3-16.2,4.9-31.2,9.4
				c-40.2,12.2-102.9,31.2-104.6,32.3c-1.4,1-16.5,31.5-29,57c-2.6,5.3-3.9,11.1-3.9,16.9v42.5H241.3z"/>
			<path class="st7" d="M489,490.6v-41c0-8.3-1.9-16.5-5.6-24c-11.8-24.1-24.9-50.4-26.2-51.3c-1.7-1.1-64.4-20.2-104.6-32.3
				c-14.9-4.5-26.7-8-31.2-9.4c-1.3-0.4-1.9-0.6-1.9-0.6l-24.7,79.5l-24.6,79.1H489z"/>
		</g>
		<path class="st8" d="M313.7,303L258,353.2c-0.8,0.8-2.1,0.8-3,0L199.4,303l-12.4,36.4L211,419l43.7-61.5c0.9-1.3,2.8-1.3,3.6,0
			l43.7,61.5l24.1-79.6L313.7,303z"/>
		<path class="st9" d="M307.7,490.6l50.1-94.9l-29.2-12.3l33.6-16.5c-1.6-5.1-5.3-15.5-9.6-24.9c-14.9-4.5-26.7-8-31.2-9.4
			l-26.6,78.9l-8.5,25.4L268,490.6H307.7z"/>
		<path class="st9" d="M155.2,395.7l49.4,94.9h38.5l-16.4-53.7l-15.6-46.2l-19.6-58.2c-4.4,1.3-16.2,4.9-31.2,9.4
			c-4.3,9.4-8,19.8-9.6,24.9l33.6,16.5L155.2,395.7z"/>
	</g>
</g>
</svg>
