<?xml version="1.0" encoding="UTF-8"?>
<!DOCTYPE svg PUBLIC "-//W3C//DTD SVG 1.0//EN" "http://www.w3.org/TR/2001/REC-SVG-20010904/DTD/svg10.dtd">
<!-- Creator: CorelDRAW 2017 -->
<svg xmlns="http://www.w3.org/2000/svg" xml:space="preserve" width="3.7976mm" height="4.5582mm" version="1.0" shape-rendering="geometricPrecision" text-rendering="geometricPrecision" image-rendering="optimizeQuality" fill-rule="evenodd" clip-rule="evenodd"
viewBox="0 0 140.02 168.06"
 xmlns:xlink="http://www.w3.org/1999/xlink">
 <g id="Layer_x0020_1">
  <metadata id="CorelCorpID_0Corel-Layer"/>
  <path fill="white" d="M10.5 56.05c-5.8,0 -10.5,4.7 -10.5,10.5l0 49.01c0,5.8 4.7,10.5 10.5,10.5 5.8,0 10.5,-4.7 10.5,-10.5l0 -49.01c0,-5.8 -4.7,-10.5 -10.5,-10.5zm84.96 -41.5l8.54 -8.53c1.39,-1.34 1.43,-3.56 0.08,-4.95 -1.34,-1.39 -3.56,-1.43 -4.95,-0.09 -0.03,0.03 -0.06,0.06 -0.08,0.09l-9.94 9.94c-12.17,-5.29 -26,-5.29 -38.18,0l-9.94 -9.95c-1.39,-1.35 -3.61,-1.31 -4.95,0.08 -1.31,1.36 -1.31,3.51 0,4.86l8.53 8.54c-10.39,6.88 -16.62,18.53 -16.55,31 0,1.93 1.56,3.5 3.5,3.5l77.01 0c1.93,0 3.5,-1.57 3.5,-3.5 0.07,-12.47 -6.16,-24.12 -16.55,-31zm-4.44 17c0,-1.94 -1.57,-3.5 -3.5,-3.5 -1.93,0 -3.5,1.57 -3.5,3.5 0,1.93 1.57,3.5 3.5,3.5 1.94,0 3.5,-1.57 3.5,-3.5zm-35.01 0c0,-1.94 -1.57,-3.5 -3.5,-3.5 -1.94,0 -3.5,1.57 -3.5,3.5 0,1.93 1.57,3.5 3.5,3.5 1.93,0 3.5,-1.57 3.5,-3.5zm52.51 24.5l-77.01 0c-1.94,0 -3.5,1.57 -3.5,3.5l0 56.01c-0,8.32 5.85,15.49 14,17.15l0 24.86c0,5.8 4.7,10.5 10.5,10.5 5.8,0 10.5,-4.7 10.5,-10.5l0 -24.5 14 0 0 24.5c0,5.8 4.7,10.5 10.5,10.5 5.8,0 10.5,-4.7 10.5,-10.5l0 -24.86c8.15,-1.66 14,-8.83 14,-17.15l0 -56.01c0,-1.93 -1.56,-3.5 -3.5,-3.5zm21 0c-5.8,0 -10.5,4.7 -10.5,10.5l0 49.01c0,5.8 4.7,10.5 10.5,10.5 5.8,0 10.5,-4.7 10.5,-10.5l0 -49.01c0,-5.8 -4.7,-10.5 -10.5,-10.5z"/>
 </g>
</svg>
