<?xml version="1.0" encoding="UTF-8"?>
<!DOCTYPE svg PUBLIC "-//W3C//DTD SVG 1.0//EN" "http://www.w3.org/TR/2001/REC-SVG-20010904/DTD/svg10.dtd">
<!-- Creator: CorelDRAW 2017 -->
<svg xmlns="http://www.w3.org/2000/svg" xml:space="preserve" width="4.5342mm" height="4.3926mm" version="1.0" shape-rendering="geometricPrecision" text-rendering="geometricPrecision" image-rendering="optimizeQuality" fill-rule="evenodd" clip-rule="evenodd"
viewBox="0 0 214.98 208.26"
 xmlns:xlink="http://www.w3.org/1999/xlink">
 <g id="Layer_x0020_1">
  <metadata id="CorelCorpID_0Corel-Layer"/>
  <g id="_2373608812496">
   <g>
    <g>
     <path fill="white" d="M204.9 0l-194.83 0c-5.56,0 -10.08,4.51 -10.08,10.08l0 147.8c0,1.85 1.5,3.36 3.36,3.36l76.52 0 -5.37 26.87 -7.33 0c-1.85,0 -3.36,1.5 -3.36,3.36l0 10.08 -6.72 0 0 6.72 100.77 0 0 -6.72 -6.72 0 0 -10.08c0,-1.85 -1.5,-3.36 -3.36,-3.36l-7.33 0 -5.38 -26.87 76.53 0c1.85,0 3.36,-1.5 3.36,-3.36l0 -147.8c0,-5.57 -4.51,-10.08 -10.08,-10.08zm-67.18 194.83l6.72 0 0 6.72 -73.9 0 0 -6.72 6.72 0 60.46 0zm-56.36 -6.72l5.37 -26.87 41.52 0 5.38 26.87 -52.27 0zm126.9 -33.59l-201.54 0 0 -30.23 201.54 0 0 30.23zm-184.75 -36.95l0 -94.05 167.95 0 0 94.05 -167.95 0zm184.75 0l-10.08 0 0 -97.41c0,-1.85 -1.51,-3.36 -3.36,-3.36l-174.67 0c-1.85,0 -3.36,1.5 -3.36,3.36l0 97.41 -10.08 0 0 -107.49c0,-1.85 1.5,-3.36 3.36,-3.36l194.83 0c1.85,0 3.36,1.51 3.36,3.36l0 107.49z"/>
    </g>
   </g>
   <g>
    <g>
     <path fill="white" d="M107.49 127.64c-5.57,0 -10.08,4.51 -10.08,10.08 0,5.57 4.51,10.08 10.08,10.08 5.57,0 10.08,-4.51 10.08,-10.08 0,-5.57 -4.51,-10.08 -10.08,-10.08zm0 13.44c-1.85,0 -3.36,-1.5 -3.36,-3.36 0,-1.86 1.5,-3.36 3.36,-3.36 1.85,0 3.36,1.5 3.36,3.36 0,1.85 -1.5,3.36 -3.36,3.36z"/>
    </g>
   </g>
   <g>
    <g>
     <path fill="white" d="M33.59 30.23c-1.86,0 -3.36,1.5 -3.36,3.36l0 10.08 6.72 0 0 -6.72 6.72 0 0 -6.72 -10.08 0z"/>
    </g>
   </g>
   <g>
    <g>
     <path fill="white" d="M83.98 36.95l-20.15 0c-1.85,0 -3.36,1.5 -3.36,3.36l0 20.15c0,1.85 1.51,3.36 3.36,3.36l20.15 0c1.85,0 3.36,-1.5 3.36,-3.36l0 -20.15c0,-1.85 -1.5,-3.36 -3.36,-3.36zm-16.8 6.72l8.69 0 -8.69 8.69 0 -8.69zm13.44 13.43l-8.68 0 8.68 -8.68 0 8.68z"/>
    </g>
   </g>
   <g>
    <g>
     <rect fill="white" x="97.41" y="40.31" width="6.72" height="6.72"/>
    </g>
   </g>
   <g>
    <g>
     <rect fill="white" x="110.85" y="40.31" width="6.72" height="6.72"/>
    </g>
   </g>
   <g>
    <g>
     <rect fill="white" x="97.41" y="53.75" width="53.74" height="6.72"/>
    </g>
   </g>
   <g>
    <g>
     <path fill="white" d="M83.98 73.9l-20.15 0c-1.85,0 -3.36,1.5 -3.36,3.36l0 20.15c0,1.85 1.51,3.36 3.36,3.36l20.15 0c1.85,0 3.36,-1.51 3.36,-3.36l0 -20.15c0,-1.85 -1.5,-3.36 -3.36,-3.36zm-3.36 20.15l-13.44 0 0 -13.44 13.44 0 0 13.44z"/>
    </g>
   </g>
   <g>
    <g>
     <rect fill="white" x="97.41" y="77.26" width="6.72" height="6.72"/>
    </g>
   </g>
   <g>
    <g>
     <rect fill="white" x="110.85" y="77.26" width="6.72" height="6.72"/>
    </g>
   </g>
   <g>
    <g>
     <rect fill="white" x="97.41" y="90.7" width="53.74" height="6.72"/>
    </g>
   </g>
   <g>
   </g>
   <g>
   </g>
   <g>
   </g>
   <g>
   </g>
   <g>
   </g>
   <g>
   </g>
   <g>
   </g>
   <g>
   </g>
   <g>
   </g>
   <g>
   </g>
   <g>
   </g>
   <g>
   </g>
   <g>
   </g>
   <g>
   </g>
   <g>
   </g>
  </g>
 </g>
</svg>
