<?xml version="1.0" encoding="UTF-8"?>
<!DOCTYPE svg PUBLIC "-//W3C//DTD SVG 1.0//EN" "http://www.w3.org/TR/2001/REC-SVG-20010904/DTD/svg10.dtd">
<!-- Creator: CorelDRAW 2017 -->
<svg xmlns="http://www.w3.org/2000/svg" xml:space="preserve" width="3.9674mm" height="4.5517mm" version="1.0" shape-rendering="geometricPrecision" text-rendering="geometricPrecision" image-rendering="optimizeQuality" fill-rule="evenodd" clip-rule="evenodd"
viewBox="0 0 155.38 178.26"
 xmlns:xlink="http://www.w3.org/1999/xlink">
 <g id="Layer_x0020_1">
  <metadata id="CorelCorpID_0Corel-Layer"/>
  <path fill="white" d="M30.76 61.03c-0.59,-0.58 -1.29,-1.05 -2.06,-1.37 -0.03,-0.02 -0.07,-0.02 -0.09,-0.03 -0.72,-0.28 -1.49,-0.45 -2.31,-0.45 -0.81,0 -1.59,0.17 -2.3,0.45 -0.04,0.01 -0.07,0.02 -0.09,0.03 -0.78,0.32 -1.48,0.79 -2.06,1.37l-19.99 19.99c-2.46,2.46 -2.46,6.46 0,8.93 1.23,1.23 2.85,1.85 4.47,1.85 1.62,0 3.23,-0.61 4.46,-1.85l9.21 -9.21 0 24.09c0,3.49 2.83,6.32 6.32,6.32 3.48,0 6.31,-2.83 6.31,-6.32l0 -24.09 9.89 9.89c1.23,1.23 2.85,1.85 4.46,1.85 1.62,0 3.24,-0.61 4.47,-1.85 2.46,-2.47 2.46,-6.46 0,-8.93l-20.69 -20.66zm71.16 68.39c4.67,-5.02 11.3,-8.03 19.32,-8.03 8.1,0 14.46,2.92 18.88,7.63 4.8,5.11 7.31,12.34 7.32,20.25 0,8.89 -2.68,16.08 -7.34,21.07 -4.77,5.12 -11.61,7.93 -19.75,7.93 -7.93,0 -14.28,-2.92 -18.72,-7.72 -4.69,-5.08 -7.23,-12.27 -7.23,-20.32 0,-8.35 2.72,-15.64 7.52,-20.81zm10.05 33.31c2.14,2.93 5.21,4.65 9.02,4.65 3.8,0 6.81,-1.76 8.9,-4.72 2.25,-3.18 3.46,-7.74 3.46,-13 0,-4.93 -1.23,-9.49 -3.56,-12.7 -2.09,-2.87 -5.08,-4.68 -8.88,-4.68 -3.8,0 -6.83,1.77 -8.94,4.73 -2.26,3.18 -3.49,7.74 -3.49,12.98 0,5.22 1.23,9.65 3.48,12.74zm-25.12 -8.13l-19.22 0 0 11.58 22.14 0 0 11.21 -35.6 0 0 -55.12 34.48 0 0 11.21 -21.02 0 0 9.99 19.83 0 0 11.13 -0.61 0zm-61.57 -13.8c1.57,1.1 4.04,2.13 7.48,3.43 4.85,1.79 8.43,3.97 10.81,6.67 2.4,2.74 3.58,6.02 3.57,9.96 0,4.96 -2.02,9.53 -6.19,12.74 -3.68,2.83 -9.04,4.59 -16.17,4.59 -2.92,0 -5.83,-0.36 -8.41,-0.91 -2.95,-0.63 -5.49,-1.53 -7.15,-2.44l-0.41 -0.22 2.77 -11.28 0.68 0.35c1.76,0.9 4.05,1.81 6.59,2.44 2.09,0.52 4.36,0.86 6.65,0.86 2.62,0 4.61,-0.52 5.95,-1.43 1.32,-0.9 2.01,-2.22 2.01,-3.8 0,-1.49 -0.57,-2.66 -1.87,-3.72 -1.39,-1.14 -3.59,-2.17 -6.76,-3.31 -4.56,-1.58 -8.34,-3.65 -10.99,-6.33 -2.69,-2.72 -4.22,-6.06 -4.22,-10.15 0,-4.9 2.09,-9.21 5.91,-12.25 3.6,-2.86 8.74,-4.59 15.09,-4.59 3.09,0 5.77,0.33 8.09,0.83 2.33,0.51 4.29,1.21 5.92,1.94l0.47 0.21 -3.05 11.04 -0.65 -0.31c-1.05,-0.5 -2.51,-1.13 -4.37,-1.63 -1.84,-0.5 -4.07,-0.87 -6.65,-0.87 -2.37,0 -4.14,0.5 -5.34,1.29 -1.26,0.84 -1.89,2.02 -1.89,3.3 0,1.5 0.68,2.59 2.13,3.6zm107.57 -138.94c-0.58,-0.59 -1.29,-1.05 -2.06,-1.37 -0.04,-0.01 -0.07,-0.02 -0.09,-0.03 -0.72,-0.27 -1.5,-0.44 -2.31,-0.44 -0.81,0 -1.59,0.17 -2.3,0.44 -0.04,0.02 -0.07,0.02 -0.09,0.03 -0.78,0.32 -1.48,0.79 -2.06,1.37l-19.99 19.99c-2.46,2.47 -2.46,6.46 0,8.93 1.23,1.23 2.85,1.85 4.47,1.85 1.62,0 3.23,-0.61 4.46,-1.85l9.21 -9.21 0 83.27c0,3.49 2.84,6.31 6.31,6.31 3.49,0 6.32,-2.83 6.32,-6.31l0 -83.27 9.89 9.89c1.23,1.23 2.85,1.85 4.46,1.85 1.62,0 3.24,-0.61 4.47,-1.85 2.46,-2.47 2.46,-6.46 0,-8.93l-20.69 -20.66zm-31.91 54.31c2.46,-2.47 2.46,-6.46 0,-8.93l-20.66 -20.66c-0.58,-0.58 -1.29,-1.05 -2.06,-1.37 -0.04,-0.02 -0.07,-0.02 -0.09,-0.03 -0.71,-0.28 -1.49,-0.45 -2.3,-0.45 -0.81,0 -1.59,0.17 -2.3,0.45 -0.04,0.01 -0.07,0.02 -0.1,0.03 -0.78,0.32 -1.48,0.79 -2.06,1.37l-19.99 19.99c-2.47,2.47 -2.47,6.46 0,8.93 1.23,1.23 2.86,1.85 4.47,1.85 1.62,0 3.23,-0.61 4.47,-1.85l9.21 -9.21 0 58.55c0,3.49 2.83,6.31 6.31,6.31 3.49,0 6.31,-2.83 6.31,-6.31l-0 -58.55 9.89 9.89c1.23,1.23 2.85,1.85 4.47,1.85 1.61,0 3.21,-0.62 4.45,-1.85z"/>
 </g>
</svg>
