<?xml version="1.0" encoding="UTF-8"?>
<!DOCTYPE svg PUBLIC "-//W3C//DTD SVG 1.0//EN" "http://www.w3.org/TR/2001/REC-SVG-20010904/DTD/svg10.dtd">
<!-- Creator: CorelDRAW 2017 -->
<svg xmlns="http://www.w3.org/2000/svg" xml:space="preserve" width="4.3374mm" height="5.7428mm" version="1.0" shape-rendering="geometricPrecision" text-rendering="geometricPrecision" image-rendering="optimizeQuality" fill-rule="evenodd" clip-rule="evenodd"
viewBox="0 0 192.75 255.21"
 xmlns:xlink="http://www.w3.org/1999/xlink">
 <g id="Layer_x0020_1">
  <metadata id="CorelCorpID_0Corel-Layer"/>
  <g id="_2373592973632">
   <g>
    <g>
     <path fill="white" d="M121.12 56.93c9.56,0 17.32,7.75 17.32,17.32 0,9.56 -7.76,17.32 -17.32,17.32 -9.57,0 -17.32,-7.76 -17.32,-17.32 0,-9.57 7.75,-17.32 17.32,-17.32zm0 25.98c4.78,0 8.66,-3.88 8.66,-8.66 -0.03,-4.77 -3.9,-8.62 -8.66,-8.62l0 -0.04c-4.79,0 -8.66,3.88 -8.66,8.66 0,4.78 3.88,8.66 8.66,8.66z"/>
    </g>
   </g>
   <g>
    <g>
     <path fill="white" d="M71.58 56.93c9.57,0 17.32,7.75 17.32,17.32 0,9.56 -7.75,17.32 -17.32,17.32 -9.56,0 -17.32,-7.76 -17.32,-17.32 0,-9.57 7.75,-17.32 17.32,-17.32zm0 25.98c4.79,0 8.66,-3.88 8.66,-8.66 -0.02,-4.77 -3.89,-8.62 -8.66,-8.62l0 -0.04c-4.78,0 -8.66,3.88 -8.66,8.66 0,4.78 3.88,8.66 8.66,8.66z"/>
    </g>
   </g>
   <g>
    <g>
     <path fill="white" d="M18.78 76.87c1.87,-10.28 10.15,-18.19 20.5,-19.59 2.86,-10.57 11.09,-19.57 27.63,-19.57l25.12 0 0 -9.53c-7.6,-2.39 -11.82,-10.49 -9.43,-18.08 2.39,-7.6 10.49,-11.82 18.08,-9.43 7.6,2.39 11.82,10.49 9.43,18.08 -1.41,4.49 -4.93,8.01 -9.43,9.43l0 9.31 25.07 0c11.69,0 23.99,5.37 27.72,19.57 13.19,1.81 22.42,13.98 20.62,27.18 -1.42,10.35 -9.34,18.6 -19.62,20.46l0.04 0.22c-1.3,19.01 -15.42,25.98 -28.71,25.98l-58.89 0c-19.79,0 -27.71,-12.99 -28.71,-25.98 -13.11,-2.38 -21.8,-14.94 -19.42,-28.05zm135.86 19.38c8.18,-2.36 12.89,-10.91 10.53,-19.09 -1.47,-5.08 -5.44,-9.06 -10.53,-10.53l0 29.62zm-52.53 -81.58c0,-3.18 -2.58,-5.76 -5.76,-5.76 -3.18,0 -5.76,2.58 -5.76,5.76 0,3.18 2.58,5.76 5.76,5.76 3.18,0 5.76,-2.58 5.76,-5.76zm-55.39 87.12c0,7.54 2.64,20.18 20.18,20.18l58.85 0c7.54,0 20.18,-2.64 20.18,-20.18l0.04 -35.16c0,-17.58 -12.64,-20.18 -20.18,-20.18l-58.89 0c-17.58,0 -20.18,12.64 -20.18,20.18l0 35.16zm-8.49 -5.84l0 -29.62c-6.6,1.9 -11.15,7.94 -11.17,14.81 0.02,6.87 4.57,12.91 11.17,14.81z"/>
    </g>
   </g>
   <g>
    <g>
     <path fill="white" d="M71.58 103.35l49.54 0c2.39,0 4.33,1.94 4.33,4.33 0,2.4 -1.94,4.33 -4.33,4.33l-49.54 0c-2.39,0 -4.33,-1.94 -4.33,-4.33 0,-2.39 1.94,-4.33 4.33,-4.33z"/>
    </g>
   </g>
   <g>
    <g>
     <path fill="white" d="M-0 138.99l0 0c0.08,-9.28 7.67,-16.74 16.95,-16.65 7.77,0.07 14.47,5.45 16.22,13.01l11.56 2.25 103.23 0 11.56 -2.25c1.98,-9.07 10.94,-14.81 20,-12.83 9.07,1.98 14.81,10.93 12.83,20 -1.35,6.16 -6.03,11.05 -12.13,12.66l0 32.35c7.32,1.96 12.43,8.57 12.47,16.15l0 7.66c0,2.39 -1.94,4.33 -4.33,4.33 -2.39,0 -4.33,-1.94 -4.33,-4.33l0 -7.71c0,-4.5 -3.64,-8.14 -8.14,-8.14 -4.49,0 -8.14,3.64 -8.14,8.14l0 7.71c0,2.39 -1.94,4.33 -4.33,4.33 -2.39,0 -4.33,-1.94 -4.33,-4.33l0 -7.71c0.04,-7.58 5.15,-14.2 12.47,-16.15l0 -32.35c-5.5,-1.48 -9.87,-5.66 -11.61,-11.08l-7.23 1.43 0 53.44c-0.01,7.83 -1.66,15.58 -4.85,22.73l0 0.39c-12.79,28.34 -46.12,40.95 -74.46,28.17 -12.51,-5.64 -22.53,-15.66 -28.17,-28.17l-0.22 -0.48c-3.22,-7.12 -4.92,-14.83 -4.98,-22.65l0 -53.44 -7.23 -1.43c-1.73,5.43 -6.1,9.6 -11.6,11.08l0 32.35c7.32,1.96 12.43,8.57 12.47,16.15l0 7.71c0,2.39 -1.94,4.33 -4.33,4.33 -2.4,0 -4.33,-1.94 -4.33,-4.33l0 -7.71c-0,-4.5 -3.65,-8.14 -8.15,-8.13 -4.49,0 -8.13,3.64 -8.14,8.13l0 7.71c0,2.39 -1.94,4.33 -4.33,4.33 -2.39,0 -4.33,-1.94 -4.33,-4.33l0 -7.71c0.04,-7.58 5.15,-14.2 12.47,-16.15l0 -32.35c-7.36,-1.92 -12.51,-8.55 -12.56,-16.15zm175.9 8.14c4.5,0 8.14,-3.64 8.14,-8.14 0,-4.5 -3.64,-8.14 -8.14,-8.14 -4.49,0 -8.14,3.64 -8.14,8.14 0,4.49 3.65,8.14 8.14,8.14zm-79.55 99.47c16.31,0 31.49,-8.35 40.23,-22.13l-80.46 0c8.73,13.78 23.91,22.13 40.23,22.13zm-47.63 -47.63c0.02,5.78 1.09,11.5 3.16,16.89l89.03 0c2.07,-5.39 3.14,-11.11 3.16,-16.89l0 -52.7 -95.35 0 0 52.7zm-31.96 -51.83c0.01,0 0.03,0 0.04,0l0.08 -0.13c4.5,0 8.14,-3.64 8.14,-8.14 0,-4.5 -3.64,-8.14 -8.14,-8.14 -4.49,0 -8.14,3.64 -8.14,8.14 -0.07,4.5 3.52,8.2 8.01,8.27z"/>
    </g>
   </g>
   <g>
    <g>
     <path fill="white" d="M81.03 176.83c0.79,-0.72 1.82,-1.12 2.89,-1.12l12.99 0 -15.94 -16.37c-1.53,-1.84 -1.28,-4.56 0.55,-6.1 1.64,-1.37 4.04,-1.34 5.64,0.08l23.08 23.73c1.68,1.71 1.65,4.45 -0.06,6.12 -0.81,0.8 -1.92,1.24 -3.06,1.24l-13.34 0 16.41 18.27c1.6,1.77 1.46,4.5 -0.3,6.11l0 0c-1.77,1.6 -4.5,1.46 -6.11,-0.3l-23.08 -25.55c-1.6,-1.78 -1.46,-4.52 0.32,-6.11z"/>
    </g>
   </g>
   <g>
   </g>
   <g>
   </g>
   <g>
   </g>
   <g>
   </g>
   <g>
   </g>
   <g>
   </g>
   <g>
   </g>
   <g>
   </g>
   <g>
   </g>
   <g>
   </g>
   <g>
   </g>
   <g>
   </g>
   <g>
   </g>
   <g>
   </g>
   <g>
   </g>
  </g>
 </g>
</svg>
