<?xml version="1.0" encoding="UTF-8"?>
<!DOCTYPE svg PUBLIC "-//W3C//DTD SVG 1.0//EN" "http://www.w3.org/TR/2001/REC-SVG-20010904/DTD/svg10.dtd">
<!-- Creator: CorelDRAW 2017 -->
<svg xmlns="http://www.w3.org/2000/svg" xml:space="preserve" width="4.9298mm" height="3.2238mm" version="1.0" shape-rendering="geometricPrecision" text-rendering="geometricPrecision" image-rendering="optimizeQuality" fill-rule="evenodd" clip-rule="evenodd"
viewBox="0 0 265.09 173.35"
 xmlns:xlink="http://www.w3.org/1999/xlink">
 <g id="Layer_x0020_1">
  <metadata id="CorelCorpID_0Corel-Layer"/>
  <g id="_2373619530640">
   <g>
    <g id="Layer_20_51_">
     <g>
      <polygon fill="white" points="83.71,132.27 120.68,132.27 120.68,140.79 83.71,140.79 83.71,147.83 199.98,147.83 199.98,140.79 156.88,140.79 156.88,132.27 204.82,132.27 204.82,112.79 83.71,112.79 "/>
      <polygon fill="white" points="51.51,15.1 227.77,15.1 227.77,85.55 242.87,85.55 242.87,0 36.41,0 36.41,47.18 51.51,47.18 "/>
      <path fill="white" d="M-0 170.19l78.84 0 0 -118.27 -78.84 0 0 118.27zm41.08 -5.94c-2.09,0 -3.8,-1.69 -3.8,-3.79 0,-2.1 1.7,-3.8 3.8,-3.8 2.1,0 3.8,1.69 3.8,3.8 0,2.1 -1.69,3.79 -3.8,3.79zm-29.68 -100.93l56.05 0 -0.01 87.25 -56.05 0 0 -87.25z"/>
      <path fill="white" d="M210.17 90.1l0 83.26 54.92 0 0 -83.26 -54.92 0zm28.57 3.44c0.66,0 1.19,0.55 1.19,1.2 0,0.66 -0.53,1.2 -1.19,1.2 -0.67,0 -1.21,-0.55 -1.21,-1.2 0,-0.66 0.54,-1.2 1.21,-1.2zm-7.13 4l14.24 0 0 1.15 -14.24 0 0 -1.15zm6.66 72.23c-1.58,0 -2.84,-1.28 -2.84,-2.85 0,-1.58 1.26,-2.84 2.84,-2.84 1.57,0 2.85,1.27 2.85,2.84 0,1.56 -1.29,2.85 -2.85,2.85zm18.88 -9.8c-12.85,0.07 -32.66,0.12 -39.03,0.06l0 -57.25 39.03 -0.01 0 57.19z"/>
     </g>
    </g>
   </g>
   <g>
   </g>
   <g>
   </g>
   <g>
   </g>
   <g>
   </g>
   <g>
   </g>
   <g>
   </g>
   <g>
   </g>
   <g>
   </g>
   <g>
   </g>
   <g>
   </g>
   <g>
   </g>
   <g>
   </g>
   <g>
   </g>
   <g>
   </g>
   <g>
   </g>
  </g>
 </g>
</svg>
